<?xml version="1.0" encoding="utf-8"?>
<!-- Generator: Adobe Illustrator 23.0.4, SVG Export Plug-In . SVG Version: 6.00 Build 0)  -->
<svg version="1.1" id="Layer_1" xmlns="http://www.w3.org/2000/svg" xmlns:xlink="http://www.w3.org/1999/xlink" x="0px" y="0px"
	 viewBox="0 0 159.86 42" style="enable-background:new 0 0 159.86 42;" xml:space="preserve">
<style type="text/css">
	.st0{fill:#E63323;}
	.st1{fill:#FFFFFF;}
	.st2{fill:#1D1D1B;}
</style>
<title>id_Logo</title>
<path class="st0" d="M41.19,20.59c0.01,11.38-9.21,20.6-20.59,20.61C9.22,41.21,0,31.99-0.01,20.61S9.2,0.01,20.58,0
	c0,0,0.01,0,0.01,0C31.96,0,41.18,9.22,41.19,20.59z"/>
<path class="st1" d="M11.48,13c-1.2,0.07-2.23-0.84-2.31-2.04c0-0.02,0-0.04,0-0.06c0.06-1.21,1.09-2.15,2.3-2.09c0,0,0,0,0.01,0
	c1.21-0.05,2.23,0.88,2.3,2.09C13.73,12.11,12.7,13.05,11.48,13C11.48,13,11.48,13,11.48,13z M9.41,31.29V14.66h4.16v16.63H9.41z"/>
<path class="st1" d="M30.82,31.29v-1.51c-0.07,0.07-0.58,0.1-0.69,0.17c-1.27,1.21-2.96,1.86-4.71,1.82
	c-4.74,0.03-8.62-3.78-8.65-8.53c0-0.08,0-0.16,0-0.24c0.09-4.84,4.02-8.72,8.86-8.76c1.79-0.08,3.52,0.63,4.74,1.93l0.45-0.55V9.74
	h3.81v21.55H30.82z M25.87,17.79c-2.88-0.04-5.25,2.25-5.29,5.13s2.25,5.25,5.13,5.29s5.25-2.25,5.29-5.13c0-0.03,0-0.05,0-0.08
	C31.02,20.14,28.73,17.81,25.87,17.79C25.87,17.79,25.87,17.79,25.87,17.79z"/>
<path class="st2" d="M58.76,23.54H46.41c-0.02,0.92,0.13,1.84,0.46,2.71c0.28,0.72,0.72,1.37,1.28,1.9
	c0.53,0.49,1.16,0.86,1.85,1.09c0.77,0.25,1.57,0.37,2.37,0.36c1.18-0.01,2.35-0.24,3.44-0.68c0.89-0.3,1.72-0.75,2.47-1.32h0.15
	v3.07c-0.95,0.4-1.92,0.74-2.92,1c-1.02,0.28-2.07,0.41-3.13,0.41c-2.39,0.14-4.74-0.67-6.53-2.27c-1.65-1.72-2.5-4.06-2.35-6.44
	c-0.13-2.4,0.68-4.75,2.25-6.56c1.53-1.63,3.69-2.52,5.92-2.43c1.96-0.12,3.87,0.61,5.25,2c1.31,1.57,1.97,3.58,1.84,5.62V23.54z
	 M56,21.4c0.07-1.26-0.33-2.5-1.12-3.49c-0.88-0.88-2.11-1.34-3.35-1.24c-1.33-0.07-2.63,0.41-3.6,1.33
	c-0.89,0.91-1.43,2.1-1.52,3.37L56,21.4z"/>
<path class="st2" d="M79.47,31.7h-2.82v-9.58c0-0.73-0.04-1.46-0.13-2.18c-0.06-0.56-0.23-1.1-0.5-1.59
	c-0.26-0.42-0.64-0.75-1.09-0.94c-0.59-0.22-1.22-0.33-1.85-0.31c-0.85,0.01-1.68,0.21-2.44,0.58c-0.86,0.39-1.68,0.88-2.43,1.46
	V31.7H65.4V14.86h2.81v1.86C69.06,16.02,70,15.44,71,15c0.92-0.41,1.91-0.62,2.91-0.62c1.54-0.09,3.03,0.5,4.09,1.62
	c1.04,1.35,1.55,3.03,1.44,4.73L79.47,31.7z"/>
<path class="st2" d="M96,31.6c-0.53,0.14-1.11,0.25-1.74,0.35c-0.56,0.08-1.12,0.12-1.68,0.13c-1.44,0.1-2.86-0.4-3.92-1.39
	c-1-1.26-1.48-2.86-1.34-4.46v-9h-1.89v-2.37h1.91V10h2.81v4.82H96v2.39h-5.85V25c0,0.89,0,1.58,0.06,2.08
	c0.04,0.49,0.18,0.97,0.43,1.4c0.2,0.39,0.52,0.7,0.91,0.89c0.57,0.22,1.17,0.31,1.78,0.28c0.49-0.01,0.98-0.07,1.45-0.2
	c0.37-0.09,0.73-0.2,1.09-0.33H96V31.6z"/>
<path class="st2" d="M104.73,12.05h-3.2v-3h3.2V12.05z M104.54,31.7h-2.82V14.86h2.82V31.7z"/>
<path class="st2" d="M121.28,31.6c-0.53,0.14-1.11,0.25-1.74,0.35c-0.56,0.08-1.12,0.12-1.68,0.13c-1.44,0.1-2.86-0.4-3.92-1.39
	c-1-1.26-1.48-2.86-1.34-4.46v-9h-1.9v-2.37h1.9V10h2.82v4.82h5.86v2.39h-5.86V25c0,0.89,0,1.58,0.06,2.08
	c0.04,0.49,0.18,0.97,0.42,1.4c0.2,0.39,0.52,0.7,0.92,0.89c0.56,0.22,1.17,0.32,1.77,0.28c0.49,0,0.98-0.07,1.45-0.2
	c0.37-0.09,0.73-0.2,1.09-0.33h0.15L121.28,31.6z"/>
<path class="st2" d="M140.1,31.7h-2.81v-1.79l-1,0.72c-0.39,0.28-0.8,0.53-1.24,0.73c-0.52,0.24-1.07,0.44-1.63,0.58
	c-0.71,0.17-1.43,0.24-2.16,0.23c-1.44,0.03-2.82-0.51-3.86-1.5c-1.06-1-1.63-2.4-1.59-3.85c-0.05-1.09,0.24-2.17,0.83-3.09
	c0.6-0.83,1.41-1.47,2.36-1.86c1.18-0.49,2.43-0.81,3.7-0.92c1.44-0.16,3-0.29,4.63-0.37v-0.43c0.02-0.55-0.1-1.1-0.34-1.6
	c-0.23-0.43-0.57-0.77-1-1c-0.45-0.25-0.94-0.41-1.45-0.47c-1.42-0.21-2.86-0.15-4.26,0.17c-0.97,0.21-1.92,0.5-2.84,0.85h-0.15
	v-2.86c0.56-0.14,1.36-0.31,2.4-0.49c1.02-0.18,2.06-0.27,3.1-0.27c1.04-0.01,2.08,0.09,3.1,0.29c0.82,0.17,1.6,0.51,2.29,1
	c0.63,0.46,1.12,1.08,1.44,1.79c0.36,0.86,0.53,1.79,0.5,2.73L140.1,31.7z M137.29,27.57v-4.7c-0.87,0.05-1.89,0.13-3.06,0.23
	c-0.94,0.06-1.88,0.21-2.79,0.44c-0.75,0.18-1.44,0.55-2,1.08c-0.52,0.53-0.8,1.26-0.76,2c-0.06,0.82,0.27,1.63,0.88,2.18
	c0.78,0.55,1.73,0.81,2.68,0.73c0.95,0.03,1.89-0.15,2.76-0.53C135.81,28.61,136.58,28.13,137.29,27.57L137.29,27.57z"/>
<path class="st2" d="M159.86,26.83c0.02,1.49-0.69,2.9-1.9,3.78c-1.52,1.05-3.34,1.57-5.19,1.47c-1.15,0.01-2.31-0.14-3.42-0.44
	c-0.9-0.25-1.77-0.59-2.61-1V27.5h0.15c0.91,0.68,1.92,1.22,3,1.6c1,0.38,2.06,0.58,3.13,0.59c1.01,0.05,2.01-0.16,2.91-0.6
	c0.67-0.38,1.06-1.12,1-1.89c0.04-0.56-0.17-1.11-0.57-1.51c-0.65-0.45-1.4-0.75-2.18-0.87l-1.57-0.32
	c-0.64-0.12-1.22-0.25-1.75-0.39c-1.2-0.23-2.29-0.83-3.12-1.72c-0.63-0.79-0.96-1.78-0.92-2.79c-0.01-0.69,0.13-1.37,0.42-2
	c0.31-0.64,0.75-1.2,1.3-1.64c0.63-0.51,1.36-0.89,2.14-1.12c0.94-0.28,1.92-0.42,2.9-0.41c1.01,0,2.02,0.13,3,0.37
	c0.89,0.19,1.75,0.5,2.56,0.9v3H159c-0.8-0.57-1.68-1.03-2.61-1.35c-0.96-0.36-1.98-0.55-3-0.56c-0.9-0.03-1.8,0.18-2.6,0.6
	c-0.67,0.33-1.08,1.02-1.06,1.77c-0.04,0.59,0.19,1.17,0.64,1.56c0.6,0.43,1.28,0.72,2,0.86c0.51,0.12,1.09,0.24,1.74,0.36
	c0.64,0.12,1.18,0.23,1.61,0.33c1.13,0.22,2.17,0.76,3,1.55C159.49,24.63,159.91,25.71,159.86,26.83z"/>
</svg>
