<?xml version="1.0" encoding="utf-8"?>
<!-- Generator: Adobe Illustrator 23.0.4, SVG Export Plug-In . SVG Version: 6.00 Build 0)  -->
<svg version="1.1" id="Ebene_1" xmlns="http://www.w3.org/2000/svg" xmlns:xlink="http://www.w3.org/1999/xlink" x="0px" y="0px"
	 viewBox="0 0 330.14 42" style="enable-background:new 0 0 330.14 42;" xml:space="preserve">
<style type="text/css">
	.st0{fill:#E30613;}
	.st1{fill:#FFFFFF;}
</style>
<g id="Layer_1">
	<g>
		<g>
			<g>
				<path d="M29.84,6.54c0.29,0.21,0.66,0.31,1.12,0.31c0.32,0,0.6-0.09,0.81-0.26c0.21-0.18,0.32-0.45,0.33-0.81
					c0-0.26-0.13-0.47-0.36-0.64c-0.11-0.09-0.23-0.18-0.37-0.26c-0.14-0.08-0.28-0.16-0.43-0.24c-0.14-0.09-0.28-0.18-0.42-0.27
					s-0.27-0.19-0.38-0.3c-0.24-0.21-0.36-0.49-0.36-0.82c0-0.43,0.16-0.76,0.47-1.01c0.3-0.23,0.68-0.35,1.13-0.36
					c0.13,0,0.29,0.01,0.47,0.03c0.18,0.03,0.36,0.08,0.53,0.14L32.3,2.52c-0.25-0.13-0.55-0.19-0.92-0.19
					c-0.13,0-0.26,0.01-0.38,0.04c-0.13,0.03-0.25,0.08-0.36,0.16c-0.1,0.07-0.19,0.16-0.25,0.27c-0.07,0.12-0.1,0.27-0.1,0.44
					c0,0.12,0.03,0.24,0.1,0.34c0.07,0.11,0.15,0.2,0.26,0.28s0.24,0.16,0.38,0.24s0.28,0.16,0.42,0.25
					c0.31,0.15,0.57,0.34,0.8,0.57c0.11,0.11,0.2,0.24,0.27,0.39c0.06,0.15,0.09,0.32,0.09,0.52c-0.01,0.52-0.19,0.9-0.53,1.13
					s-0.72,0.35-1.14,0.35c-0.49-0.01-0.87-0.09-1.15-0.23L29.84,6.54z"/>
				<path d="M36.67,3.89c-0.26-0.12-0.53-0.19-0.8-0.19c-0.44,0-0.79,0.15-1.02,0.44c-0.25,0.3-0.37,0.68-0.37,1.16
					c0,0.45,0.12,0.82,0.37,1.12c0.24,0.32,0.56,0.48,0.98,0.48c0.29,0,0.57-0.06,0.84-0.17l0.04,0.44
					c-0.3,0.09-0.62,0.14-0.95,0.13c-0.6-0.01-1.04-0.22-1.33-0.61c-0.3-0.39-0.44-0.85-0.44-1.4c0-0.61,0.17-1.09,0.51-1.45
					c0.33-0.37,0.77-0.55,1.32-0.56c0.23,0,0.42,0.02,0.57,0.05c0.08,0.01,0.15,0.03,0.2,0.05s0.1,0.04,0.12,0.05L36.67,3.89z"/>
				<path d="M38.18,1.58h0.45v2.44h0.01c0.1-0.21,0.25-0.39,0.45-0.53c0.2-0.13,0.43-0.2,0.7-0.2c0.49,0.01,0.83,0.16,1.01,0.45
					c0.18,0.3,0.26,0.69,0.26,1.18V7.2h-0.45V4.92c0-0.17-0.01-0.33-0.03-0.48c-0.02-0.14-0.06-0.27-0.12-0.38
					c-0.12-0.24-0.36-0.36-0.73-0.37c-0.4,0.01-0.68,0.17-0.85,0.47c-0.17,0.31-0.25,0.64-0.25,0.99V7.2h-0.45V1.58z"/>
				<path d="M46.75,7.2H46.2l-1.01-3.31h-0.02L44.16,7.2h-0.55l-1.19-3.83h0.5l0.97,3.31h0.01l1.03-3.31h0.55l0.98,3.31h0.01
					l1.03-3.31h0.46L46.75,7.2z"/>
				<path d="M51.84,7.09c-0.35,0.14-0.71,0.21-1.08,0.21c-0.61-0.01-1.04-0.21-1.3-0.58s-0.39-0.84-0.38-1.43
					c0-0.6,0.15-1.08,0.44-1.45c0.28-0.37,0.65-0.55,1.12-0.56c0.52,0.01,0.9,0.2,1.14,0.56c0.23,0.36,0.34,0.8,0.34,1.33v0.24
					h-2.54c0,0.42,0.1,0.76,0.31,1.03c0.2,0.29,0.51,0.43,0.91,0.44c0.18,0,0.37-0.03,0.57-0.1c0.2-0.05,0.36-0.12,0.47-0.19
					C51.84,6.59,51.84,7.09,51.84,7.09z M51.62,5.02c0-0.35-0.07-0.66-0.21-0.92c-0.15-0.27-0.4-0.4-0.74-0.41
					c-0.33,0.01-0.6,0.15-0.79,0.42c-0.2,0.27-0.3,0.58-0.3,0.91C49.58,5.02,51.62,5.02,51.62,5.02z"/>
				<path d="M54.15,2.36H53.7V1.73h0.45V2.36z M53.7,3.38h0.45V7.2H53.7V3.38z"/>
				<path d="M55.6,6.81l2.23-3.03h-2.21v-0.4h2.75v0.4l-2.3,3.02h2.3v0.4H55.6V6.81z"/>
				<path d="M62.35,7.09C62,7.22,61.64,7.29,61.27,7.3c-0.61-0.01-1.04-0.21-1.3-0.58s-0.39-0.84-0.38-1.43
					c0-0.6,0.15-1.08,0.44-1.45c0.28-0.37,0.65-0.55,1.12-0.56c0.52,0.01,0.9,0.2,1.14,0.56c0.23,0.36,0.34,0.8,0.34,1.33v0.24
					h-2.54c0,0.42,0.1,0.76,0.31,1.03c0.2,0.29,0.51,0.43,0.91,0.44c0.18,0,0.37-0.03,0.57-0.1c0.2-0.05,0.36-0.12,0.47-0.19V7.09z
					 M62.13,5.02c0-0.35-0.07-0.66-0.21-0.92c-0.15-0.27-0.4-0.4-0.74-0.41c-0.33,0.01-0.6,0.15-0.79,0.42
					c-0.2,0.27-0.3,0.58-0.3,0.91C60.09,5.02,62.13,5.02,62.13,5.02z"/>
				<path d="M64.2,4.23c0-0.35-0.01-0.64-0.03-0.85h0.45v0.73h0.01c0.09-0.22,0.21-0.42,0.37-0.57c0.16-0.16,0.35-0.24,0.58-0.25
					c0.12,0,0.23,0.02,0.32,0.04v0.49c-0.1-0.03-0.21-0.04-0.33-0.04c-0.18,0-0.33,0.05-0.44,0.14C65.02,4,64.92,4.13,64.85,4.28
					s-0.12,0.31-0.15,0.49c-0.03,0.19-0.05,0.37-0.05,0.54V7.2H64.2V4.23z"/>
				<path d="M67.74,2.36h-0.45V1.73h0.45V2.36z M67.29,3.38h0.45V7.2h-0.45V3.38z"/>
				<path d="M69.26,6.65c0.28,0.16,0.6,0.24,0.96,0.24c0.23,0,0.42-0.06,0.58-0.19c0.16-0.12,0.24-0.28,0.24-0.5
					c0-0.23-0.09-0.41-0.27-0.54c-0.17-0.12-0.38-0.24-0.62-0.34c-0.11-0.05-0.22-0.11-0.32-0.17s-0.2-0.13-0.29-0.2
					c-0.08-0.08-0.15-0.17-0.21-0.28c-0.05-0.1-0.08-0.22-0.08-0.35c0-0.38,0.13-0.65,0.38-0.81c0.24-0.16,0.52-0.23,0.83-0.23
					c0.11,0,0.24,0.01,0.42,0.03c0.17,0.03,0.33,0.08,0.5,0.14l-0.04,0.41c-0.27-0.11-0.54-0.17-0.82-0.18
					c-0.24,0-0.42,0.04-0.56,0.13C69.89,3.86,69.83,3.92,69.79,4c-0.04,0.08-0.06,0.18-0.06,0.32c0,0.08,0.03,0.15,0.08,0.22
					c0.05,0.07,0.12,0.13,0.21,0.18c0.09,0.05,0.19,0.1,0.3,0.16c0.11,0.05,0.22,0.11,0.33,0.16c0.24,0.11,0.45,0.25,0.63,0.42
					c0.18,0.18,0.27,0.42,0.28,0.73c0,0.2-0.04,0.37-0.12,0.5c-0.08,0.14-0.19,0.25-0.31,0.34c-0.27,0.17-0.56,0.25-0.86,0.25
					c-0.36,0-0.7-0.06-1.03-0.18L69.26,6.65z"/>
				<path d="M75.45,3.89c-0.26-0.12-0.53-0.19-0.8-0.19c-0.44,0-0.79,0.15-1.02,0.44c-0.25,0.3-0.37,0.68-0.37,1.16
					c0,0.45,0.12,0.82,0.37,1.12c0.24,0.32,0.56,0.48,0.98,0.48c0.29,0,0.57-0.06,0.84-0.17l0.04,0.44
					c-0.3,0.09-0.62,0.14-0.95,0.13c-0.6-0.01-1.04-0.22-1.33-0.61c-0.3-0.39-0.44-0.85-0.44-1.4c0-0.61,0.17-1.09,0.51-1.45
					c0.33-0.37,0.77-0.55,1.32-0.56c0.23,0,0.42,0.02,0.57,0.05c0.08,0.01,0.14,0.03,0.2,0.05c0.05,0.02,0.1,0.04,0.12,0.05
					L75.45,3.89z"/>
				<path d="M76.96,1.58h0.45v2.44h0.01c0.1-0.21,0.25-0.39,0.45-0.53c0.2-0.13,0.43-0.2,0.7-0.2c0.49,0.01,0.83,0.16,1.01,0.45
					c0.18,0.3,0.26,0.69,0.26,1.18V7.2h-0.45V4.92c0-0.17-0.01-0.33-0.03-0.48c-0.02-0.14-0.06-0.27-0.12-0.38
					c-0.12-0.24-0.36-0.36-0.73-0.37c-0.4,0.01-0.68,0.17-0.85,0.47c-0.17,0.31-0.25,0.64-0.25,0.99V7.2h-0.45V1.58z"/>
				<path d="M84.2,7.09c-0.35,0.14-0.71,0.21-1.08,0.21c-0.61-0.01-1.04-0.21-1.3-0.58s-0.39-0.84-0.38-1.43
					c0-0.6,0.15-1.08,0.44-1.45c0.28-0.37,0.65-0.55,1.12-0.56c0.52,0.01,0.9,0.2,1.14,0.56c0.23,0.36,0.34,0.8,0.34,1.33v0.24
					h-2.54c0,0.42,0.1,0.76,0.31,1.03c0.2,0.29,0.51,0.43,0.91,0.44c0.18,0,0.37-0.03,0.57-0.1c0.2-0.05,0.36-0.12,0.47-0.19V7.09z
					 M83.98,5.02c0-0.35-0.07-0.66-0.21-0.92c-0.15-0.27-0.39-0.4-0.74-0.41c-0.33,0.01-0.6,0.15-0.79,0.42
					c-0.2,0.27-0.3,0.58-0.3,0.91C81.94,5.02,83.98,5.02,83.98,5.02z"/>
				<path d="M88.55,1.97h2.48v0.45h-1.98v1.87h1.88v0.45h-1.88v2.02h2.07V7.2h-2.57V1.97z"/>
				<path d="M93.29,2.36h-0.45V1.73h0.45V2.36z M92.84,3.38h0.45V7.2h-0.45V3.38z"/>
				<path d="M98.02,7.2h-0.45V6.6h-0.01c-0.24,0.47-0.63,0.7-1.16,0.7c-0.51-0.01-0.89-0.21-1.14-0.58
					C95,6.34,94.87,5.87,94.87,5.29c-0.01-0.6,0.11-1.08,0.36-1.44c0.24-0.37,0.63-0.56,1.17-0.56c0.18,0,0.35,0.03,0.48,0.08
					c0.14,0.05,0.26,0.12,0.35,0.21c0.19,0.18,0.3,0.32,0.33,0.44h0.01V1.58h0.45C98.02,1.58,98.02,7.2,98.02,7.2z M95.37,5.29
					c0,0.18,0.02,0.36,0.05,0.55c0.04,0.19,0.1,0.37,0.17,0.53c0.09,0.15,0.2,0.27,0.34,0.37c0.14,0.11,0.32,0.16,0.53,0.16
					c0.2,0,0.38-0.05,0.52-0.16c0.14-0.1,0.25-0.22,0.34-0.38c0.16-0.34,0.24-0.7,0.24-1.06c0-0.18-0.02-0.37-0.05-0.56
					c-0.04-0.18-0.1-0.35-0.19-0.51c-0.09-0.16-0.2-0.29-0.34-0.39c-0.15-0.1-0.32-0.14-0.52-0.14c-0.22,0-0.4,0.05-0.53,0.14
					c-0.14,0.09-0.25,0.21-0.34,0.37c-0.08,0.15-0.14,0.32-0.17,0.51C95.39,4.91,95.37,5.1,95.37,5.29z"/>
				<path d="M102.78,6.89c0,0.54-0.13,1-0.38,1.37c-0.27,0.37-0.72,0.56-1.35,0.57c-0.24,0-0.47-0.03-0.67-0.08
					s-0.35-0.09-0.45-0.12l0.04-0.47c0.31,0.17,0.67,0.26,1.09,0.27c0.3,0,0.53-0.06,0.7-0.16c0.18-0.1,0.3-0.24,0.39-0.42
					c0.09-0.18,0.14-0.39,0.17-0.62c0.02-0.23,0.03-0.49,0.03-0.76h-0.01c-0.26,0.51-0.64,0.76-1.12,0.75
					c-0.58-0.01-0.99-0.23-1.22-0.65c-0.12-0.19-0.21-0.4-0.26-0.62c-0.06-0.22-0.09-0.44-0.09-0.65c-0.01-0.6,0.11-1.08,0.36-1.44
					c0.24-0.37,0.63-0.56,1.17-0.56c0.24,0,0.46,0.03,0.64,0.08c0.18,0.07,0.35,0.21,0.51,0.44h0.01V3.38h0.45L102.78,6.89
					L102.78,6.89z M100.13,5.29c0,0.39,0.08,0.73,0.25,1.03c0.17,0.31,0.44,0.47,0.83,0.48c0.41-0.01,0.71-0.17,0.88-0.5
					c0.17-0.31,0.25-0.65,0.25-1.01c0-0.48-0.08-0.86-0.23-1.15c-0.16-0.29-0.45-0.44-0.87-0.45c-0.22,0-0.4,0.05-0.53,0.14
					c-0.14,0.09-0.25,0.21-0.34,0.37c-0.08,0.15-0.14,0.32-0.17,0.51C100.14,4.91,100.13,5.1,100.13,5.29z"/>
				<path d="M107.09,7.09c-0.35,0.14-0.71,0.21-1.08,0.21c-0.61-0.01-1.04-0.21-1.3-0.58s-0.39-0.84-0.38-1.43
					c0-0.6,0.15-1.08,0.44-1.45c0.28-0.37,0.65-0.55,1.12-0.56c0.52,0.01,0.9,0.2,1.14,0.56c0.23,0.36,0.34,0.8,0.34,1.33v0.24
					h-2.54c0,0.42,0.1,0.76,0.31,1.03c0.2,0.29,0.51,0.43,0.91,0.44c0.18,0,0.37-0.03,0.57-0.1c0.2-0.05,0.36-0.12,0.47-0.19V7.09z
					 M106.87,5.02c0-0.35-0.07-0.66-0.21-0.92c-0.15-0.27-0.39-0.4-0.74-0.41c-0.33,0.01-0.6,0.15-0.79,0.42
					c-0.2,0.27-0.3,0.58-0.3,0.91C104.83,5.02,106.87,5.02,106.87,5.02z"/>
				<path d="M108.95,4.28c0-0.29-0.01-0.59-0.03-0.9h0.44v0.68h0.01c0.04-0.09,0.09-0.18,0.15-0.27c0.06-0.09,0.13-0.17,0.22-0.25
					c0.09-0.08,0.21-0.14,0.34-0.19c0.14-0.04,0.3-0.07,0.49-0.07c0.46,0.01,0.78,0.15,0.98,0.42c0.19,0.27,0.28,0.62,0.28,1.05V7.2
					h-0.45V4.88c0-0.36-0.06-0.65-0.2-0.87c-0.14-0.2-0.37-0.31-0.69-0.32c-0.41,0.01-0.69,0.16-0.86,0.45
					c-0.08,0.14-0.15,0.28-0.18,0.44c-0.04,0.17-0.06,0.34-0.06,0.51V7.2h-0.45L108.95,4.28L108.95,4.28z"/>
				<path d="M113.42,5.29c0-0.54,0.14-1.01,0.42-1.4c0.28-0.4,0.71-0.6,1.31-0.61c0.6,0.01,1.04,0.21,1.32,0.61
					c0.27,0.39,0.41,0.85,0.41,1.4c0,0.54-0.14,1-0.41,1.39c-0.28,0.4-0.72,0.6-1.32,0.62c-0.59-0.01-1.03-0.22-1.31-0.62
					C113.56,6.29,113.42,5.83,113.42,5.29z M113.92,5.29c0,0.46,0.11,0.83,0.32,1.13c0.2,0.31,0.51,0.47,0.91,0.47
					s0.71-0.16,0.93-0.47c0.2-0.3,0.31-0.67,0.31-1.13s-0.1-0.84-0.31-1.14s-0.52-0.45-0.93-0.46c-0.4,0-0.71,0.16-0.91,0.46
					C114.02,4.45,113.92,4.83,113.92,5.29z"/>
				<path d="M118.18,6.65c0.28,0.16,0.6,0.24,0.96,0.24c0.23,0,0.42-0.06,0.58-0.19c0.16-0.12,0.24-0.28,0.24-0.5
					c0-0.23-0.09-0.41-0.27-0.54c-0.17-0.12-0.38-0.24-0.62-0.34c-0.11-0.05-0.22-0.11-0.32-0.17s-0.2-0.13-0.29-0.2
					c-0.08-0.08-0.15-0.17-0.21-0.28c-0.05-0.1-0.08-0.22-0.08-0.35c0-0.38,0.13-0.65,0.38-0.81c0.24-0.16,0.52-0.23,0.83-0.23
					c0.11,0,0.24,0.01,0.42,0.03c0.17,0.03,0.33,0.08,0.5,0.14l-0.04,0.41c-0.27-0.11-0.54-0.17-0.82-0.18
					c-0.24,0-0.42,0.04-0.56,0.13c-0.07,0.05-0.13,0.11-0.17,0.19c-0.04,0.08-0.06,0.18-0.06,0.32c0,0.08,0.03,0.15,0.08,0.22
					c0.05,0.07,0.12,0.13,0.21,0.18c0.09,0.05,0.19,0.1,0.3,0.16c0.11,0.05,0.22,0.11,0.33,0.16c0.24,0.11,0.45,0.25,0.63,0.42
					c0.18,0.18,0.27,0.42,0.28,0.73c0,0.2-0.04,0.37-0.12,0.5c-0.08,0.14-0.19,0.25-0.31,0.34c-0.27,0.17-0.56,0.25-0.86,0.25
					c-0.36,0-0.7-0.06-1.03-0.18L118.18,6.65z"/>
				<path d="M121.68,6.65c0.28,0.16,0.6,0.24,0.96,0.24c0.23,0,0.42-0.06,0.58-0.19c0.16-0.12,0.24-0.28,0.24-0.5
					c0-0.23-0.09-0.41-0.27-0.54c-0.17-0.12-0.38-0.24-0.62-0.34c-0.11-0.05-0.22-0.11-0.32-0.17s-0.2-0.13-0.29-0.2
					c-0.08-0.08-0.15-0.17-0.21-0.28c-0.05-0.1-0.08-0.22-0.08-0.35c0-0.38,0.13-0.65,0.38-0.81c0.24-0.16,0.52-0.23,0.83-0.23
					c0.11,0,0.24,0.01,0.42,0.03c0.17,0.03,0.33,0.08,0.5,0.14l-0.04,0.41c-0.27-0.11-0.54-0.17-0.82-0.18
					c-0.24,0-0.42,0.04-0.56,0.13c-0.07,0.05-0.13,0.11-0.17,0.19c-0.04,0.08-0.06,0.18-0.06,0.32c0,0.08,0.03,0.15,0.08,0.22
					c0.05,0.07,0.12,0.13,0.21,0.18c0.09,0.05,0.19,0.1,0.3,0.16c0.11,0.05,0.22,0.11,0.33,0.16c0.24,0.11,0.45,0.25,0.63,0.42
					c0.18,0.18,0.27,0.42,0.28,0.73c0,0.2-0.04,0.37-0.12,0.5c-0.08,0.14-0.19,0.25-0.31,0.34c-0.27,0.17-0.56,0.25-0.86,0.25
					c-0.36,0-0.7-0.06-1.03-0.18L121.68,6.65z"/>
				<path d="M127.96,7.09c-0.35,0.14-0.71,0.21-1.08,0.21c-0.61-0.01-1.04-0.21-1.3-0.58s-0.39-0.84-0.38-1.43
					c0-0.6,0.15-1.08,0.44-1.45c0.28-0.37,0.65-0.55,1.12-0.56c0.52,0.01,0.9,0.2,1.14,0.56c0.23,0.36,0.34,0.8,0.34,1.33v0.24
					h-2.54c0,0.42,0.1,0.76,0.31,1.03c0.2,0.29,0.51,0.43,0.91,0.44c0.18,0,0.37-0.03,0.57-0.1c0.2-0.05,0.36-0.12,0.47-0.19
					C127.96,6.59,127.96,7.09,127.96,7.09z M127.73,5.02c0-0.35-0.07-0.66-0.21-0.92c-0.15-0.27-0.39-0.4-0.74-0.41
					c-0.33,0.01-0.6,0.15-0.79,0.42c-0.2,0.27-0.3,0.58-0.3,0.91C125.69,5.02,127.73,5.02,127.73,5.02z"/>
				<path d="M129.81,4.28c0-0.29-0.01-0.59-0.03-0.9h0.44v0.68h0.01c0.04-0.09,0.09-0.18,0.15-0.27s0.13-0.17,0.22-0.25
					s0.21-0.14,0.34-0.19c0.14-0.04,0.3-0.07,0.49-0.07c0.46,0.01,0.78,0.15,0.98,0.42c0.19,0.27,0.28,0.62,0.28,1.05V7.2h-0.45
					V4.88c0-0.36-0.06-0.65-0.2-0.87c-0.14-0.2-0.37-0.31-0.69-0.32c-0.41,0.01-0.69,0.16-0.86,0.45c-0.08,0.14-0.15,0.28-0.18,0.44
					c-0.04,0.17-0.06,0.34-0.06,0.51V7.2h-0.45L129.81,4.28L129.81,4.28z"/>
				<path d="M134.28,6.65c0.28,0.16,0.6,0.24,0.96,0.24c0.23,0,0.42-0.06,0.58-0.19c0.16-0.12,0.24-0.28,0.24-0.5
					c0-0.23-0.09-0.41-0.27-0.54c-0.17-0.12-0.38-0.24-0.62-0.34c-0.11-0.05-0.22-0.11-0.32-0.17s-0.2-0.13-0.29-0.2
					c-0.08-0.08-0.15-0.17-0.21-0.28c-0.05-0.1-0.08-0.22-0.08-0.35c0-0.38,0.13-0.65,0.38-0.81c0.24-0.16,0.52-0.23,0.83-0.23
					c0.11,0,0.24,0.01,0.41,0.03c0.17,0.03,0.33,0.08,0.5,0.14l-0.04,0.41c-0.27-0.11-0.54-0.17-0.82-0.18
					c-0.24,0-0.42,0.04-0.56,0.13c-0.07,0.05-0.13,0.11-0.17,0.19c-0.04,0.08-0.06,0.18-0.06,0.32c0,0.08,0.03,0.15,0.08,0.22
					c0.05,0.07,0.12,0.13,0.21,0.18c0.09,0.05,0.19,0.1,0.3,0.16c0.11,0.05,0.22,0.11,0.33,0.16c0.24,0.11,0.45,0.25,0.63,0.42
					c0.18,0.18,0.27,0.42,0.28,0.73c0,0.2-0.04,0.37-0.12,0.5c-0.08,0.14-0.19,0.25-0.31,0.34c-0.27,0.17-0.56,0.25-0.86,0.25
					c-0.36,0-0.7-0.06-1.03-0.18L134.28,6.65z"/>
				<path d="M140.48,3.89c-0.26-0.12-0.53-0.19-0.8-0.19c-0.44,0-0.79,0.15-1.02,0.44c-0.25,0.3-0.37,0.68-0.37,1.16
					c0,0.45,0.12,0.82,0.37,1.12c0.24,0.32,0.56,0.48,0.98,0.48c0.29,0,0.57-0.06,0.84-0.17l0.04,0.44
					c-0.3,0.09-0.62,0.14-0.95,0.13c-0.6-0.01-1.04-0.22-1.33-0.61c-0.3-0.39-0.44-0.85-0.44-1.4c0-0.61,0.17-1.09,0.51-1.45
					c0.33-0.37,0.77-0.55,1.32-0.56c0.23,0,0.42,0.02,0.57,0.05c0.08,0.01,0.15,0.03,0.2,0.05s0.1,0.04,0.12,0.05L140.48,3.89z"/>
				<path d="M141.99,1.58h0.45v2.44h0.01c0.1-0.21,0.25-0.39,0.45-0.53c0.2-0.13,0.43-0.2,0.7-0.2c0.49,0.01,0.83,0.16,1.01,0.45
					c0.17,0.3,0.26,0.69,0.26,1.18V7.2h-0.45V4.92c0-0.17-0.01-0.33-0.03-0.48c-0.02-0.14-0.06-0.27-0.12-0.38
					c-0.12-0.24-0.36-0.36-0.73-0.37c-0.4,0.01-0.68,0.17-0.85,0.47c-0.17,0.31-0.25,0.64-0.25,0.99V7.2h-0.45L141.99,1.58
					L141.99,1.58z"/>
				<path d="M148.87,6.59L148.87,6.59c-0.12,0.22-0.28,0.39-0.5,0.51c-0.22,0.12-0.45,0.19-0.69,0.19c-0.26,0-0.47-0.05-0.62-0.13
					c-0.17-0.08-0.29-0.17-0.38-0.29c-0.15-0.25-0.23-0.47-0.22-0.67c0-0.32,0.07-0.57,0.22-0.76c0.15-0.19,0.33-0.32,0.56-0.4
					s0.47-0.14,0.74-0.16c0.26-0.01,0.51-0.02,0.76-0.02h0.09v-0.2c0.01-0.66-0.27-0.99-0.85-0.99c-0.38,0-0.75,0.1-1.09,0.32V3.55
					c0.34-0.16,0.71-0.25,1.09-0.26c0.88-0.01,1.31,0.47,1.3,1.43V6.4c-0.01,0.29,0,0.56,0.04,0.8h-0.45L148.87,6.59L148.87,6.59z
					 M148.83,5.28h-0.13c-0.2,0-0.4,0-0.6,0.01c-0.21,0.02-0.4,0.06-0.57,0.13c-0.17,0.06-0.31,0.15-0.41,0.28
					c-0.11,0.13-0.17,0.3-0.17,0.51c0,0.25,0.08,0.42,0.23,0.53c0.14,0.11,0.32,0.17,0.54,0.17c0.27,0,0.48-0.06,0.63-0.17
					c0.15-0.11,0.26-0.23,0.33-0.37c0.07-0.16,0.11-0.31,0.12-0.46c0.01-0.16,0.02-0.29,0.02-0.39V5.28H148.83z"/>
				<path d="M151.4,3.78h-0.75v-0.4h0.75V3.1c0-0.21,0.01-0.41,0.03-0.6c0.01-0.19,0.05-0.36,0.11-0.51
					c0.06-0.16,0.16-0.28,0.3-0.37c0.13-0.09,0.31-0.13,0.54-0.13c0.08,0,0.16,0,0.24,0.01s0.15,0.04,0.19,0.07l-0.03,0.41
					c-0.1-0.06-0.22-0.08-0.36-0.08c-0.15,0-0.27,0.04-0.34,0.11c-0.08,0.08-0.14,0.18-0.17,0.29s-0.04,0.24-0.04,0.37
					s-0.01,0.26-0.01,0.39v0.33h0.83v0.4h-0.83V7.2h-0.45V3.78H151.4z"/>
				<path d="M155.76,3.78h-0.84v2.48c0,0.18,0.04,0.32,0.12,0.44c0.07,0.12,0.2,0.19,0.38,0.19c0.17,0,0.31-0.03,0.42-0.09
					l0.03,0.39c-0.05,0.02-0.13,0.04-0.23,0.07c-0.1,0.03-0.21,0.04-0.33,0.04c-0.2,0-0.36-0.04-0.47-0.11s-0.2-0.16-0.25-0.28
					c-0.05-0.12-0.08-0.25-0.1-0.4c-0.01-0.15-0.02-0.32-0.02-0.49V3.78h-0.73v-0.4h0.73V2.46l0.45-0.17v1.09h0.84L155.76,3.78
					L155.76,3.78z"/>
				<path d="M33.46,12.9c-0.17-0.09-0.35-0.15-0.55-0.19c-0.21-0.02-0.4-0.04-0.59-0.04c-0.66,0.01-1.17,0.22-1.52,0.64
					c-0.36,0.42-0.54,0.96-0.54,1.62c0,0.67,0.18,1.21,0.53,1.63s0.86,0.63,1.53,0.64c0.17,0,0.37-0.02,0.59-0.06
					c0.22-0.03,0.4-0.09,0.55-0.17l0.03,0.45c-0.15,0.08-0.33,0.14-0.56,0.17c-0.23,0.04-0.43,0.05-0.6,0.05
					c-0.8-0.01-1.43-0.26-1.88-0.75c-0.45-0.49-0.68-1.14-0.68-1.96c0-0.81,0.23-1.46,0.69-1.96c0.45-0.49,1.07-0.74,1.87-0.75
					c0.16,0,0.36,0.01,0.6,0.04c0.23,0.03,0.42,0.08,0.56,0.16L33.46,12.9z"/>
				<path d="M35.04,15.64c0-0.54,0.14-1.01,0.42-1.4c0.28-0.4,0.71-0.6,1.31-0.61c0.6,0.01,1.04,0.21,1.32,0.61
					c0.27,0.39,0.41,0.85,0.41,1.4c0,0.54-0.14,1-0.41,1.39c-0.28,0.4-0.72,0.6-1.32,0.62c-0.59-0.01-1.03-0.22-1.31-0.62
					C35.18,16.64,35.04,16.18,35.04,15.64z M35.54,15.64c0,0.46,0.11,0.83,0.32,1.13c0.2,0.31,0.51,0.47,0.91,0.47
					s0.71-0.16,0.93-0.47c0.2-0.3,0.31-0.67,0.31-1.13s-0.1-0.84-0.31-1.14c-0.21-0.3-0.52-0.45-0.93-0.46
					c-0.4,0-0.71,0.16-0.91,0.46C35.65,14.8,35.54,15.18,35.54,15.64z"/>
				<path d="M40.09,14.63c0-0.29-0.01-0.59-0.03-0.9h0.44v0.68h0.01c0.04-0.09,0.09-0.18,0.15-0.27s0.13-0.17,0.22-0.25
					s0.21-0.14,0.34-0.19c0.14-0.04,0.3-0.07,0.49-0.07c0.46,0.01,0.78,0.15,0.98,0.42c0.19,0.27,0.28,0.62,0.28,1.05v2.45h-0.45
					v-2.33c0-0.36-0.07-0.65-0.2-0.87c-0.14-0.21-0.37-0.31-0.69-0.32c-0.41,0.01-0.69,0.16-0.86,0.45
					c-0.08,0.14-0.15,0.28-0.18,0.44c-0.04,0.17-0.06,0.34-0.06,0.51v2.12h-0.45v-2.92H40.09z"/>
				<path d="M45.16,14.13h-0.75v-0.4h0.75v-0.28c0-0.2,0.01-0.41,0.03-0.6c0.01-0.19,0.05-0.36,0.11-0.51
					c0.06-0.16,0.16-0.28,0.3-0.37c0.13-0.09,0.31-0.13,0.54-0.13c0.08,0,0.16,0,0.24,0.01s0.15,0.04,0.19,0.07l-0.03,0.41
					c-0.1-0.06-0.22-0.08-0.36-0.08c-0.15,0-0.27,0.04-0.34,0.11c-0.08,0.08-0.14,0.18-0.17,0.29s-0.04,0.24-0.04,0.37
					s-0.01,0.26-0.01,0.39v0.33h0.84v0.4h-0.84v3.42h-0.45v-3.43H45.16z"/>
				<path d="M50.41,17.44c-0.35,0.14-0.71,0.21-1.08,0.21c-0.61-0.01-1.04-0.21-1.3-0.58s-0.39-0.84-0.38-1.43
					c0-0.6,0.15-1.08,0.44-1.45c0.28-0.37,0.65-0.55,1.12-0.56c0.52,0.01,0.9,0.2,1.14,0.56c0.23,0.36,0.34,0.8,0.34,1.33v0.24
					h-2.54c0,0.42,0.1,0.76,0.31,1.03c0.2,0.29,0.51,0.43,0.91,0.44c0.18,0,0.37-0.03,0.57-0.1c0.2-0.05,0.36-0.12,0.47-0.19
					C50.41,16.94,50.41,17.44,50.41,17.44z M50.19,15.38c0-0.35-0.07-0.66-0.21-0.92c-0.15-0.27-0.4-0.4-0.74-0.41
					c-0.33,0.01-0.6,0.15-0.79,0.42c-0.2,0.27-0.3,0.58-0.3,0.91H50.19z M49.48,12.25h0.57l-0.91,1.08h-0.33L49.48,12.25z"/>
				<path d="M55.2,17.55h-0.45v-0.61h-0.01c-0.24,0.47-0.63,0.7-1.16,0.7c-0.51-0.01-0.89-0.21-1.14-0.58
					c-0.26-0.38-0.39-0.85-0.39-1.43c-0.01-0.6,0.11-1.08,0.36-1.44c0.24-0.37,0.63-0.56,1.17-0.56c0.18,0,0.35,0.03,0.48,0.08
					c0.14,0.05,0.26,0.12,0.35,0.21c0.19,0.18,0.3,0.32,0.33,0.44h0.01v-2.44h0.45V17.55z M52.55,15.64c0,0.18,0.02,0.36,0.05,0.55
					c0.04,0.19,0.1,0.37,0.17,0.53c0.09,0.15,0.2,0.27,0.34,0.37c0.14,0.11,0.32,0.16,0.53,0.16c0.2,0,0.38-0.05,0.52-0.16
					c0.14-0.1,0.25-0.22,0.34-0.38c0.16-0.34,0.24-0.7,0.24-1.06c0-0.18-0.02-0.37-0.05-0.56c-0.04-0.18-0.1-0.35-0.19-0.51
					s-0.2-0.29-0.34-0.39c-0.15-0.1-0.32-0.14-0.52-0.14c-0.22,0-0.4,0.05-0.53,0.14c-0.14,0.09-0.25,0.21-0.34,0.37
					c-0.08,0.15-0.14,0.32-0.17,0.51C52.56,15.26,52.55,15.45,52.55,15.64z"/>
				<path d="M59.51,17.44c-0.35,0.14-0.71,0.21-1.08,0.21c-0.61-0.01-1.04-0.21-1.3-0.58s-0.39-0.84-0.38-1.43
					c0-0.6,0.15-1.08,0.44-1.45c0.28-0.37,0.65-0.55,1.12-0.56c0.52,0.01,0.9,0.2,1.14,0.56c0.23,0.36,0.34,0.8,0.34,1.33v0.24
					h-2.54c0,0.42,0.1,0.76,0.31,1.03c0.2,0.29,0.51,0.43,0.91,0.44c0.18,0,0.37-0.03,0.57-0.1c0.2-0.05,0.36-0.12,0.47-0.19
					C59.51,16.94,59.51,17.44,59.51,17.44z M59.29,15.38c0-0.35-0.07-0.66-0.21-0.92c-0.15-0.27-0.4-0.4-0.74-0.41
					c-0.33,0.01-0.6,0.15-0.79,0.42c-0.2,0.27-0.3,0.58-0.3,0.91H59.29z M58.57,12.25h0.57l-0.91,1.08H57.9L58.57,12.25z"/>
				<path d="M61.36,14.58c0-0.35-0.01-0.64-0.03-0.85h0.45v0.73h0.01c0.09-0.22,0.21-0.42,0.37-0.57c0.16-0.16,0.35-0.24,0.58-0.25
					c0.12,0,0.23,0.02,0.32,0.04v0.49c-0.1-0.03-0.21-0.04-0.33-0.04c-0.18,0-0.33,0.05-0.44,0.14c-0.12,0.09-0.21,0.21-0.28,0.37
					c-0.07,0.15-0.12,0.31-0.15,0.49c-0.03,0.19-0.05,0.37-0.05,0.54v1.89h-0.45V14.58z"/>
				<path d="M66.58,16.94h-0.01c-0.11,0.22-0.27,0.4-0.49,0.51c-0.22,0.12-0.45,0.19-0.69,0.19c-0.26,0-0.47-0.05-0.62-0.13
					c-0.17-0.08-0.29-0.17-0.38-0.29c-0.15-0.25-0.23-0.47-0.22-0.67c0-0.32,0.07-0.57,0.22-0.76c0.15-0.19,0.33-0.32,0.56-0.4
					c0.23-0.08,0.47-0.14,0.74-0.16c0.26-0.01,0.51-0.02,0.76-0.02h0.09v-0.2c0.01-0.66-0.27-0.99-0.85-0.99
					c-0.38,0-0.75,0.1-1.09,0.32V13.9c0.34-0.16,0.71-0.25,1.09-0.26c0.88-0.01,1.31,0.47,1.3,1.43v1.69
					c-0.01,0.29,0.01,0.56,0.04,0.8h-0.45V16.94z M66.53,15.63H66.4c-0.2,0-0.4,0-0.6,0.01c-0.21,0.02-0.4,0.06-0.57,0.13
					c-0.17,0.06-0.31,0.15-0.41,0.28c-0.11,0.13-0.17,0.3-0.17,0.51c0,0.25,0.08,0.42,0.23,0.53c0.14,0.11,0.32,0.17,0.54,0.17
					c0.27,0,0.48-0.06,0.63-0.17c0.15-0.1,0.26-0.23,0.33-0.37c0.07-0.16,0.11-0.31,0.12-0.46c0.01-0.16,0.02-0.29,0.02-0.39
					L66.53,15.63L66.53,15.63z"/>
				<path d="M70.38,14.13h-0.84v2.48c0,0.18,0.04,0.32,0.12,0.44c0.07,0.12,0.2,0.19,0.38,0.19c0.17,0,0.31-0.03,0.42-0.09
					l0.03,0.39c-0.05,0.02-0.13,0.04-0.23,0.07c-0.1,0.03-0.21,0.04-0.33,0.04c-0.2,0-0.36-0.04-0.47-0.11s-0.19-0.16-0.25-0.28
					c-0.05-0.12-0.08-0.25-0.1-0.4c-0.01-0.15-0.02-0.32-0.02-0.49v-2.24h-0.73v-0.4h0.73v-0.92l0.45-0.16v1.09h0.84
					C70.38,13.74,70.38,14.13,70.38,14.13z"/>
				<path d="M72.32,12.71h-0.45v-0.63h0.45V12.71z M71.87,13.73h0.45v3.83h-0.45V13.73z"/>
				<path d="M73.84,15.64c0-0.54,0.14-1.01,0.42-1.4c0.28-0.4,0.71-0.6,1.31-0.61c0.6,0.01,1.04,0.21,1.32,0.61
					c0.27,0.39,0.41,0.85,0.41,1.4c0,0.54-0.14,1-0.41,1.39c-0.28,0.4-0.72,0.6-1.32,0.62c-0.59-0.01-1.03-0.22-1.31-0.62
					C73.98,16.64,73.84,16.18,73.84,15.64z M74.33,15.64c0,0.46,0.11,0.83,0.32,1.13c0.2,0.31,0.51,0.47,0.91,0.47
					s0.71-0.16,0.93-0.47c0.2-0.3,0.31-0.67,0.31-1.13s-0.1-0.84-0.31-1.14s-0.52-0.45-0.93-0.46c-0.4,0-0.71,0.16-0.91,0.46
					C74.44,14.8,74.33,15.18,74.33,15.64z"/>
				<path d="M78.88,14.63c0-0.29-0.01-0.59-0.03-0.9h0.44v0.68h0.01c0.04-0.09,0.09-0.18,0.15-0.27c0.06-0.09,0.13-0.17,0.22-0.25
					c0.09-0.08,0.21-0.14,0.34-0.19c0.14-0.04,0.3-0.07,0.49-0.07c0.46,0.01,0.78,0.15,0.98,0.42c0.19,0.27,0.28,0.62,0.28,1.05
					v2.45h-0.45v-2.33c0-0.36-0.06-0.65-0.2-0.87c-0.14-0.21-0.37-0.31-0.69-0.32c-0.41,0.01-0.69,0.16-0.86,0.45
					c-0.08,0.14-0.15,0.28-0.18,0.44c-0.04,0.17-0.06,0.34-0.06,0.51v2.12h-0.45L78.88,14.63L78.88,14.63z"/>
				<path d="M85.95,17c0.28,0.16,0.6,0.24,0.96,0.24c0.23,0,0.42-0.06,0.58-0.19c0.16-0.12,0.24-0.28,0.24-0.5
					c0-0.23-0.09-0.41-0.27-0.54c-0.17-0.13-0.38-0.24-0.62-0.34c-0.11-0.05-0.22-0.11-0.32-0.17s-0.2-0.13-0.29-0.2
					c-0.08-0.08-0.15-0.17-0.21-0.28c-0.05-0.1-0.08-0.22-0.08-0.35c0-0.38,0.13-0.65,0.38-0.81c0.24-0.16,0.52-0.23,0.83-0.23
					c0.11,0,0.24,0.01,0.42,0.03c0.17,0.03,0.33,0.08,0.5,0.14l-0.04,0.41c-0.27-0.11-0.54-0.17-0.82-0.18
					c-0.24,0-0.42,0.04-0.56,0.13c-0.07,0.05-0.13,0.11-0.17,0.19s-0.06,0.18-0.06,0.32c0,0.08,0.03,0.15,0.08,0.22
					c0.05,0.07,0.12,0.13,0.21,0.18s0.19,0.1,0.3,0.16c0.11,0.05,0.22,0.11,0.33,0.16c0.24,0.1,0.45,0.25,0.63,0.42
					c0.18,0.18,0.27,0.42,0.28,0.73c0,0.2-0.04,0.37-0.12,0.5c-0.08,0.14-0.19,0.25-0.31,0.34c-0.27,0.17-0.56,0.25-0.86,0.25
					c-0.36,0-0.7-0.06-1.03-0.18L85.95,17z"/>
				<path d="M92.63,16.65c0,0.29,0.01,0.59,0.03,0.9h-0.44v-0.68H92.2c-0.03,0.08-0.08,0.17-0.14,0.25
					c-0.06,0.09-0.13,0.18-0.22,0.26c-0.09,0.08-0.21,0.14-0.34,0.18c-0.13,0.06-0.3,0.08-0.49,0.08c-0.45,0-0.77-0.15-0.97-0.42
					c-0.2-0.27-0.3-0.62-0.29-1.05v-2.44h0.45v2.33c0,0.37,0.07,0.65,0.21,0.86c0.14,0.22,0.36,0.33,0.67,0.33
					c0.21,0,0.38-0.05,0.53-0.14s0.26-0.2,0.33-0.33c0.09-0.14,0.15-0.29,0.18-0.45c0.04-0.16,0.05-0.32,0.05-0.48v-2.12h0.45v2.92
					H92.63z"/>
				<path d="M94.95,12.71H94.5v-0.63h0.45V12.71z M94.5,13.73h0.45v3.83H94.5V13.73z"/>
				<path d="M96.47,17c0.28,0.16,0.6,0.24,0.96,0.24c0.23,0,0.42-0.06,0.58-0.19c0.16-0.12,0.24-0.28,0.24-0.5
					c0-0.23-0.09-0.41-0.27-0.54c-0.17-0.13-0.38-0.24-0.62-0.34c-0.11-0.05-0.22-0.11-0.32-0.17s-0.2-0.13-0.29-0.2
					c-0.08-0.08-0.15-0.17-0.21-0.28c-0.05-0.1-0.08-0.22-0.08-0.35c0-0.38,0.13-0.65,0.38-0.81c0.24-0.16,0.52-0.23,0.83-0.23
					c0.11,0,0.24,0.01,0.42,0.03c0.17,0.03,0.33,0.08,0.5,0.14l-0.04,0.41c-0.27-0.11-0.54-0.17-0.82-0.18
					c-0.24,0-0.42,0.04-0.56,0.13c-0.07,0.05-0.13,0.11-0.17,0.19s-0.06,0.18-0.06,0.32c0,0.08,0.03,0.15,0.08,0.22
					c0.05,0.07,0.12,0.13,0.21,0.18s0.19,0.1,0.3,0.16c0.11,0.05,0.22,0.11,0.33,0.16c0.24,0.1,0.45,0.25,0.63,0.42
					c0.18,0.18,0.27,0.42,0.28,0.73c0,0.2-0.04,0.37-0.12,0.5c-0.08,0.14-0.19,0.25-0.31,0.34c-0.27,0.17-0.56,0.25-0.86,0.25
					c-0.36,0-0.7-0.06-1.03-0.18L96.47,17z"/>
				<path d="M99.97,17c0.28,0.16,0.6,0.24,0.96,0.24c0.23,0,0.42-0.06,0.58-0.19c0.16-0.12,0.24-0.28,0.24-0.5
					c0-0.23-0.09-0.41-0.27-0.54c-0.17-0.13-0.38-0.24-0.62-0.34c-0.11-0.05-0.22-0.11-0.32-0.17s-0.2-0.13-0.29-0.2
					c-0.08-0.08-0.15-0.17-0.21-0.28c-0.05-0.1-0.08-0.22-0.08-0.35c0-0.38,0.13-0.65,0.38-0.81c0.24-0.16,0.52-0.23,0.83-0.23
					c0.11,0,0.24,0.01,0.42,0.03c0.17,0.03,0.33,0.08,0.5,0.14l-0.04,0.41c-0.27-0.11-0.54-0.17-0.82-0.18
					c-0.24,0-0.42,0.04-0.56,0.13c-0.07,0.05-0.13,0.11-0.17,0.19s-0.06,0.18-0.06,0.32c0,0.08,0.03,0.15,0.08,0.22
					c0.05,0.07,0.12,0.13,0.21,0.18s0.19,0.1,0.3,0.16c0.11,0.05,0.22,0.11,0.33,0.16c0.24,0.1,0.45,0.25,0.63,0.42
					c0.18,0.18,0.27,0.42,0.28,0.73c0,0.2-0.04,0.37-0.12,0.5c-0.08,0.14-0.19,0.25-0.31,0.34c-0.27,0.17-0.56,0.25-0.86,0.25
					c-0.36,0-0.7-0.06-1.03-0.18L99.97,17z"/>
				<path d="M106.24,17.44c-0.35,0.14-0.71,0.21-1.08,0.21c-0.61-0.01-1.04-0.21-1.3-0.58s-0.39-0.84-0.38-1.43
					c0-0.6,0.15-1.08,0.44-1.45c0.28-0.37,0.65-0.55,1.12-0.56c0.52,0.01,0.9,0.2,1.14,0.56c0.23,0.36,0.34,0.8,0.34,1.33v0.24
					h-2.54c0,0.42,0.1,0.76,0.31,1.03c0.2,0.29,0.51,0.43,0.91,0.44c0.18,0,0.37-0.03,0.57-0.1c0.2-0.05,0.36-0.12,0.47-0.19V17.44z
					 M106.02,15.38c0-0.35-0.07-0.66-0.21-0.92c-0.15-0.27-0.39-0.4-0.74-0.41c-0.33,0.01-0.6,0.15-0.79,0.42
					c-0.2,0.27-0.3,0.58-0.3,0.91H106.02z"/>
				<path d="M33.46,23.25c-0.17-0.09-0.35-0.15-0.55-0.19c-0.21-0.02-0.4-0.04-0.59-0.04c-0.66,0.01-1.17,0.22-1.52,0.64
					c-0.36,0.42-0.54,0.96-0.54,1.62c0,0.67,0.18,1.21,0.53,1.63s0.86,0.63,1.53,0.64c0.17,0,0.37-0.02,0.59-0.06
					c0.22-0.03,0.4-0.09,0.55-0.17l0.03,0.45c-0.15,0.08-0.33,0.14-0.56,0.17C32.7,27.98,32.5,28,32.32,28
					c-0.8-0.01-1.43-0.26-1.88-0.75c-0.45-0.49-0.68-1.14-0.68-1.96c0-0.81,0.23-1.46,0.69-1.96c0.45-0.49,1.07-0.74,1.87-0.75
					c0.16,0,0.36,0.01,0.6,0.04c0.23,0.03,0.42,0.08,0.56,0.16L33.46,23.25z"/>
				<path d="M35.04,25.99c0-0.54,0.14-1.01,0.42-1.4c0.28-0.4,0.71-0.6,1.31-0.61c0.6,0.01,1.04,0.21,1.32,0.61
					c0.27,0.39,0.41,0.85,0.41,1.4c0,0.54-0.14,1-0.41,1.39c-0.28,0.4-0.72,0.6-1.32,0.62c-0.59-0.01-1.03-0.22-1.31-0.62
					C35.18,26.99,35.04,26.53,35.04,25.99z M35.54,25.99c0,0.46,0.11,0.83,0.32,1.13c0.2,0.31,0.51,0.47,0.91,0.47
					s0.71-0.16,0.93-0.47c0.2-0.3,0.31-0.67,0.31-1.13s-0.1-0.84-0.31-1.14c-0.21-0.3-0.52-0.45-0.93-0.46
					c-0.4,0-0.71,0.16-0.91,0.46C35.65,25.15,35.54,25.53,35.54,25.99z"/>
				<path d="M40.09,24.98c0-0.29-0.01-0.59-0.03-0.9h0.44v0.68h0.01c0.04-0.09,0.09-0.18,0.15-0.27s0.13-0.17,0.22-0.25
					s0.21-0.14,0.34-0.19c0.14-0.04,0.3-0.07,0.49-0.07c0.46,0.01,0.78,0.15,0.98,0.42c0.19,0.27,0.28,0.62,0.28,1.05v2.45h-0.45
					v-2.33c0-0.36-0.07-0.65-0.2-0.87c-0.14-0.21-0.37-0.31-0.69-0.32c-0.41,0.01-0.69,0.16-0.86,0.45
					c-0.08,0.14-0.15,0.28-0.18,0.44c-0.04,0.17-0.06,0.34-0.06,0.51v2.12h-0.45v-2.92H40.09z"/>
				<path d="M45.16,24.48h-0.75v-0.4h0.75V23.8c0-0.2,0.01-0.41,0.03-0.6c0.01-0.19,0.05-0.36,0.11-0.51
					c0.06-0.16,0.16-0.28,0.3-0.37c0.13-0.09,0.31-0.13,0.54-0.13c0.08,0,0.16,0,0.24,0.01s0.15,0.04,0.19,0.07l-0.03,0.41
					c-0.1-0.06-0.22-0.08-0.36-0.08c-0.15,0-0.27,0.04-0.34,0.11c-0.08,0.08-0.14,0.18-0.17,0.29s-0.04,0.24-0.04,0.37
					c0,0.13-0.01,0.26-0.01,0.39v0.33h0.84v0.4h-0.84v3.42h-0.45v-3.43H45.16z"/>
				<path d="M50.41,27.79C50.06,27.93,49.7,28,49.33,28c-0.61-0.01-1.04-0.21-1.3-0.58s-0.39-0.84-0.38-1.43
					c0-0.6,0.15-1.08,0.44-1.45c0.28-0.37,0.65-0.55,1.12-0.56c0.52,0.01,0.9,0.2,1.14,0.56c0.23,0.36,0.34,0.8,0.34,1.33v0.24
					h-2.54c0,0.42,0.1,0.76,0.31,1.03c0.2,0.29,0.51,0.43,0.91,0.44c0.18,0,0.37-0.03,0.57-0.1c0.2-0.05,0.36-0.12,0.47-0.19
					C50.41,27.29,50.41,27.79,50.41,27.79z M50.19,25.73c0-0.35-0.07-0.66-0.21-0.92c-0.15-0.27-0.4-0.4-0.74-0.41
					c-0.33,0.01-0.6,0.15-0.79,0.42c-0.2,0.27-0.3,0.58-0.3,0.91H50.19z"/>
				<path d="M55.2,27.9h-0.45v-0.6h-0.01c-0.24,0.47-0.63,0.7-1.16,0.7c-0.51-0.01-0.89-0.21-1.14-0.58
					c-0.26-0.38-0.39-0.85-0.39-1.43c-0.01-0.6,0.11-1.08,0.36-1.44c0.24-0.37,0.63-0.56,1.17-0.56c0.18,0,0.35,0.03,0.48,0.08
					c0.14,0.05,0.26,0.12,0.35,0.21c0.19,0.18,0.3,0.32,0.33,0.44h0.01v-2.44h0.45V27.9z M52.55,25.99c0,0.18,0.02,0.36,0.05,0.55
					c0.04,0.19,0.1,0.37,0.17,0.53c0.09,0.15,0.2,0.27,0.34,0.37c0.14,0.11,0.32,0.16,0.53,0.16c0.2,0,0.38-0.05,0.52-0.16
					c0.14-0.1,0.25-0.22,0.34-0.38c0.16-0.34,0.24-0.7,0.24-1.06c0-0.18-0.02-0.37-0.05-0.56c-0.04-0.18-0.1-0.35-0.19-0.51
					s-0.2-0.29-0.34-0.39c-0.15-0.1-0.32-0.14-0.52-0.14c-0.22,0-0.4,0.05-0.53,0.14c-0.14,0.09-0.25,0.21-0.34,0.37
					c-0.08,0.15-0.14,0.32-0.17,0.51C52.56,25.61,52.55,25.8,52.55,25.99z"/>
				<path d="M59.51,27.79C59.16,27.93,58.8,28,58.43,28c-0.61-0.01-1.04-0.21-1.3-0.58s-0.39-0.84-0.38-1.43
					c0-0.6,0.15-1.08,0.44-1.45c0.28-0.37,0.65-0.55,1.12-0.56c0.52,0.01,0.9,0.2,1.14,0.56c0.23,0.36,0.34,0.8,0.34,1.33v0.24
					h-2.54c0,0.42,0.1,0.76,0.31,1.03c0.2,0.29,0.51,0.43,0.91,0.44c0.18,0,0.37-0.03,0.57-0.1c0.2-0.05,0.36-0.12,0.47-0.19
					C59.51,27.29,59.51,27.79,59.51,27.79z M59.29,25.73c0-0.35-0.07-0.66-0.21-0.92c-0.15-0.27-0.4-0.4-0.74-0.41
					c-0.33,0.01-0.6,0.15-0.79,0.42c-0.2,0.27-0.3,0.58-0.3,0.91H59.29z"/>
				<path d="M61.36,24.93c0-0.35-0.01-0.64-0.03-0.85h0.45v0.73h0.01c0.09-0.22,0.21-0.42,0.37-0.57c0.16-0.16,0.35-0.24,0.58-0.25
					c0.12,0,0.23,0.02,0.32,0.04v0.49c-0.1-0.03-0.21-0.04-0.33-0.04c-0.18,0-0.33,0.05-0.44,0.14c-0.12,0.09-0.21,0.21-0.28,0.37
					c-0.07,0.15-0.12,0.31-0.15,0.49c-0.03,0.19-0.05,0.37-0.05,0.54v1.89h-0.45V24.93z"/>
				<path d="M66.58,27.29h-0.01c-0.11,0.22-0.27,0.4-0.49,0.51c-0.22,0.12-0.45,0.19-0.69,0.19c-0.26,0-0.47-0.05-0.62-0.13
					c-0.17-0.08-0.29-0.17-0.38-0.29c-0.15-0.25-0.23-0.47-0.22-0.67c0-0.32,0.07-0.57,0.22-0.76s0.33-0.32,0.56-0.4
					c0.23-0.08,0.47-0.14,0.74-0.16c0.26-0.01,0.51-0.02,0.76-0.02h0.09v-0.2c0.01-0.66-0.27-0.99-0.85-0.99
					c-0.38,0-0.75,0.1-1.09,0.32v-0.46c0.34-0.16,0.71-0.25,1.09-0.26c0.88-0.01,1.31,0.47,1.3,1.43v1.69
					c-0.01,0.29,0.01,0.56,0.04,0.8h-0.45V27.29z M66.53,25.98H66.4c-0.2,0-0.4,0-0.6,0.01c-0.21,0.02-0.4,0.06-0.57,0.13
					c-0.17,0.06-0.31,0.15-0.41,0.28c-0.11,0.13-0.17,0.3-0.17,0.51c0,0.25,0.08,0.42,0.23,0.53c0.14,0.11,0.32,0.17,0.54,0.17
					c0.27,0,0.48-0.06,0.63-0.17c0.15-0.1,0.26-0.23,0.33-0.37c0.07-0.16,0.11-0.31,0.12-0.46c0.01-0.16,0.02-0.29,0.02-0.39
					L66.53,25.98L66.53,25.98z"/>
				<path d="M68.44,27.51l2.23-3.03h-2.21v-0.4h2.75v0.4l-2.3,3.02h2.3v0.4h-2.76v-0.39H68.44z"/>
				<path d="M73.16,23.06H72.7v-0.63h0.45v0.63H73.16z M72.7,24.08h0.45v3.83H72.7V24.08z"/>
				<path d="M74.67,25.99c0-0.54,0.14-1.01,0.42-1.4c0.28-0.4,0.71-0.6,1.31-0.61C77,24,77.44,24.2,77.72,24.6
					c0.27,0.39,0.41,0.85,0.41,1.4c0,0.54-0.14,1-0.41,1.39c-0.28,0.4-0.72,0.6-1.32,0.62c-0.59-0.01-1.03-0.22-1.31-0.62
					C74.81,26.99,74.67,26.53,74.67,25.99z M75.17,25.99c0,0.46,0.11,0.83,0.32,1.13c0.2,0.31,0.51,0.47,0.91,0.47
					s0.71-0.16,0.93-0.47c0.2-0.3,0.31-0.67,0.31-1.13s-0.1-0.84-0.31-1.14s-0.52-0.45-0.93-0.46c-0.4,0-0.71,0.16-0.91,0.46
					C75.27,25.15,75.17,25.53,75.17,25.99z"/>
				<path d="M79.71,24.98c0-0.29-0.01-0.59-0.03-0.9h0.44v0.68h0.01c0.04-0.09,0.09-0.18,0.15-0.27c0.06-0.09,0.13-0.17,0.22-0.25
					c0.09-0.08,0.21-0.14,0.34-0.19c0.14-0.04,0.3-0.07,0.49-0.07c0.46,0.01,0.78,0.15,0.98,0.42c0.19,0.27,0.28,0.62,0.28,1.05
					v2.45h-0.45v-2.33c0-0.36-0.06-0.65-0.2-0.87c-0.14-0.21-0.37-0.31-0.69-0.32c-0.41,0.01-0.69,0.16-0.86,0.45
					c-0.08,0.14-0.15,0.28-0.18,0.44c-0.04,0.17-0.06,0.34-0.06,0.51v2.12H79.7L79.71,24.98L79.71,24.98z"/>
				<path d="M86.95,27.79C86.6,27.93,86.24,28,85.87,28c-0.61-0.01-1.04-0.21-1.3-0.58s-0.39-0.84-0.38-1.43
					c0-0.6,0.15-1.08,0.44-1.45c0.28-0.37,0.65-0.55,1.12-0.56c0.52,0.01,0.9,0.2,1.14,0.56c0.23,0.36,0.34,0.8,0.34,1.33v0.24
					h-2.54c0,0.42,0.1,0.76,0.31,1.03c0.2,0.29,0.51,0.43,0.91,0.44c0.18,0,0.37-0.03,0.57-0.1c0.2-0.05,0.36-0.12,0.47-0.19V27.79z
					 M86.73,25.73c0-0.35-0.07-0.66-0.21-0.92c-0.15-0.27-0.39-0.4-0.74-0.41c-0.33,0.01-0.6,0.15-0.79,0.42
					c-0.2,0.27-0.3,0.58-0.3,0.91H86.73z"/>
				<path d="M91.31,27.24c0.29,0.21,0.66,0.31,1.12,0.31c0.32,0,0.6-0.09,0.81-0.26c0.21-0.18,0.32-0.45,0.33-0.81
					c0-0.26-0.13-0.47-0.36-0.65c-0.11-0.09-0.23-0.18-0.37-0.26s-0.28-0.16-0.43-0.24c-0.14-0.09-0.28-0.18-0.42-0.27
					s-0.27-0.19-0.38-0.3c-0.24-0.21-0.36-0.49-0.36-0.82c0-0.43,0.16-0.76,0.47-1.01c0.3-0.23,0.68-0.35,1.13-0.36
					c0.13,0,0.29,0.01,0.47,0.03c0.18,0.03,0.36,0.08,0.53,0.14l-0.08,0.47c-0.25-0.13-0.55-0.19-0.92-0.19
					c-0.13,0-0.26,0.01-0.38,0.04c-0.13,0.03-0.25,0.08-0.36,0.16c-0.1,0.07-0.19,0.16-0.25,0.27c-0.07,0.12-0.1,0.27-0.1,0.44
					c0,0.12,0.03,0.24,0.1,0.34s0.15,0.2,0.26,0.28s0.24,0.16,0.38,0.24s0.28,0.16,0.42,0.25c0.31,0.15,0.57,0.34,0.8,0.57
					c0.11,0.11,0.2,0.24,0.27,0.39c0.06,0.15,0.09,0.32,0.09,0.52c-0.01,0.52-0.19,0.9-0.53,1.13S92.83,28,92.41,28
					c-0.49-0.01-0.87-0.09-1.15-0.23L91.31,27.24z"/>
				<path d="M97.02,27.9h-0.54l-1.26-3.83h0.5l1.02,3.31h0.02l1.07-3.31h0.48L97.02,27.9z"/>
				<path d="M100.11,23.06h-0.45v-0.63h0.45V23.06z M99.66,24.08h0.45v3.83h-0.45V24.08z"/>
				<path d="M101.56,27.51l2.23-3.03h-2.21v-0.4h2.75v0.4l-2.3,3.02h2.3v0.4h-2.76v-0.39H101.56z"/>
				<path d="M105.48,27.51l2.23-3.03h-2.21v-0.4h2.75v0.4l-2.3,3.02h2.3v0.4h-2.76v-0.39H105.48z"/>
				<path d="M112.22,27.79c-0.35,0.14-0.71,0.21-1.08,0.21c-0.61-0.01-1.04-0.21-1.3-0.58s-0.39-0.84-0.38-1.43
					c0-0.6,0.15-1.08,0.44-1.45c0.28-0.37,0.65-0.55,1.12-0.56c0.52,0.01,0.9,0.2,1.14,0.56c0.23,0.36,0.34,0.8,0.34,1.33v0.24
					h-2.54c0,0.42,0.1,0.76,0.31,1.03c0.2,0.29,0.51,0.43,0.91,0.44c0.18,0,0.37-0.03,0.57-0.1c0.2-0.05,0.36-0.12,0.47-0.19V27.79z
					 M112,25.73c0-0.35-0.07-0.66-0.21-0.92c-0.15-0.27-0.4-0.4-0.74-0.41c-0.33,0.01-0.6,0.15-0.79,0.42
					c-0.2,0.27-0.3,0.58-0.3,0.91H112z"/>
				<path d="M114.08,24.93c0-0.35-0.01-0.64-0.03-0.85h0.45v0.73h0.01c0.09-0.22,0.21-0.42,0.37-0.57c0.16-0.16,0.35-0.24,0.58-0.25
					c0.12,0,0.23,0.02,0.32,0.04v0.49c-0.1-0.03-0.21-0.04-0.33-0.04c-0.18,0-0.33,0.05-0.44,0.14c-0.12,0.09-0.21,0.21-0.28,0.37
					c-0.07,0.15-0.12,0.31-0.15,0.49c-0.03,0.19-0.05,0.37-0.05,0.54v1.89h-0.45V24.93z"/>
				<path d="M119.29,27.29h-0.01c-0.11,0.22-0.27,0.4-0.49,0.51c-0.22,0.12-0.45,0.19-0.69,0.19c-0.26,0-0.47-0.05-0.62-0.13
					c-0.17-0.08-0.29-0.17-0.38-0.29c-0.15-0.25-0.23-0.47-0.22-0.67c0-0.32,0.07-0.57,0.22-0.76s0.33-0.32,0.56-0.4
					c0.23-0.08,0.47-0.14,0.74-0.16c0.26-0.01,0.51-0.02,0.76-0.02h0.09v-0.2c0.01-0.66-0.27-0.99-0.85-0.99
					c-0.38,0-0.75,0.1-1.09,0.32v-0.46c0.34-0.16,0.71-0.25,1.09-0.26c0.88-0.01,1.31,0.47,1.3,1.43v1.69
					c-0.01,0.29,0.01,0.56,0.04,0.8h-0.45V27.29z M119.25,25.98h-0.13c-0.2,0-0.4,0-0.6,0.01c-0.21,0.02-0.4,0.06-0.57,0.13
					c-0.17,0.06-0.31,0.15-0.41,0.28c-0.11,0.13-0.17,0.3-0.17,0.51c0,0.25,0.08,0.42,0.23,0.53c0.14,0.11,0.32,0.17,0.54,0.17
					c0.27,0,0.48-0.06,0.63-0.17c0.15-0.1,0.26-0.23,0.33-0.37c0.07-0.16,0.11-0.31,0.12-0.46c0.01-0.16,0.02-0.29,0.02-0.39
					L119.25,25.98L119.25,25.98z"/>
				<path d="M33.46,33.6c-0.17-0.09-0.35-0.15-0.55-0.19c-0.21-0.02-0.4-0.04-0.59-0.04c-0.66,0.01-1.17,0.22-1.52,0.64
					c-0.36,0.42-0.54,0.96-0.54,1.62c0,0.67,0.18,1.21,0.53,1.63c0.35,0.42,0.86,0.63,1.53,0.64c0.17,0,0.37-0.02,0.59-0.06
					c0.22-0.03,0.4-0.09,0.55-0.17l0.03,0.45c-0.15,0.08-0.33,0.14-0.56,0.17c-0.23,0.04-0.43,0.05-0.6,0.05
					c-0.8-0.01-1.43-0.26-1.88-0.75c-0.45-0.49-0.68-1.14-0.68-1.96c0-0.81,0.23-1.46,0.69-1.96c0.45-0.49,1.07-0.74,1.87-0.75
					c0.16,0,0.36,0.01,0.6,0.04c0.23,0.03,0.42,0.08,0.56,0.16L33.46,33.6z"/>
				<path d="M35.04,36.34c0-0.54,0.14-1.01,0.42-1.4c0.28-0.4,0.71-0.6,1.31-0.61c0.6,0.01,1.04,0.21,1.32,0.61
					c0.27,0.39,0.41,0.85,0.41,1.4c0,0.54-0.14,1-0.41,1.39c-0.28,0.4-0.72,0.6-1.32,0.62c-0.59-0.01-1.03-0.22-1.31-0.62
					C35.18,37.34,35.04,36.88,35.04,36.34z M35.54,36.34c0,0.46,0.11,0.83,0.32,1.13c0.2,0.31,0.51,0.47,0.91,0.47
					s0.71-0.16,0.93-0.47c0.2-0.3,0.31-0.67,0.31-1.13c0-0.46-0.1-0.84-0.31-1.14c-0.21-0.3-0.52-0.45-0.93-0.46
					c-0.4,0.01-0.71,0.16-0.91,0.46C35.65,35.5,35.54,35.88,35.54,36.34z"/>
				<path d="M40.09,35.33c0-0.29-0.01-0.59-0.03-0.9h0.44v0.68h0.01c0.04-0.09,0.09-0.18,0.15-0.27s0.13-0.17,0.22-0.25
					s0.21-0.14,0.34-0.19c0.14-0.04,0.3-0.07,0.49-0.07c0.46,0.01,0.78,0.15,0.98,0.42c0.19,0.27,0.28,0.62,0.28,1.05v2.45h-0.45
					v-2.33c0-0.36-0.07-0.65-0.2-0.87c-0.14-0.21-0.37-0.31-0.69-0.32c-0.41,0.01-0.69,0.16-0.86,0.45
					c-0.08,0.14-0.15,0.28-0.18,0.44c-0.04,0.17-0.06,0.33-0.06,0.51v2.12h-0.45v-2.92H40.09z"/>
				<path d="M45.16,34.83h-0.75v-0.4h0.75v-0.28c0-0.21,0.01-0.41,0.03-0.6c0.01-0.19,0.05-0.36,0.11-0.51
					c0.06-0.16,0.16-0.28,0.3-0.37c0.13-0.09,0.31-0.13,0.54-0.13c0.08,0,0.16,0,0.24,0.01s0.15,0.04,0.19,0.07l-0.03,0.41
					c-0.1-0.06-0.22-0.08-0.36-0.08c-0.15,0-0.27,0.04-0.34,0.11c-0.08,0.08-0.14,0.18-0.17,0.29s-0.04,0.24-0.04,0.37
					c0,0.13-0.01,0.26-0.01,0.39v0.33h0.84v0.4h-0.84v3.42h-0.45v-3.43H45.16z"/>
				<path d="M50.41,38.14c-0.35,0.13-0.71,0.21-1.08,0.21c-0.61-0.01-1.04-0.21-1.3-0.58c-0.26-0.37-0.39-0.84-0.38-1.43
					c0-0.6,0.15-1.08,0.44-1.45c0.28-0.37,0.65-0.55,1.12-0.56c0.52,0.01,0.9,0.2,1.14,0.56c0.23,0.36,0.34,0.8,0.34,1.33v0.24
					h-2.54c0,0.42,0.1,0.76,0.31,1.03c0.2,0.29,0.51,0.43,0.91,0.44c0.18,0,0.37-0.03,0.57-0.1c0.2-0.05,0.36-0.12,0.47-0.19
					C50.41,37.64,50.41,38.14,50.41,38.14z M50.19,36.07c0-0.35-0.07-0.66-0.21-0.92c-0.15-0.27-0.4-0.4-0.74-0.41
					c-0.33,0.01-0.6,0.15-0.79,0.42c-0.2,0.27-0.3,0.58-0.3,0.91H50.19z"/>
				<path d="M55.2,38.25h-0.45v-0.61h-0.01c-0.24,0.47-0.63,0.71-1.16,0.7c-0.51-0.01-0.89-0.21-1.14-0.58
					c-0.26-0.38-0.39-0.85-0.39-1.43c-0.01-0.6,0.11-1.08,0.36-1.44c0.24-0.37,0.63-0.56,1.17-0.56c0.18,0,0.35,0.03,0.48,0.08
					c0.14,0.05,0.26,0.12,0.35,0.21c0.19,0.17,0.3,0.32,0.33,0.44h0.01v-2.44h0.45V38.25z M52.55,36.34c0,0.18,0.02,0.36,0.05,0.55
					c0.04,0.19,0.1,0.37,0.17,0.53c0.09,0.15,0.2,0.27,0.34,0.37c0.14,0.11,0.32,0.16,0.53,0.16c0.2,0,0.38-0.05,0.52-0.16
					c0.14-0.09,0.25-0.22,0.34-0.38c0.16-0.34,0.24-0.7,0.24-1.06c0-0.18-0.02-0.37-0.05-0.56c-0.04-0.18-0.1-0.35-0.19-0.51
					s-0.2-0.29-0.34-0.39c-0.15-0.1-0.32-0.14-0.52-0.14c-0.22,0-0.4,0.05-0.53,0.14c-0.14,0.09-0.25,0.21-0.34,0.37
					c-0.08,0.15-0.14,0.32-0.17,0.51C52.56,35.96,52.55,36.15,52.55,36.34z"/>
				<path d="M59.51,38.14c-0.35,0.13-0.71,0.21-1.08,0.21c-0.61-0.01-1.04-0.21-1.3-0.58c-0.26-0.37-0.39-0.84-0.38-1.43
					c0-0.6,0.15-1.08,0.44-1.45c0.28-0.37,0.65-0.55,1.12-0.56c0.52,0.01,0.9,0.2,1.14,0.56c0.23,0.36,0.34,0.8,0.34,1.33v0.24
					h-2.54c0,0.42,0.1,0.76,0.31,1.03c0.2,0.29,0.51,0.43,0.91,0.44c0.18,0,0.37-0.03,0.57-0.1c0.2-0.05,0.36-0.12,0.47-0.19
					C59.51,37.64,59.51,38.14,59.51,38.14z M59.29,36.07c0-0.35-0.07-0.66-0.21-0.92c-0.15-0.27-0.4-0.4-0.74-0.41
					c-0.33,0.01-0.6,0.15-0.79,0.42c-0.2,0.27-0.3,0.58-0.3,0.91H59.29z"/>
				<path d="M61.36,35.28c0-0.35-0.01-0.64-0.03-0.85h0.45v0.73h0.01c0.09-0.22,0.21-0.42,0.37-0.57c0.16-0.16,0.35-0.24,0.58-0.25
					c0.12,0,0.23,0.02,0.32,0.04v0.49c-0.1-0.03-0.21-0.04-0.33-0.04c-0.18,0.01-0.33,0.05-0.44,0.14
					c-0.12,0.09-0.21,0.21-0.28,0.37c-0.07,0.15-0.12,0.31-0.15,0.49c-0.03,0.19-0.05,0.37-0.05,0.54v1.89h-0.45V35.28z"/>
				<path d="M66.58,37.64h-0.01c-0.11,0.22-0.27,0.39-0.49,0.51s-0.45,0.19-0.69,0.19c-0.26,0-0.47-0.05-0.62-0.13
					c-0.17-0.08-0.29-0.17-0.38-0.29c-0.15-0.25-0.23-0.47-0.22-0.67c0-0.32,0.07-0.57,0.22-0.76s0.33-0.32,0.56-0.4
					c0.23-0.08,0.47-0.14,0.74-0.16c0.26-0.02,0.51-0.02,0.76-0.02h0.09v-0.2c0.01-0.66-0.27-0.99-0.85-0.99
					c-0.38,0-0.75,0.1-1.09,0.32V34.6c0.34-0.16,0.71-0.25,1.09-0.26c0.88-0.01,1.31,0.46,1.3,1.43v1.69
					c-0.01,0.29,0.01,0.56,0.04,0.8h-0.45V37.64z M66.53,36.33H66.4c-0.2,0-0.4,0-0.6,0.01c-0.21,0.02-0.4,0.06-0.57,0.13
					c-0.17,0.06-0.31,0.15-0.41,0.28c-0.11,0.13-0.17,0.3-0.17,0.51c0,0.25,0.08,0.42,0.23,0.53c0.14,0.11,0.32,0.17,0.54,0.17
					c0.27,0,0.48-0.05,0.63-0.17c0.15-0.1,0.26-0.23,0.33-0.37c0.07-0.16,0.11-0.31,0.12-0.46c0.01-0.16,0.02-0.29,0.02-0.39
					L66.53,36.33L66.53,36.33z"/>
				<path d="M68.44,37.86l2.23-3.03h-2.21v-0.4h2.75v0.4l-2.3,3.02h2.3v0.4h-2.76v-0.39H68.44z"/>
				<path d="M73.16,33.41H72.7v-0.63h0.45v0.63H73.16z M72.7,34.43h0.45v3.83H72.7V34.43z"/>
				<path d="M77.84,37.35c0,0.29,0.01,0.59,0.03,0.9h-0.44v-0.68h-0.01c-0.03,0.08-0.08,0.17-0.14,0.25
					c-0.06,0.09-0.13,0.18-0.22,0.26c-0.09,0.08-0.21,0.14-0.34,0.18c-0.13,0.06-0.3,0.08-0.49,0.08c-0.45,0-0.77-0.15-0.97-0.42
					c-0.2-0.27-0.3-0.62-0.29-1.05v-2.44h0.45v2.33c0,0.37,0.07,0.65,0.21,0.86c0.14,0.22,0.36,0.33,0.67,0.33
					c0.21,0,0.38-0.04,0.53-0.13s0.26-0.2,0.33-0.33c0.09-0.14,0.15-0.29,0.18-0.45c0.04-0.16,0.05-0.32,0.05-0.48v-2.12h0.45
					C77.84,34.44,77.84,37.35,77.84,37.35z"/>
				<path d="M79.71,35.33c0-0.29-0.01-0.59-0.03-0.9h0.44v0.68h0.01c0.04-0.09,0.09-0.18,0.15-0.27c0.06-0.09,0.13-0.17,0.22-0.25
					c0.09-0.08,0.21-0.14,0.34-0.19c0.14-0.04,0.3-0.07,0.49-0.07c0.46,0.01,0.78,0.15,0.98,0.42c0.19,0.27,0.28,0.62,0.28,1.05
					v2.45h-0.45v-2.33c0-0.36-0.06-0.65-0.2-0.87c-0.14-0.21-0.37-0.31-0.69-0.32c-0.41,0.01-0.69,0.16-0.86,0.45
					c-0.08,0.14-0.15,0.28-0.18,0.44c-0.04,0.17-0.06,0.33-0.06,0.51v2.12H79.7L79.71,35.33L79.71,35.33z"/>
				<path d="M86.78,37.7c0.28,0.16,0.6,0.24,0.96,0.24c0.23,0,0.42-0.06,0.58-0.19c0.16-0.12,0.24-0.28,0.24-0.5
					c0-0.23-0.09-0.41-0.27-0.54c-0.17-0.12-0.38-0.24-0.62-0.34c-0.11-0.05-0.22-0.11-0.32-0.17c-0.1-0.06-0.2-0.13-0.29-0.2
					c-0.08-0.08-0.15-0.17-0.21-0.28c-0.05-0.1-0.08-0.22-0.08-0.35c0-0.38,0.13-0.65,0.38-0.81c0.24-0.16,0.52-0.23,0.83-0.23
					c0.11,0,0.24,0.01,0.42,0.03c0.17,0.03,0.33,0.08,0.5,0.14l-0.04,0.41c-0.27-0.11-0.54-0.17-0.82-0.18
					c-0.24,0-0.42,0.04-0.56,0.13c-0.07,0.05-0.13,0.11-0.17,0.19c-0.04,0.08-0.06,0.18-0.06,0.32c0,0.08,0.03,0.15,0.08,0.22
					s0.12,0.12,0.21,0.18c0.09,0.05,0.19,0.1,0.3,0.16c0.11,0.05,0.22,0.11,0.33,0.17c0.24,0.11,0.45,0.25,0.63,0.42
					c0.18,0.18,0.27,0.42,0.28,0.73c0,0.2-0.04,0.37-0.12,0.5c-0.08,0.14-0.19,0.25-0.31,0.34c-0.27,0.17-0.56,0.25-0.86,0.25
					c-0.36,0-0.7-0.06-1.03-0.18L86.78,37.7z"/>
				<path d="M91.85,38.25h-0.54l-1.26-3.83h0.5l1.02,3.31h0.02l1.07-3.31h0.48L91.85,38.25z"/>
				<path d="M94.94,33.41h-0.45v-0.63h0.45V33.41z M94.49,34.43h0.45v3.83h-0.45V34.43z"/>
				<path d="M96.39,37.86l2.23-3.03h-2.21v-0.4h2.75v0.4l-2.3,3.02h2.3v0.4H96.4v-0.39H96.39z"/>
				<path d="M100.66,35.28c0-0.35-0.01-0.64-0.03-0.85h0.45v0.73h0.01c0.09-0.22,0.21-0.42,0.37-0.57c0.16-0.16,0.35-0.24,0.58-0.25
					c0.12,0,0.23,0.02,0.32,0.04v0.49c-0.1-0.03-0.21-0.04-0.33-0.04c-0.18,0.01-0.33,0.05-0.44,0.14
					c-0.12,0.09-0.21,0.21-0.28,0.37c-0.07,0.15-0.12,0.31-0.15,0.49c-0.03,0.19-0.05,0.37-0.05,0.54v1.89h-0.45V35.28z"/>
				<path d="M105.87,37.64h-0.01c-0.11,0.22-0.27,0.39-0.49,0.51s-0.45,0.19-0.69,0.19c-0.26,0-0.47-0.05-0.62-0.13
					c-0.17-0.08-0.29-0.17-0.38-0.29c-0.15-0.25-0.23-0.47-0.22-0.67c0-0.32,0.07-0.57,0.22-0.76s0.33-0.32,0.56-0.4
					c0.23-0.08,0.47-0.14,0.74-0.16c0.26-0.02,0.51-0.02,0.76-0.02h0.09v-0.2c0.01-0.66-0.27-0.99-0.85-0.99
					c-0.38,0-0.75,0.1-1.09,0.32V34.6c0.34-0.16,0.71-0.25,1.09-0.26c0.88-0.01,1.31,0.46,1.3,1.43v1.69
					c-0.01,0.29,0.01,0.56,0.04,0.8h-0.45V37.64z M105.82,36.33h-0.13c-0.2,0-0.4,0-0.6,0.01c-0.21,0.02-0.4,0.06-0.57,0.13
					c-0.17,0.06-0.31,0.15-0.41,0.28c-0.11,0.13-0.17,0.3-0.17,0.51c0,0.25,0.08,0.42,0.23,0.53c0.14,0.11,0.32,0.17,0.54,0.17
					c0.27,0,0.48-0.05,0.63-0.17c0.15-0.1,0.26-0.23,0.33-0.37c0.07-0.16,0.11-0.31,0.12-0.46c0.01-0.16,0.02-0.29,0.02-0.39
					L105.82,36.33L105.82,36.33z"/>
			</g>
			<g>
				<path class="st0" d="M21.27,1.74c0,0-3.97-1.74-10.61-1.74l0,0C4.01,0,0.04,1.74,0.04,1.74s-0.36,7.7,1.15,12.05
					c2.66,7.65,9.46,9.8,9.46,9.8l0,0l0,0c0,0,6.8-2.15,9.46-9.8C21.62,9.43,21.27,1.74,21.27,1.74z"/>
				<polygon class="st1" points="17.71,8.37 17.71,12.61 12.76,12.61 12.76,17.56 8.52,17.56 8.52,12.61 3.57,12.61 3.57,8.37 
					8.52,8.37 8.52,3.43 12.76,3.43 12.76,8.37 				"/>
			</g>
		</g>
		<g>
			<path d="M177.16,1.97h1.77c0.17,0,0.35,0.01,0.54,0.04c0.18,0.03,0.36,0.1,0.52,0.19c0.17,0.1,0.31,0.23,0.41,0.41
				s0.15,0.41,0.15,0.7c0,0.31-0.1,0.57-0.27,0.77c-0.18,0.2-0.43,0.34-0.74,0.4V4.5c0.36,0.03,0.64,0.16,0.85,0.37
				s0.32,0.49,0.32,0.82c0,0.33-0.06,0.59-0.18,0.79s-0.28,0.35-0.47,0.46c-0.18,0.1-0.38,0.18-0.58,0.21
				c-0.21,0.04-0.39,0.06-0.56,0.06h-1.78V1.97H177.16z M178.18,4.09h0.41c0.23,0,0.45-0.04,0.65-0.12c0.1-0.04,0.17-0.11,0.23-0.2
				c0.05-0.08,0.08-0.19,0.08-0.32c0-0.15-0.03-0.28-0.08-0.37c-0.06-0.09-0.13-0.16-0.23-0.2c-0.1-0.04-0.2-0.07-0.31-0.08
				c-0.12,0-0.24-0.01-0.36-0.01h-0.39V4.09z M178.18,6.38h0.48c0.13,0,0.25-0.01,0.37-0.03c0.12-0.03,0.23-0.06,0.33-0.11
				c0.23-0.1,0.34-0.3,0.34-0.59c0-0.17-0.03-0.31-0.09-0.42s-0.14-0.18-0.24-0.23c-0.1-0.06-0.21-0.1-0.33-0.12
				c-0.13-0.01-0.25-0.02-0.38-0.02h-0.48L178.18,6.38L178.18,6.38z"/>
			<path d="M185.21,7.2h-0.92V6.68h-0.01c-0.3,0.4-0.71,0.6-1.23,0.62c-0.44,0-0.76-0.15-0.96-0.44c-0.21-0.28-0.31-0.64-0.31-1.08
				V3.34h0.97v2.07c0,0.05,0,0.11,0.01,0.17c0,0.06,0,0.12,0.01,0.19c0.01,0.13,0.03,0.25,0.06,0.37c0.04,0.11,0.11,0.2,0.19,0.27
				c0.08,0.08,0.2,0.11,0.35,0.11c0.18,0,0.33-0.05,0.44-0.14c0.11-0.09,0.2-0.19,0.25-0.32c0.07-0.13,0.11-0.27,0.13-0.41
				s0.03-0.28,0.03-0.41v-1.9h0.97V7.2H185.21z"/>
			<path d="M186.47,3.34h0.92v0.53h0.01c0.31-0.41,0.72-0.62,1.23-0.62c0.44,0.01,0.76,0.15,0.97,0.43c0.2,0.28,0.3,0.64,0.3,1.08
				V7.2h-0.97V5.14c0-0.12,0-0.25-0.01-0.39c0-0.13-0.03-0.25-0.07-0.35c-0.03-0.12-0.09-0.21-0.18-0.28
				c-0.09-0.06-0.22-0.1-0.37-0.1c-0.17,0-0.31,0.04-0.42,0.13c-0.11,0.08-0.19,0.19-0.26,0.32c-0.06,0.13-0.11,0.27-0.13,0.41
				c-0.03,0.15-0.04,0.29-0.04,0.42v1.9h-0.97V3.34H186.47z"/>
			<path d="M193.66,6.77L193.66,6.77c-0.31,0.35-0.69,0.53-1.16,0.52c-0.57-0.01-0.97-0.22-1.21-0.62s-0.36-0.87-0.35-1.41
				c0-0.55,0.11-1.02,0.35-1.41s0.65-0.59,1.21-0.6c0.47,0,0.84,0.18,1.12,0.54h0.02V1.58h0.97V7.2h-0.95L193.66,6.77L193.66,6.77z
				 M191.94,5.26c0,0.28,0.05,0.56,0.18,0.83c0.06,0.12,0.15,0.22,0.25,0.3c0.1,0.09,0.23,0.13,0.39,0.13
				c0.17,0,0.31-0.04,0.41-0.13c0.11-0.08,0.2-0.18,0.26-0.3c0.07-0.12,0.12-0.26,0.14-0.41c0.02-0.14,0.04-0.28,0.04-0.42
				c0-0.29-0.07-0.57-0.2-0.82c-0.07-0.12-0.16-0.23-0.27-0.3s-0.25-0.11-0.4-0.11c-0.3,0.01-0.52,0.15-0.64,0.41
				c-0.06,0.12-0.1,0.26-0.12,0.4C191.96,4.98,191.94,5.13,191.94,5.26z"/>
			<path d="M198.86,6.99c-0.34,0.2-0.77,0.31-1.29,0.31c-1.29-0.02-1.94-0.69-1.96-2c0-0.58,0.15-1.06,0.44-1.45
				c0.29-0.39,0.72-0.58,1.3-0.59c0.68,0.01,1.16,0.22,1.42,0.65c0.25,0.43,0.37,0.99,0.37,1.68h-2.59
				c0.02,0.31,0.13,0.55,0.33,0.71c0.19,0.18,0.44,0.27,0.74,0.27c0.24,0,0.46-0.04,0.67-0.12c0.2-0.07,0.4-0.16,0.58-0.27v0.81
				H198.86z M198.21,4.9c-0.01-0.25-0.08-0.47-0.2-0.64s-0.32-0.26-0.59-0.27c-0.27,0.01-0.47,0.09-0.62,0.26
				c-0.14,0.17-0.23,0.39-0.25,0.66L198.21,4.9L198.21,4.9z"/>
			<path d="M202.37,4.15c-0.15-0.06-0.29-0.1-0.42-0.13c-0.13-0.03-0.3-0.04-0.48-0.04c-0.14,0-0.27,0.03-0.39,0.08
				c-0.13,0.07-0.2,0.18-0.21,0.34c0,0.15,0.1,0.25,0.28,0.31c0.08,0.03,0.18,0.07,0.29,0.1c0.1,0.03,0.21,0.06,0.31,0.1
				c0.12,0.04,0.22,0.08,0.33,0.14c0.1,0.06,0.19,0.13,0.27,0.21s0.15,0.19,0.2,0.31s0.07,0.28,0.07,0.46
				c-0.01,0.44-0.18,0.77-0.49,0.97c-0.32,0.2-0.69,0.29-1.11,0.29c-0.38,0-0.76-0.06-1.13-0.16l0.06-0.83
				c0.32,0.17,0.65,0.26,1,0.26c0.14,0,0.28-0.04,0.43-0.11c0.15-0.06,0.23-0.19,0.24-0.37c0-0.1-0.02-0.18-0.07-0.25
				c-0.05-0.06-0.12-0.11-0.2-0.14c-0.18-0.07-0.38-0.13-0.6-0.19c-0.11-0.03-0.21-0.08-0.32-0.13s-0.2-0.11-0.29-0.19
				c-0.08-0.08-0.15-0.18-0.19-0.3c-0.05-0.11-0.08-0.26-0.08-0.43c0-0.42,0.16-0.73,0.47-0.91c0.29-0.19,0.63-0.29,1.03-0.29
				c0.23,0,0.44,0.01,0.61,0.04s0.33,0.07,0.48,0.11L202.37,4.15z"/>
			<path d="M203.75,3.54c0.42-0.19,0.85-0.29,1.3-0.29c1.09-0.01,1.63,0.53,1.62,1.63v0.49c0,0.38,0.01,0.7,0.02,0.97
				c0.01,0.29,0.02,0.57,0.04,0.86h-0.86c-0.03-0.23-0.04-0.43-0.04-0.58h-0.01c-0.12,0.21-0.28,0.37-0.49,0.49
				c-0.21,0.12-0.44,0.18-0.67,0.18c-0.34,0-0.64-0.1-0.89-0.3c-0.27-0.2-0.41-0.48-0.41-0.85c0-0.29,0.06-0.53,0.19-0.7
				c0.12-0.18,0.27-0.31,0.45-0.4c0.19-0.1,0.4-0.16,0.62-0.19c0.22-0.02,0.44-0.04,0.64-0.04h0.54c0-0.31-0.07-0.53-0.21-0.65
				c-0.13-0.12-0.35-0.18-0.64-0.18c-0.43,0.01-0.81,0.15-1.15,0.42L203.75,3.54z M204.28,6.09c0,0.16,0.06,0.28,0.18,0.35
				c0.11,0.08,0.26,0.12,0.44,0.12c0.3,0,0.53-0.12,0.68-0.35c0.14-0.23,0.21-0.49,0.21-0.8h-0.42c-0.05,0-0.11,0-0.17,0
				s-0.12,0-0.17,0.01c-0.13,0.01-0.25,0.04-0.36,0.09s-0.2,0.12-0.27,0.21C204.32,5.82,204.28,5.94,204.28,6.09z"/>
			<path d="M207.79,3.34h0.93v0.54h0.01c0.17-0.23,0.35-0.4,0.55-0.49s0.4-0.14,0.59-0.14c0.54,0,0.92,0.22,1.13,0.68
				c0.12-0.23,0.3-0.41,0.52-0.52c0.21-0.11,0.44-0.17,0.68-0.17c0.47,0.01,0.79,0.15,0.97,0.43c0.17,0.28,0.25,0.64,0.24,1.08V7.2
				h-0.97V4.9c0-0.2-0.02-0.39-0.07-0.57c-0.04-0.09-0.1-0.16-0.17-0.22c-0.08-0.05-0.2-0.08-0.35-0.08c-0.17,0-0.3,0.04-0.4,0.13
				c-0.11,0.08-0.19,0.19-0.24,0.33c-0.05,0.13-0.08,0.27-0.1,0.41c-0.02,0.16-0.03,0.3-0.03,0.43V7.2h-0.97V4.9
				c0-0.2-0.02-0.39-0.07-0.57c-0.04-0.09-0.09-0.16-0.17-0.22c-0.08-0.05-0.2-0.08-0.36-0.08c-0.17,0-0.3,0.04-0.4,0.13
				c-0.11,0.08-0.19,0.19-0.24,0.33c-0.05,0.13-0.08,0.27-0.1,0.41c-0.02,0.16-0.03,0.3-0.03,0.43V7.2h-0.97V3.34H207.79z"/>
			<path d="M214.98,4.07h-0.72V3.34h0.72V2.57l0.97-0.32v1.1h0.87v0.73h-0.87v1.81c0,0.17,0.03,0.31,0.09,0.43
				c0.06,0.13,0.19,0.2,0.37,0.21c0.18,0,0.33-0.04,0.44-0.11l0.03,0.79c-0.19,0.06-0.43,0.09-0.72,0.09
				c-0.79-0.02-1.18-0.44-1.18-1.25V4.07z"/>
			<path d="M220.25,4.07h-0.72V3.34h0.72V2.8c0-0.4,0.1-0.71,0.31-0.95c0.2-0.23,0.49-0.35,0.88-0.36c0.27,0,0.51,0.03,0.71,0.08
				l-0.08,0.83c-0.04-0.03-0.1-0.07-0.16-0.1c-0.06-0.02-0.15-0.04-0.26-0.04c-0.16,0-0.27,0.06-0.33,0.18
				c-0.06,0.12-0.1,0.26-0.1,0.41v0.48h0.85v0.73h-0.85V7.2h-0.97V4.07z"/>
			<path d="M226.36,7.2h-0.92V6.68h-0.01c-0.3,0.4-0.71,0.6-1.23,0.62c-0.44,0-0.76-0.15-0.96-0.44c-0.21-0.28-0.31-0.64-0.31-1.08
				V3.34h0.97v2.07c0,0.05,0,0.11,0.01,0.17c0,0.06,0,0.12,0.01,0.19c0.01,0.13,0.03,0.25,0.06,0.37c0.04,0.11,0.11,0.2,0.19,0.27
				c0.09,0.08,0.2,0.11,0.35,0.11c0.18,0,0.33-0.05,0.44-0.14c0.11-0.09,0.2-0.19,0.25-0.32c0.07-0.13,0.11-0.27,0.13-0.41
				s0.03-0.28,0.03-0.41v-1.9h0.97V7.2H226.36z M223.48,2.64V1.76h0.84v0.87L223.48,2.64L223.48,2.64z M225.87,1.76v0.87h-0.84V1.76
				H225.87z"/>
			<path d="M227.64,3.34h0.87v0.88h0.01c0.03-0.2,0.14-0.41,0.32-0.62c0.18-0.22,0.41-0.33,0.71-0.34c0.1,0,0.2,0.01,0.3,0.03V4.3
				c-0.1-0.05-0.25-0.08-0.44-0.08s-0.34,0.05-0.45,0.16c-0.11,0.11-0.19,0.24-0.24,0.41c-0.05,0.16-0.08,0.33-0.09,0.51
				c-0.01,0.18-0.01,0.34-0.01,0.49V7.2h-0.97V3.34H227.64z"/>
			<path d="M232.93,1.97h1.02v4.42h1.97V7.2h-2.99V1.97z"/>
			<path d="M236.88,3.54c0.42-0.19,0.85-0.29,1.3-0.29c1.09-0.01,1.63,0.53,1.62,1.63v0.49c0,0.38,0.01,0.7,0.02,0.97
				c0.01,0.29,0.02,0.57,0.04,0.86H239c-0.03-0.23-0.04-0.43-0.04-0.58h-0.01c-0.12,0.21-0.28,0.37-0.49,0.49
				c-0.21,0.12-0.44,0.18-0.67,0.18c-0.34,0-0.64-0.1-0.89-0.3c-0.27-0.2-0.41-0.48-0.41-0.85c0-0.29,0.06-0.53,0.19-0.7
				c0.12-0.18,0.27-0.31,0.45-0.4c0.19-0.1,0.4-0.16,0.62-0.19c0.22-0.02,0.44-0.04,0.64-0.04h0.54c0-0.31-0.07-0.53-0.21-0.65
				c-0.13-0.12-0.35-0.18-0.64-0.18c-0.43,0.01-0.81,0.15-1.15,0.42L236.88,3.54z M237.4,6.09c0,0.16,0.06,0.28,0.18,0.35
				c0.11,0.08,0.26,0.12,0.44,0.12c0.3,0,0.53-0.12,0.68-0.35c0.14-0.23,0.21-0.49,0.21-0.8h-0.42c-0.05,0-0.11,0-0.17,0
				s-0.12,0-0.17,0.01c-0.13,0.01-0.25,0.04-0.36,0.09s-0.2,0.12-0.27,0.21C237.44,5.82,237.4,5.94,237.4,6.09z"/>
			<path d="M241,3.34h0.92v0.53h0.01c0.31-0.41,0.72-0.62,1.23-0.62c0.44,0.01,0.76,0.15,0.97,0.43c0.2,0.28,0.3,0.64,0.3,1.08V7.2
				h-0.97V5.14c0-0.12,0-0.25-0.01-0.39c0-0.13-0.03-0.25-0.07-0.35c-0.03-0.12-0.09-0.21-0.18-0.28c-0.09-0.06-0.22-0.1-0.37-0.1
				c-0.17,0-0.31,0.04-0.42,0.13c-0.11,0.08-0.19,0.19-0.26,0.32c-0.06,0.13-0.11,0.27-0.13,0.41c-0.03,0.15-0.04,0.29-0.04,0.42
				v1.9H241V3.34z"/>
			<path d="M248.19,6.77L248.19,6.77c-0.31,0.35-0.69,0.53-1.16,0.52c-0.57-0.01-0.97-0.22-1.21-0.62s-0.36-0.87-0.35-1.41
				c0-0.55,0.11-1.02,0.35-1.41s0.65-0.59,1.21-0.6c0.47,0,0.84,0.18,1.12,0.54h0.02V1.58h0.97V7.2h-0.95L248.19,6.77L248.19,6.77z
				 M246.47,5.26c0,0.28,0.05,0.56,0.18,0.83c0.06,0.12,0.15,0.22,0.25,0.3c0.1,0.09,0.23,0.13,0.39,0.13
				c0.17,0,0.31-0.04,0.41-0.13c0.11-0.08,0.2-0.18,0.26-0.3c0.07-0.12,0.12-0.26,0.14-0.41c0.02-0.14,0.04-0.28,0.04-0.42
				c0-0.29-0.07-0.57-0.2-0.82c-0.07-0.12-0.16-0.23-0.27-0.3s-0.25-0.11-0.4-0.11c-0.3,0.01-0.52,0.15-0.64,0.41
				c-0.06,0.12-0.1,0.26-0.12,0.4C246.49,4.98,246.47,5.13,246.47,5.26z"/>
			<path d="M249.97,3.34h1.06l0.86,2.86h0.01l0.78-2.86h1.17l0.84,2.86h0.01l0.8-2.86h0.96l-1.19,3.87h-1.18l-0.84-2.95h-0.02
				l-0.82,2.95h-1.15L249.97,3.34z"/>
			<path d="M257.2,1.68h0.97v0.96h-0.97V1.68z M257.2,3.34h0.97V7.2h-0.97V3.34z"/>
			<path d="M259.4,3.34h0.87v0.88h0.01c0.03-0.2,0.14-0.41,0.32-0.62c0.18-0.22,0.42-0.33,0.71-0.34c0.1,0,0.2,0.01,0.3,0.03V4.3
				c-0.1-0.05-0.25-0.08-0.44-0.08s-0.34,0.05-0.45,0.16c-0.11,0.11-0.19,0.24-0.24,0.41c-0.05,0.16-0.08,0.33-0.09,0.51
				c-0.01,0.18-0.01,0.34-0.01,0.49V7.2h-0.97L259.4,3.34L259.4,3.34z"/>
			<path d="M262.72,4.07H262V3.34h0.72V2.57l0.97-0.32v1.1h0.87v0.73h-0.87v1.81c0,0.17,0.03,0.31,0.09,0.43
				c0.06,0.13,0.19,0.2,0.37,0.21c0.18,0,0.33-0.04,0.44-0.11l0.03,0.79c-0.19,0.06-0.43,0.09-0.72,0.09
				c-0.79-0.02-1.18-0.44-1.18-1.25V4.07z"/>
			<path d="M267.66,4.15c-0.15-0.06-0.29-0.1-0.42-0.13c-0.13-0.03-0.3-0.04-0.48-0.04c-0.14,0-0.27,0.03-0.39,0.08
				c-0.13,0.07-0.2,0.18-0.21,0.34c0,0.15,0.1,0.25,0.28,0.31c0.08,0.03,0.18,0.07,0.29,0.1c0.1,0.03,0.21,0.06,0.31,0.1
				c0.12,0.04,0.22,0.08,0.33,0.14c0.1,0.06,0.19,0.13,0.27,0.21s0.15,0.19,0.2,0.31c0.05,0.12,0.07,0.28,0.07,0.46
				c-0.01,0.44-0.18,0.77-0.49,0.97c-0.32,0.2-0.69,0.29-1.11,0.29c-0.38,0-0.76-0.06-1.13-0.16l0.06-0.83
				c0.32,0.17,0.65,0.26,1,0.26c0.14,0,0.28-0.04,0.43-0.11c0.15-0.06,0.23-0.19,0.24-0.37c0-0.1-0.02-0.18-0.07-0.25
				c-0.05-0.06-0.12-0.11-0.2-0.14c-0.18-0.07-0.38-0.13-0.6-0.19c-0.11-0.03-0.21-0.08-0.32-0.13c-0.11-0.05-0.2-0.11-0.29-0.19
				c-0.08-0.08-0.15-0.18-0.19-0.3c-0.05-0.11-0.08-0.26-0.08-0.43c0-0.42,0.16-0.73,0.47-0.91c0.29-0.19,0.63-0.29,1.03-0.29
				c0.23,0,0.44,0.01,0.61,0.04c0.17,0.03,0.33,0.07,0.48,0.11L267.66,4.15z"/>
			<path d="M271.31,4.17c-0.08-0.05-0.17-0.08-0.28-0.11c-0.11-0.02-0.23-0.04-0.38-0.04c-0.3,0-0.54,0.11-0.71,0.33
				c-0.18,0.22-0.28,0.52-0.28,0.9c0,0.36,0.08,0.66,0.26,0.89c0.17,0.24,0.42,0.37,0.76,0.37c0.14,0,0.28-0.02,0.42-0.07
				c0.13-0.03,0.24-0.07,0.33-0.11l0.04,0.83c-0.13,0.04-0.28,0.07-0.44,0.09c-0.15,0.03-0.33,0.04-0.54,0.04
				c-0.61,0-1.07-0.2-1.38-0.59c-0.32-0.38-0.47-0.86-0.47-1.45c0-0.58,0.16-1.05,0.47-1.43c0.31-0.38,0.76-0.57,1.34-0.58
				c0.38,0,0.69,0.04,0.95,0.13L271.31,4.17z"/>
			<path d="M272.32,1.58h0.97v2.29h0.01c0.26-0.4,0.65-0.61,1.18-0.62c0.44,0.01,0.76,0.15,0.97,0.43c0.2,0.28,0.3,0.64,0.3,1.08
				V7.2h-0.97V5.14c0-0.12,0-0.25-0.01-0.39c0-0.13-0.03-0.25-0.07-0.35c-0.03-0.12-0.09-0.21-0.18-0.28
				c-0.09-0.06-0.22-0.1-0.37-0.1c-0.17,0-0.31,0.04-0.42,0.13c-0.11,0.08-0.19,0.19-0.26,0.32c-0.06,0.13-0.11,0.27-0.13,0.41
				c-0.03,0.15-0.04,0.29-0.04,0.42v1.9h-0.97L272.32,1.58L272.32,1.58z"/>
			<path d="M277.18,3.54c0.42-0.19,0.85-0.29,1.3-0.29c1.09-0.01,1.63,0.53,1.62,1.63v0.49c0,0.38,0.01,0.7,0.02,0.97
				c0.01,0.29,0.02,0.57,0.04,0.86h-0.86c-0.03-0.23-0.04-0.43-0.04-0.58h-0.01c-0.12,0.21-0.28,0.37-0.49,0.49
				c-0.21,0.12-0.44,0.18-0.67,0.18c-0.34,0-0.64-0.1-0.89-0.3c-0.27-0.2-0.41-0.48-0.41-0.85c0-0.29,0.06-0.53,0.19-0.7
				c0.12-0.18,0.27-0.31,0.45-0.4c0.19-0.1,0.4-0.16,0.62-0.19c0.22-0.02,0.44-0.04,0.64-0.04h0.54c0-0.31-0.07-0.53-0.21-0.65
				c-0.13-0.12-0.35-0.18-0.64-0.18c-0.43,0.01-0.81,0.15-1.15,0.42L277.18,3.54z M277.71,6.09c0,0.16,0.06,0.28,0.18,0.35
				c0.11,0.08,0.26,0.12,0.44,0.12c0.3,0,0.53-0.12,0.68-0.35c0.14-0.23,0.21-0.49,0.21-0.8h-0.42c-0.05,0-0.11,0-0.17,0
				c-0.06,0-0.12,0-0.17,0.01c-0.13,0.01-0.25,0.04-0.36,0.09s-0.2,0.12-0.27,0.21C277.75,5.82,277.71,5.94,277.71,6.09z"/>
			<path d="M281.66,4.07h-0.72V3.34h0.72V2.8c0-0.4,0.1-0.71,0.31-0.95c0.2-0.23,0.49-0.35,0.88-0.36c0.27,0,0.51,0.03,0.71,0.08
				l-0.08,0.83c-0.04-0.03-0.1-0.07-0.16-0.1c-0.06-0.02-0.15-0.04-0.26-0.04c-0.16,0-0.27,0.06-0.33,0.18
				c-0.06,0.12-0.1,0.26-0.1,0.41v0.48h0.85v0.73h-0.85V7.2h-0.97V4.07z"/>
			<path d="M284.66,4.07h-0.72V3.34h0.72V2.57l0.97-0.32v1.1h0.87v0.73h-0.87v1.81c0,0.17,0.03,0.31,0.09,0.43
				c0.06,0.13,0.19,0.2,0.37,0.21c0.18,0,0.33-0.04,0.44-0.11l0.03,0.79c-0.19,0.06-0.43,0.09-0.72,0.09
				c-0.79-0.02-1.18-0.44-1.18-1.25V4.07z"/>
			<path d="M289.65,1.97h1.77c0.17,0,0.35,0.01,0.54,0.04c0.18,0.03,0.36,0.1,0.52,0.19c0.17,0.1,0.31,0.23,0.41,0.41
				s0.15,0.41,0.15,0.7c0,0.31-0.1,0.57-0.27,0.77c-0.18,0.2-0.43,0.34-0.74,0.4V4.5c0.36,0.03,0.64,0.16,0.85,0.37
				s0.32,0.49,0.32,0.82c0,0.33-0.06,0.59-0.18,0.79s-0.28,0.35-0.47,0.46c-0.18,0.1-0.38,0.18-0.58,0.21
				c-0.21,0.04-0.39,0.06-0.56,0.06h-1.78V1.97H289.65z M290.67,4.09h0.41c0.23,0,0.45-0.04,0.65-0.12c0.1-0.04,0.17-0.11,0.23-0.2
				c0.05-0.08,0.08-0.19,0.08-0.32c0-0.15-0.03-0.28-0.08-0.37c-0.06-0.09-0.13-0.16-0.23-0.2s-0.2-0.07-0.31-0.08
				c-0.12,0-0.24-0.01-0.36-0.01h-0.39V4.09z M290.67,6.38h0.48c0.13,0,0.25-0.01,0.37-0.03c0.12-0.03,0.23-0.06,0.33-0.11
				c0.23-0.1,0.34-0.3,0.34-0.59c0-0.17-0.03-0.31-0.09-0.42s-0.14-0.18-0.24-0.23c-0.1-0.06-0.21-0.1-0.33-0.12
				c-0.13-0.01-0.25-0.02-0.38-0.02h-0.48V6.38z"/>
			<path d="M294.35,1.97h1.02v4.42h1.97V7.2h-2.99V1.97z"/>
			<path d="M297.29,1.97h1.11l0.97,4.19h0.01l0.89-4.19h1.42l0.92,4.19h0.01l0.98-4.19h1.02l-1.36,5.24h-1.35l-0.95-4.19h-0.01
				l-0.93,4.19h-1.36L297.29,1.97z"/>
		</g>
		<g>
			<path d="M177.19,22.65h1.83c0.68,0,1.69,0.2,1.69,1.34c0,0.62-0.42,1.06-1.04,1.17v0.02c0.71,0.07,1.2,0.55,1.2,1.19
				c0,1.32-1.19,1.52-1.85,1.52h-1.83V22.65z M178.24,24.76h0.43c0.44,0,0.99-0.1,0.99-0.64c0-0.61-0.53-0.65-1.01-0.65h-0.41V24.76
				z M178.24,27.06h0.5c0.49,0,1.08-0.12,1.08-0.73c0-0.68-0.56-0.79-1.08-0.79h-0.5V27.06z"/>
			<path d="M185.35,27.89h-0.95v-0.53h-0.02c-0.31,0.38-0.74,0.62-1.27,0.62c-0.92,0-1.31-0.65-1.31-1.52v-2.44h1.01v2.06
				c0,0.47,0.01,1.11,0.65,1.11c0.73,0,0.89-0.79,0.89-1.28v-1.89h1.01L185.35,27.89L185.35,27.89z"/>
			<path d="M186.5,24.02h0.95v0.53h0.02c0.32-0.44,0.74-0.62,1.27-0.62c0.92,0,1.31,0.65,1.31,1.52v2.44h-1.01v-2.06
				c0-0.47-0.01-1.11-0.65-1.11c-0.73,0-0.89,0.79-0.89,1.28v1.89h-1.01L186.5,24.02L186.5,24.02z"/>
			<path d="M193.77,27.45L193.77,27.45c-0.31,0.38-0.72,0.53-1.2,0.53c-1.19,0-1.62-0.98-1.62-2.03c0-1.07,0.44-2.01,1.62-2.01
				c0.5,0,0.86,0.17,1.16,0.54h0.02v-2.21h1.01v5.63h-0.98v-0.45H193.77z M192.85,27.2c0.67,0,0.89-0.71,0.89-1.25
				s-0.26-1.23-0.9-1.23c-0.65,0-0.83,0.71-0.83,1.23C192,26.48,192.19,27.2,192.85,27.2z"/>
			<path d="M198.99,27.67c-0.37,0.2-0.79,0.31-1.33,0.31c-1.28,0-2.02-0.74-2.02-2c0-1.12,0.59-2.04,1.79-2.04
				c1.43,0,1.84,0.98,1.84,2.33h-2.67c0.04,0.62,0.48,0.98,1.1,0.98c0.49,0,0.91-0.18,1.28-0.39v0.81H198.99z M198.32,25.58
				c-0.03-0.49-0.26-0.91-0.82-0.91s-0.85,0.39-0.89,0.91H198.32z"/>
			<path d="M202.47,24.83c-0.31-0.11-0.53-0.17-0.9-0.17c-0.27,0-0.59,0.1-0.59,0.43c0,0.62,1.75,0.23,1.75,1.62
				c0,0.9-0.8,1.26-1.62,1.26c-0.38,0-0.77-0.07-1.14-0.17l0.06-0.83c0.32,0.16,0.65,0.26,0.99,0.26c0.26,0,0.66-0.1,0.66-0.47
				c0-0.76-1.75-0.24-1.75-1.64c0-0.83,0.73-1.2,1.52-1.2c0.47,0,0.78,0.08,1.1,0.14L202.47,24.83z"/>
			<path d="M203.79,24.22c0.39-0.18,0.92-0.29,1.34-0.29c1.18,0,1.67,0.49,1.67,1.63v0.5c0,0.39,0.01,0.68,0.02,0.97
				c0.01,0.29,0.02,0.56,0.04,0.86h-0.89c-0.04-0.2-0.04-0.46-0.05-0.58h-0.01c-0.23,0.43-0.74,0.67-1.19,0.67
				c-0.68,0-1.35-0.41-1.35-1.15c0-0.58,0.28-0.92,0.66-1.1c0.38-0.19,0.88-0.23,1.3-0.23h0.56c0-0.62-0.28-0.83-0.87-0.83
				c-0.43,0-0.86,0.17-1.19,0.42L203.79,24.22z M204.97,27.24c0.31,0,0.55-0.14,0.71-0.35c0.17-0.22,0.21-0.5,0.21-0.8h-0.44
				c-0.45,0-1.12,0.08-1.12,0.67C204.33,27.1,204.61,27.24,204.97,27.24z"/>
			<path d="M207.89,24.02h0.94v0.54h0.02c0.32-0.47,0.77-0.63,1.15-0.63c0.54,0,0.92,0.2,1.14,0.68c0.23-0.47,0.74-0.68,1.21-0.68
				c0.95,0,1.22,0.65,1.22,1.52v2.44h-1.01v-2.3c0-0.36,0-0.87-0.58-0.87c-0.67,0-0.75,0.8-0.75,1.3v1.88h-1.01v-2.3
				c0-0.36,0-0.87-0.58-0.87c-0.67,0-0.75,0.8-0.75,1.3v1.88h-1.01L207.89,24.02L207.89,24.02z"/>
			<path d="M215.02,24.76h-0.74v-0.74h0.74v-0.77l1.01-0.32v1.1h0.89v0.74h-0.89v1.8c0,0.33,0.09,0.64,0.47,0.64
				c0.18,0,0.35-0.04,0.46-0.1l0.03,0.8c-0.21,0.06-0.44,0.09-0.74,0.09c-0.79,0-1.22-0.49-1.22-1.25L215.02,24.76L215.02,24.76z"/>
			<path d="M220.29,24.76h-0.74v-0.74h0.74v-0.54c0-0.77,0.44-1.31,1.23-1.31c0.25,0,0.54,0.04,0.74,0.08l-0.08,0.83
				c-0.09-0.05-0.22-0.14-0.44-0.14c-0.34,0-0.44,0.29-0.44,0.59v0.48h0.88v0.74h-0.88v3.13h-1.01V24.76z"/>
			<path d="M226.5,27.89h-0.95v-0.53h-0.02c-0.31,0.38-0.74,0.62-1.27,0.62c-0.92,0-1.31-0.65-1.31-1.52v-2.44h1.01v2.06
				c0,0.47,0.01,1.11,0.65,1.11c0.73,0,0.89-0.79,0.89-1.28v-1.89h1.01L226.5,27.89L226.5,27.89z M223.52,23.32v-0.87h0.87v0.87
				H223.52z M225.94,22.45v0.87h-0.87v-0.87H225.94z"/>
			<path d="M227.67,24.02h0.89v0.88h0.01c0.05-0.36,0.46-0.97,1.06-0.97c0.1,0,0.2,0,0.31,0.03v1.01c-0.09-0.05-0.27-0.08-0.45-0.08
				c-0.82,0-0.82,1.02-0.82,1.58v1.42h-1.01v-3.87H227.67z"/>
			<path d="M232.97,22.65h1.05v4.41h2.03v0.83h-3.09L232.97,22.65L232.97,22.65z"/>
			<path d="M239.84,27.67c-0.37,0.2-0.79,0.31-1.33,0.31c-1.28,0-2.02-0.74-2.02-2c0-1.12,0.59-2.04,1.79-2.04
				c1.43,0,1.84,0.98,1.84,2.33h-2.67c0.05,0.62,0.48,0.98,1.1,0.98c0.49,0,0.91-0.18,1.28-0.39v0.81H239.84z M239.17,25.58
				c-0.03-0.49-0.26-0.91-0.82-0.91s-0.85,0.39-0.89,0.91H239.17z"/>
			<path d="M241.03,22.26h1.01v2.26h0.02c0.28-0.37,0.63-0.59,1.16-0.59c1.19,0,1.62,0.95,1.62,2.01s-0.44,2.03-1.62,2.03
				c-0.43,0-0.89-0.15-1.19-0.56H242v0.47h-0.98L241.03,22.26L241.03,22.26z M242.93,27.2c0.66,0,0.85-0.72,0.85-1.25
				c0-0.52-0.18-1.23-0.83-1.23c-0.65,0-0.9,0.69-0.9,1.23C242.04,26.49,242.26,27.2,242.93,27.2z"/>
			<path d="M248.82,27.67c-0.37,0.2-0.79,0.31-1.33,0.31c-1.28,0-2.02-0.74-2.02-2c0-1.12,0.59-2.04,1.79-2.04
				c1.43,0,1.84,0.98,1.84,2.33h-2.67c0.04,0.62,0.48,0.98,1.1,0.98c0.49,0,0.91-0.18,1.28-0.39v0.81H248.82z M248.15,25.58
				c-0.03-0.49-0.25-0.91-0.82-0.91c-0.56,0-0.85,0.39-0.89,0.91H248.15z"/>
			<path d="M250.01,24.02h0.95v0.53h0.02c0.31-0.44,0.74-0.62,1.27-0.62c0.92,0,1.31,0.65,1.31,1.52v2.44h-1.01v-2.06
				c0-0.47-0.01-1.11-0.65-1.11c-0.73,0-0.89,0.79-0.89,1.28v1.89H250L250.01,24.02L250.01,24.02z"/>
			<path d="M257,24.83c-0.31-0.11-0.53-0.17-0.9-0.17c-0.27,0-0.59,0.1-0.59,0.43c0,0.62,1.75,0.23,1.75,1.62
				c0,0.9-0.8,1.26-1.62,1.26c-0.38,0-0.77-0.07-1.14-0.17l0.06-0.83c0.32,0.16,0.65,0.26,0.99,0.26c0.26,0,0.66-0.1,0.66-0.47
				c0-0.76-1.75-0.24-1.75-1.64c0-0.83,0.73-1.2,1.52-1.2c0.47,0,0.78,0.08,1.1,0.14L257,24.83z"/>
			<path d="M258.14,24.02h0.94v0.54h0.01c0.32-0.47,0.77-0.63,1.15-0.63c0.54,0,0.92,0.2,1.14,0.68c0.23-0.47,0.73-0.68,1.21-0.68
				c0.95,0,1.22,0.65,1.22,1.52v2.44h-1.01v-2.3c0-0.36,0-0.87-0.58-0.87c-0.67,0-0.75,0.8-0.75,1.3v1.88h-1.01v-2.3
				c0-0.36,0-0.87-0.58-0.87c-0.67,0-0.75,0.8-0.75,1.3v1.88h-1.01v-3.89H258.14z"/>
			<path d="M264.96,22.36h1.01v0.96h-1.01V22.36z M264.96,24.02h1.01v3.87h-1.01V24.02z"/>
			<path d="M267.46,24.76h-0.74v-0.74h0.74v-0.77l1.01-0.32v1.1h0.89v0.74h-0.89v1.8c0,0.33,0.09,0.64,0.47,0.64
				c0.18,0,0.35-0.04,0.46-0.1l0.03,0.8c-0.21,0.06-0.44,0.09-0.74,0.09c-0.79,0-1.22-0.49-1.22-1.25v-1.99H267.46z"/>
			<path d="M270.49,24.76h-0.74v-0.74h0.74v-0.77l1.01-0.32v1.1h0.89v0.74h-0.89v1.8c0,0.33,0.09,0.64,0.47,0.64
				c0.18,0,0.35-0.04,0.46-0.1l0.03,0.8c-0.21,0.06-0.44,0.09-0.74,0.09c-0.79,0-1.22-0.49-1.22-1.25v-1.99H270.49z"/>
			<path d="M276.3,27.67c-0.37,0.2-0.79,0.31-1.33,0.31c-1.28,0-2.02-0.74-2.02-2c0-1.12,0.59-2.04,1.79-2.04
				c1.43,0,1.84,0.98,1.84,2.33h-2.67c0.04,0.62,0.48,0.98,1.1,0.98c0.49,0,0.91-0.18,1.28-0.39L276.3,27.67L276.3,27.67z
				 M275.62,25.58c-0.03-0.49-0.25-0.91-0.82-0.91c-0.56,0-0.85,0.39-0.89,0.91H275.62z"/>
			<path d="M277.5,22.26h1.01v5.63h-1.01V22.26z"/>
			<path d="M281.98,24.83c-0.31-0.11-0.53-0.17-0.9-0.17c-0.27,0-0.59,0.1-0.59,0.43c0,0.62,1.75,0.23,1.75,1.62
				c0,0.9-0.8,1.26-1.62,1.26c-0.38,0-0.77-0.07-1.14-0.17l0.06-0.83c0.31,0.16,0.64,0.26,0.99,0.26c0.26,0,0.66-0.1,0.66-0.47
				c0-0.76-1.75-0.24-1.75-1.64c0-0.83,0.73-1.2,1.52-1.2c0.47,0,0.78,0.08,1.1,0.14L281.98,24.83z"/>
			<path d="M283.14,22.36h1.01v0.96h-1.01V22.36z M283.14,24.02h1.01v3.87h-1.01V24.02z"/>
			<path d="M287.83,24.86c-0.18-0.08-0.38-0.14-0.68-0.14c-0.62,0-1.02,0.5-1.02,1.22c0,0.71,0.34,1.26,1.04,1.26
				c0.29,0,0.6-0.1,0.77-0.18l0.05,0.83c-0.29,0.09-0.59,0.13-1.01,0.13c-1.27,0-1.91-0.86-1.91-2.04c0-1.12,0.66-2,1.87-2
				c0.41,0,0.7,0.05,0.98,0.13L287.83,24.86z"/>
			<path d="M288.77,22.26h1.01v2.29h0.02c0.25-0.38,0.69-0.62,1.21-0.62c0.92,0,1.31,0.65,1.31,1.52v2.44h-1.01v-2.06
				c0-0.47-0.01-1.11-0.65-1.11c-0.73,0-0.89,0.79-0.89,1.28v1.89h-1.01v-5.63H288.77z"/>
			<path d="M296.56,27.67c-0.37,0.2-0.79,0.31-1.33,0.31c-1.28,0-2.02-0.74-2.02-2c0-1.12,0.59-2.04,1.79-2.04
				c1.43,0,1.84,0.98,1.84,2.33h-2.67c0.04,0.62,0.48,0.98,1.1,0.98c0.49,0,0.91-0.18,1.28-0.39L296.56,27.67L296.56,27.67z
				 M295.89,25.58c-0.03-0.49-0.25-0.91-0.82-0.91c-0.56,0-0.85,0.39-0.89,0.91H295.89z"/>
			<path d="M297.77,24.02h0.89v0.88h0.02c0.04-0.36,0.46-0.97,1.06-0.97c0.1,0,0.2,0,0.31,0.03v1.01c-0.09-0.05-0.27-0.08-0.45-0.08
				c-0.82,0-0.82,1.02-0.82,1.58v1.42h-1.01L297.77,24.02L297.77,24.02z"/>
			<path d="M300.78,22.26h1.01v2.29h0.01c0.26-0.38,0.69-0.62,1.22-0.62c0.92,0,1.31,0.65,1.31,1.52v2.44h-1.01v-2.06
				c0-0.47-0.01-1.11-0.65-1.11c-0.73,0-0.88,0.79-0.88,1.28v1.89h-1.01V22.26z"/>
			<path d="M308.58,27.67c-0.37,0.2-0.79,0.31-1.33,0.31c-1.28,0-2.02-0.74-2.02-2c0-1.12,0.59-2.04,1.79-2.04
				c1.43,0,1.84,0.98,1.84,2.33h-2.67c0.05,0.62,0.48,0.98,1.1,0.98c0.49,0,0.91-0.18,1.28-0.39L308.58,27.67L308.58,27.67z
				 M307.9,25.58c-0.03-0.49-0.25-0.91-0.82-0.91c-0.56,0-0.85,0.39-0.89,0.91H307.9z"/>
			<path d="M309.78,22.36h1.01v0.96h-1.01V22.36z M309.78,24.02h1.01v3.87h-1.01V24.02z"/>
			<path d="M312.29,24.76h-0.74v-0.74h0.74v-0.77l1.01-0.32v1.1h0.89v0.74h-0.89v1.8c0,0.33,0.09,0.64,0.47,0.64
				c0.18,0,0.35-0.04,0.46-0.1l0.03,0.8c-0.21,0.06-0.44,0.09-0.74,0.09c-0.79,0-1.22-0.49-1.22-1.25v-1.99H312.29z"/>
			<path d="M320.74,27.89h-0.95v-0.53h-0.02c-0.31,0.38-0.74,0.62-1.27,0.62c-0.92,0-1.31-0.65-1.31-1.52v-2.44h1.01v2.06
				c0,0.47,0.01,1.11,0.65,1.11c0.73,0,0.89-0.79,0.89-1.28v-1.89h1.01v3.87H320.74z"/>
			<path d="M321.89,24.02h0.95v0.53h0.02c0.31-0.44,0.74-0.62,1.27-0.62c0.92,0,1.31,0.65,1.31,1.52v2.44h-1.01v-2.06
				c0-0.47-0.01-1.11-0.65-1.11c-0.73,0-0.89,0.79-0.89,1.28v1.89h-1.01v-3.87H321.89z"/>
			<path d="M329.16,27.45h-0.01c-0.3,0.38-0.71,0.53-1.19,0.53c-1.19,0-1.62-0.98-1.62-2.03c0-1.07,0.44-2.01,1.62-2.01
				c0.5,0,0.86,0.17,1.16,0.54h0.02v-2.21h1.01v5.63h-0.98L329.16,27.45L329.16,27.45z M328.24,27.2c0.67,0,0.88-0.71,0.88-1.25
				s-0.26-1.23-0.9-1.23c-0.65,0-0.83,0.71-0.83,1.23C327.39,26.48,327.57,27.2,328.24,27.2z"/>
			<path d="M176.66,33h1.13l1.34,4.11h0.02l1.33-4.11h1.04l-1.76,5.24h-1.29L176.66,33z"/>
			<path d="M184.91,38.02c-0.37,0.2-0.79,0.31-1.33,0.31c-1.28,0-2.02-0.74-2.02-2c0-1.12,0.59-2.04,1.79-2.04
				c1.43,0,1.84,0.98,1.84,2.33h-2.67c0.04,0.62,0.48,0.98,1.1,0.98c0.49,0,0.91-0.18,1.28-0.39v0.81H184.91z M184.23,35.93
				c-0.03-0.49-0.26-0.91-0.82-0.91c-0.56,0-0.85,0.39-0.89,0.91H184.23z"/>
			<path d="M186.42,35.11h-0.74v-0.74h0.74V33.6l1.01-0.32v1.1h0.89v0.74h-0.89v1.8c0,0.33,0.09,0.64,0.47,0.64
				c0.18,0,0.35-0.04,0.46-0.11l0.03,0.8c-0.21,0.06-0.44,0.09-0.74,0.09c-0.79,0-1.22-0.49-1.22-1.25L186.42,35.11L186.42,35.11z"
				/>
			<path d="M192.22,38.02c-0.37,0.2-0.79,0.31-1.33,0.31c-1.28,0-2.02-0.74-2.02-2c0-1.12,0.59-2.04,1.79-2.04
				c1.43,0,1.84,0.98,1.84,2.33h-2.67c0.05,0.62,0.48,0.98,1.1,0.98c0.49,0,0.91-0.18,1.28-0.39v0.81H192.22z M191.55,35.93
				c-0.03-0.49-0.26-0.91-0.82-0.91s-0.85,0.39-0.89,0.91H191.55z"/>
			<path d="M193.43,34.37h0.89v0.88h0.01c0.05-0.36,0.46-0.97,1.06-0.97c0.1,0,0.2,0,0.31,0.03v1.01c-0.09-0.05-0.27-0.08-0.45-0.08
				c-0.82,0-0.82,1.02-0.82,1.58v1.42h-1.01v-3.87H193.43z"/>
			<path d="M196.46,32.71h1.01v0.96h-1.01V32.71z M196.46,34.37h1.01v3.87h-1.01V34.37z"/>
			<path d="M198.64,34.37h0.95v0.53h0.01c0.32-0.44,0.74-0.62,1.27-0.62c0.92,0,1.31,0.65,1.31,1.52v2.44h-1.01v-2.06
				c0-0.47-0.01-1.11-0.65-1.11c-0.73,0-0.89,0.79-0.89,1.28v1.89h-1.01v-3.87H198.64z"/>
			<path d="M203.51,34.57c0.39-0.18,0.92-0.29,1.34-0.29c1.18,0,1.67,0.49,1.67,1.63v0.5c0,0.39,0.01,0.68,0.02,0.97
				c0.01,0.29,0.02,0.56,0.04,0.86h-0.89c-0.04-0.2-0.04-0.46-0.05-0.58h-0.01c-0.23,0.43-0.74,0.67-1.19,0.67
				c-0.68,0-1.35-0.41-1.35-1.15c0-0.58,0.28-0.92,0.66-1.1c0.38-0.19,0.88-0.23,1.3-0.23h0.56c0-0.62-0.28-0.83-0.87-0.83
				c-0.43,0-0.86,0.17-1.19,0.42L203.51,34.57z M203.7,33.67V32.8h0.87v0.87H203.7z M204.69,37.59c0.31,0,0.55-0.14,0.71-0.35
				c0.17-0.22,0.21-0.5,0.21-0.8h-0.44c-0.45,0-1.12,0.07-1.12,0.67C204.05,37.45,204.33,37.59,204.69,37.59z M206.11,32.8v0.87
				h-0.87V32.8H206.11z"/>
			<path d="M207.64,34.37h0.89v0.88h0.01c0.05-0.36,0.46-0.97,1.06-0.97c0.1,0,0.2,0,0.31,0.03v1.01c-0.09-0.05-0.27-0.08-0.45-0.08
				c-0.82,0-0.82,1.02-0.82,1.58v1.42h-1.01v-3.87H207.64z"/>
			<path d="M210.22,34.37h1.07l0.86,2.86h0.02l0.78-2.86h1.17l0.84,2.86h0.02l0.8-2.86h0.96l-1.19,3.87h-1.19l-0.84-2.95h-0.02
				l-0.83,2.95h-1.15L210.22,34.37z"/>
			<path d="M220.54,38.02c-0.37,0.2-0.79,0.31-1.33,0.31c-1.28,0-2.02-0.74-2.02-2c0-1.12,0.59-2.04,1.79-2.04
				c1.43,0,1.84,0.98,1.84,2.33h-2.67c0.04,0.62,0.48,0.98,1.1,0.98c0.49,0,0.91-0.18,1.28-0.39v0.81H220.54z M219.86,35.93
				c-0.03-0.49-0.26-0.91-0.82-0.91c-0.56,0-0.85,0.39-0.89,0.91H219.86z"/>
			<path d="M224.02,35.18c-0.31-0.1-0.53-0.17-0.9-0.17c-0.27,0-0.59,0.1-0.59,0.43c0,0.62,1.75,0.23,1.75,1.62
				c0,0.9-0.8,1.26-1.62,1.26c-0.38,0-0.77-0.07-1.14-0.17l0.06-0.83c0.32,0.16,0.65,0.26,0.99,0.26c0.26,0,0.66-0.1,0.66-0.47
				c0-0.76-1.75-0.24-1.75-1.64c0-0.83,0.73-1.2,1.52-1.2c0.47,0,0.78,0.08,1.1,0.14L224.02,35.18z"/>
			<path d="M228.26,38.02c-0.37,0.2-0.79,0.31-1.33,0.31c-1.28,0-2.02-0.74-2.02-2c0-1.12,0.59-2.04,1.79-2.04
				c1.43,0,1.84,0.98,1.84,2.33h-2.67c0.04,0.62,0.48,0.98,1.1,0.98c0.49,0,0.91-0.18,1.28-0.39v0.81H228.26z M227.59,35.93
				c-0.03-0.49-0.26-0.91-0.82-0.91c-0.56,0-0.85,0.39-0.89,0.91H227.59z"/>
			<path d="M229.45,34.37h0.95v0.53h0.02c0.32-0.44,0.74-0.62,1.27-0.62c0.92,0,1.31,0.65,1.31,1.52v2.44h-1.01v-2.06
				c0-0.47-0.01-1.11-0.65-1.11c-0.73,0-0.89,0.79-0.89,1.28v1.89h-1.01L229.45,34.37L229.45,34.37z"/>
			<path d="M236.43,33h1.83c0.68,0,1.69,0.2,1.69,1.34c0,0.62-0.42,1.06-1.04,1.17v0.02c0.71,0.07,1.2,0.55,1.2,1.19
				c0,1.32-1.19,1.52-1.85,1.52h-1.83V33z M237.49,35.11h0.43c0.44,0,0.99-0.1,0.99-0.64c0-0.61-0.53-0.65-1.01-0.65h-0.41V35.11z
				 M237.49,37.41h0.5c0.49,0,1.08-0.12,1.08-0.73c0-0.68-0.56-0.79-1.08-0.79h-0.5V37.41z"/>
			<path d="M241.13,33h1.05v4.41h2.03v0.83h-3.09L241.13,33L241.13,33z"/>
			<path d="M243.77,33h1.13l1.34,4.11h0.01l1.33-4.11h1.04l-1.76,5.24h-1.29L243.77,33z"/>
		</g>
	</g>
</g>
<g id="solutions">
</g>
</svg>
