<?xml version="1.0" encoding="UTF-8" standalone="no"?>
<svg xmlns="http://www.w3.org/2000/svg" width="1280.000000pt" height="1119.000000pt" viewBox="0 0 1280.000000 1119.000000" preserveAspectRatio="xMidYMid meet">
  <metadata>
Created by potrace 1.15, written by Peter Selinger 2001-2017
</metadata>
  <g transform="translate(0.000000,1119.000000) scale(0.100000,-0.100000)" fill="#000000" stroke="none">
    <path d="M8867 11151 c-4 -18 -7 -45 -7 -60 0 -20 -11 -33 -49 -58 -55 -36 -76 -73 -86 -155 -11 -95 -51 -114 -177 -82 -78 20 -88 28 -88 71 0 53 25 103 60 116 37 14 38 25 4 33 -73 18 -118 -41 -120 -156 -2 -102 0 -98 -34 -115 -38 -19 -84 -19 -104 1 -29 28 -17 64 43 128 34 36 34 38 11 32 -14 -4 -38 -9 -53 -13 -21 -4 -33 -18 -53 -59 -27 -58 -80 -110 -121 -121 -38 -9 -151 12 -174 33 -36 32 -16 89 41 119 16 8 55 15 87 16 32 0 74 5 93 12 63 22 96 102 70 171 -12 31 -52 59 -74 50 -14 -5 -12 -10 13 -25 21 -13 31 -27 31 -43 0 -39 -17 -74 -45 -92 -24 -15 -28 -15 -68 0 -65 24 -116 21 -169 -13 -44 -28 -88 -78 -88 -100 0 -6 -4 -11 -10 -11 -18 0 -23 52 -10 102 10 42 10 52 -4 73 -14 21 -24 25 -66 25 -27 0 -51 -4 -54 -8 -2 -4 10 -6 28 -4 49 6 62 -16 47 -81 -11 -44 -10 -58 3 -89 29 -68 13 -178 -25 -178 -6 0 -30 19 -53 43 -40 39 -44 48 -51 112 -4 39 -15 86 -25 105 -10 20 -23 60 -28 90 -16 82 -28 108 -64 130 -60 36 -187 15 -196 -33 -3 -15 0 -16 23 -7 38 14 87 12 112 -5 33 -23 83 -109 83 -142 0 -18 -11 -45 -29 -66 -18 -24 -31 -54 -35 -86 -8 -58 -44 -96 -101 -107 -46 -8 -81 15 -106 69 -26 57 -24 93 6 122 43 44 80 25 100 -51 12 -50 22 -58 39 -31 23 37 -66 177 -112 177 -11 0 -43 -22 -72 -49 l-53 -50 8 -68 c13 -100 11 -130 -10 -153 -24 -26 -81 -26 -120 1 -67 45 -125 69 -169 69 -124 0 -182 76 -137 180 39 91 20 180 -49 228 -65 44 -170 16 -193 -51 -11 -34 10 -62 60 -83 47 -20 64 -17 24 4 -48 24 -58 56 -26 88 13 13 35 24 48 24 47 0 107 -94 85 -133 -5 -9 -29 -30 -53 -47 -57 -39 -60 -69 -11 -120 32 -33 34 -37 23 -70 -11 -32 -15 -35 -57 -38 -86 -5 -148 62 -131 140 9 37 53 103 74 111 7 2 9 7 6 11 -23 25 -159 -91 -159 -136 0 -12 16 -45 36 -74 76 -110 45 -233 -45 -184 -27 14 -32 35 -20 88 6 30 6 62 0 87 -6 29 -9 33 -10 15 -1 -34 -35 -87 -60 -95 -34 -11 -87 29 -107 80 -21 57 -13 86 36 125 48 38 70 77 70 122 l-1 33 -13 -31 c-10 -23 -32 -41 -76 -65 -79 -42 -112 -89 -112 -157 0 -53 18 -96 52 -127 30 -27 52 -81 44 -108 -8 -26 -32 -55 -57 -69 -17 -9 -18 -5 -11 50 8 78 -3 90 -132 132 -55 18 -106 35 -114 38 -13 5 -13 3 -2 -11 8 -9 39 -26 70 -37 83 -31 112 -62 112 -121 0 -26 -4 -59 -10 -73 l-9 -25 -56 19 c-81 28 -110 48 -141 97 -60 95 -121 117 -245 89 -87 -20 -116 -9 -147 56 -20 42 -20 43 -30 18 -11 -29 0 -74 27 -110 18 -24 23 -25 126 -25 100 0 108 -1 126 -24 10 -13 19 -34 19 -48 0 -22 -3 -24 -22 -19 -50 15 -198 19 -243 6 -71 -20 -61 -27 29 -22 70 4 89 1 124 -17 35 -18 72 -62 72 -86 0 -3 -19 5 -42 19 -63 35 -100 40 -159 21 -91 -31 -153 -2 -189 88 l-21 52 5 -48 c12 -110 52 -138 206 -147 121 -6 162 -23 187 -76 14 -29 15 -42 5 -82 -6 -26 -14 -64 -18 -85 l-6 -38 -47 7 c-25 4 -66 14 -91 24 -91 35 -88 34 -63 16 31 -24 65 -82 61 -108 -3 -21 0 -22 51 -19 61 3 165 32 198 56 13 9 35 37 50 63 46 81 60 92 119 92 52 0 53 1 105 60 66 76 136 111 289 146 98 22 121 25 158 15 23 -6 56 -11 72 -11 39 0 97 -51 111 -99 8 -27 8 -48 0 -76 -6 -21 -9 -40 -7 -42 6 -7 66 80 66 95 0 8 -16 33 -36 55 -32 34 -35 44 -30 76 8 51 37 85 75 89 43 4 74 -17 115 -83 41 -63 69 -84 122 -91 l39 -6 -40 24 c-46 27 -85 80 -85 115 0 32 60 93 91 93 13 0 38 -9 54 -20 17 -11 39 -20 50 -20 74 0 142 -46 179 -119 13 -25 32 -53 42 -62 39 -34 99 -33 144 1 l25 19 -37 -6 c-56 -8 -96 12 -109 56 -15 52 0 102 36 120 27 13 29 12 69 -32 23 -25 60 -55 82 -66 62 -30 99 -66 124 -118 30 -63 31 -138 2 -186 -26 -45 -13 -48 22 -7 43 52 52 99 32 177 -14 56 -25 76 -65 118 -64 67 -91 104 -91 125 0 25 49 40 127 40 55 0 66 -3 86 -26 12 -14 47 -41 77 -59 82 -50 114 -87 106 -122 -20 -77 -19 -89 9 -111 14 -11 61 -32 103 -46 103 -35 139 -58 147 -95 8 -37 1 -51 -23 -45 -32 8 -82 -34 -107 -91 -26 -57 -47 -75 -91 -75 -35 0 -104 68 -104 103 0 32 35 59 66 51 20 -5 111 32 102 42 -2 2 -36 4 -74 5 -54 2 -78 -3 -112 -20 -42 -21 -82 -71 -82 -101 0 -8 27 -69 60 -135 53 -107 61 -130 70 -210 5 -49 10 -111 10 -137 0 -34 4 -48 14 -48 17 0 121 124 158 188 40 68 44 115 18 191 -27 77 -20 115 36 179 38 45 53 52 55 25 2 -33 27 62 28 104 1 49 -10 59 -109 98 -113 44 -124 72 -59 142 39 42 40 45 24 63 -9 10 -30 22 -46 25 -43 10 -77 42 -90 86 -11 34 -10 42 3 55 14 14 22 13 79 -12 62 -26 67 -26 145 -15 101 14 147 2 237 -62 61 -44 97 -92 97 -131 0 -23 36 -56 60 -56 37 0 70 44 70 92 0 48 -13 72 -76 138 -48 50 -64 85 -64 136 l0 36 33 -44 c18 -23 61 -66 96 -94 66 -53 90 -85 91 -119 0 -11 9 -35 21 -54 18 -30 23 -33 52 -26 18 4 45 7 60 6 33 -2 127 -47 127 -61 0 -14 -12 -12 -64 11 -79 35 -103 2 -42 -56 43 -40 100 -55 214 -55 82 0 92 2 133 30 28 18 63 31 94 35 53 6 103 -3 107 -20 2 -5 -25 -25 -59 -43 -60 -31 -64 -36 -79 -87 -8 -30 -14 -69 -12 -87 3 -30 7 -34 53 -46 28 -7 77 -15 110 -18 82 -8 93 5 97 111 l3 80 23 -50 c19 -39 23 -62 19 -104 -5 -72 -28 -91 -106 -91 -55 0 -58 -2 -106 -51 -28 -28 -97 -86 -155 -130 -121 -91 -140 -113 -116 -138 31 -31 85 -18 235 58 79 39 153 71 166 71 23 0 65 -41 65 -65 0 -14 38 -50 63 -58 10 -4 52 5 95 18 42 14 93 25 112 25 30 0 26 -4 -35 -24 -78 -27 -125 -69 -125 -114 0 -40 35 -90 67 -97 15 -3 63 -20 106 -37 58 -23 105 -33 179 -40 104 -8 118 -12 118 -30 0 -6 -34 -45 -75 -87 -41 -43 -75 -85 -75 -93 0 -35 97 -84 150 -76 15 2 35 19 54 47 29 43 29 43 78 39 65 -7 157 -55 185 -97 18 -27 23 -48 23 -103 0 -44 -4 -67 -10 -63 -5 3 -10 22 -10 41 0 108 -104 173 -176 110 l-28 -23 34 -18 c71 -35 80 -51 80 -132 0 -129 37 -164 175 -169 66 -2 94 3 165 27 107 37 120 37 84 0 -16 -16 -38 -41 -49 -55 -17 -22 -31 -27 -107 -34 -54 -6 -98 -17 -115 -28 l-28 -17 45 -15 c57 -19 111 -53 177 -111 59 -51 67 -66 26 -46 -29 14 -61 19 -101 17 l-23 -2 20 -26 c33 -41 27 -60 -21 -76 -85 -26 -52 -92 67 -137 31 -12 74 -21 97 -21 22 0 54 -8 72 -19 17 -11 58 -24 90 -30 66 -12 89 -29 117 -83 31 -61 27 -67 -33 -52 -68 18 -190 18 -231 0 -18 -7 -42 -25 -55 -38 l-23 -25 36 -32 c42 -37 69 -39 150 -11 151 52 255 1 255 -125 0 -111 -39 -167 -103 -149 -23 7 -33 17 -35 33 -3 21 -1 23 22 17 31 -8 56 23 56 69 -1 33 -61 125 -83 125 -6 0 -48 -13 -92 -29 -76 -26 -81 -30 -103 -74 -26 -55 -53 -75 -113 -85 l-44 -8 3 -40 c3 -34 -1 -42 -26 -61 -17 -12 -47 -50 -68 -85 -21 -35 -76 -115 -124 -178 -102 -137 -118 -172 -170 -372 -55 -214 -82 -376 -83 -493 -2 -173 43 -235 213 -300 82 -31 102 -53 126 -129 13 -41 30 -69 57 -95 21 -20 54 -65 72 -101 36 -71 51 -87 110 -119 l40 -22 -35 7 c-19 3 -60 16 -90 28 -55 21 -55 21 -58 67 -4 56 -19 72 -86 88 -27 7 -61 21 -75 32 -19 15 -34 19 -59 14 -20 -4 -52 0 -82 10 -57 19 -86 10 -96 -32 -12 -44 7 -75 65 -108 70 -39 101 -93 101 -176 0 -32 -4 -61 -10 -64 -6 -4 -10 10 -10 35 0 48 -19 98 -48 123 -11 10 -50 25 -86 34 -84 19 -99 33 -91 84 9 54 -10 59 -94 20 -137 -63 -167 -46 -364 216 -82 109 -92 119 -102 103 -10 -16 -50 -12 -67 8 -9 9 -21 33 -27 52 -7 19 -36 82 -65 139 l-52 104 -24 -39 -24 -39 -7 50 c-3 28 -14 65 -23 82 -8 18 -24 62 -34 100 -20 77 -27 80 -111 49 -55 -21 -98 -9 -137 37 l-27 32 -16 -25 c-9 -13 -24 -33 -34 -43 -17 -17 -20 -17 -36 -3 -31 28 -43 22 -171 -82 -59 -48 -89 -59 -119 -43 -37 20 -51 65 -61 198 -10 129 -15 159 -32 180 -30 37 -69 -48 -97 -208 -31 -179 -33 -226 -17 -319 20 -108 20 -139 0 -208 -31 -114 -38 -121 -123 -136 -75 -13 -94 -72 -40 -126 46 -46 77 -58 186 -75 126 -19 177 -34 260 -80 88 -48 103 -63 33 -32 -77 34 -182 66 -227 68 -21 1 -68 -4 -105 -11 -77 -15 -124 -6 -188 36 -21 14 -54 27 -74 31 -31 5 -36 3 -36 -14 0 -24 33 -55 83 -78 46 -22 64 -47 82 -117 25 -91 63 -100 145 -33 66 54 98 63 147 38 44 -22 70 -56 80 -103 l6 -34 -42 34 c-83 68 -69 69 -158 -19 -45 -43 -91 -82 -103 -86 -34 -11 -105 3 -142 28 -38 26 -57 71 -57 138 -1 63 -15 72 -97 67 -84 -5 -109 -28 -99 -92 10 -62 28 -82 83 -96 50 -12 112 -59 112 -86 0 -22 -40 -41 -138 -63 -139 -31 -182 -61 -166 -114 16 -55 60 -83 239 -153 153 -59 220 -58 420 11 35 13 -53 -45 -123 -80 -88 -43 -123 -48 -217 -30 -43 8 -125 17 -184 20 l-106 6 40 -22 c22 -12 64 -40 94 -63 51 -39 58 -41 110 -37 130 9 175 6 216 -15 22 -12 75 -40 118 -63 55 -29 91 -41 120 -41 39 -1 41 -2 23 -15 -12 -9 -42 -15 -76 -15 -45 0 -61 4 -76 21 -54 60 -222 103 -253 65 -13 -15 -8 -23 42 -70 73 -70 115 -89 171 -81 55 9 149 -15 227 -57 33 -17 59 -34 59 -38 0 -12 -85 7 -140 31 l-51 22 -48 -22 -48 -23 -74 37 c-41 21 -93 51 -116 67 -62 42 -199 105 -265 122 -32 8 -73 22 -92 31 -34 16 -109 90 -154 150 l-22 30 20 -59 c24 -70 39 -94 95 -156 23 -25 57 -73 75 -107 24 -46 45 -70 79 -92 62 -40 95 -72 84 -81 -4 -5 -37 -16 -73 -25 -78 -20 -114 -38 -134 -67 -26 -37 -20 -64 21 -95 35 -26 73 -64 126 -125 29 -32 166 -78 233 -78 35 0 56 -8 95 -35 62 -42 78 -43 120 -7 35 28 32 19 -8 -35 -26 -36 -47 -41 -77 -18 -11 8 -36 15 -55 15 -20 0 -54 12 -76 25 -48 30 -87 32 -130 5 l-32 -20 -65 35 c-80 43 -225 79 -291 72 -53 -5 -89 -29 -70 -48 13 -13 38 -14 123 -5 62 8 70 6 196 -43 177 -69 206 -100 148 -157 -33 -33 -57 -28 -148 34 -65 45 -72 47 -135 46 -50 0 -86 -8 -147 -32 -137 -54 -155 -97 -69 -162 165 -124 188 -132 284 -105 36 10 86 20 111 22 42 4 49 1 103 -46 76 -66 75 -66 262 -126 l160 -52 -50 -7 c-27 -4 -86 -16 -129 -27 -44 -10 -92 -19 -107 -19 -15 0 -74 20 -131 45 -129 55 -171 64 -274 65 -72 0 -185 -22 -299 -57 -13 -4 7 -12 63 -24 97 -21 130 -42 167 -107 16 -26 56 -76 90 -112 55 -58 97 -132 82 -146 -3 -3 -38 -8 -79 -11 -89 -7 -104 0 -188 81 -33 32 -60 54 -60 48 0 -6 4 -13 9 -16 5 -4 14 -29 20 -58 9 -40 8 -70 -5 -145 -20 -119 -15 -127 105 -187 92 -47 141 -87 167 -138 l16 -30 -39 31 c-48 38 -130 71 -179 71 -96 0 -184 110 -184 229 0 50 -27 82 -96 111 -55 24 -66 25 -36 4 12 -8 29 -29 39 -47 20 -39 86 -257 119 -390 41 -166 77 -220 230 -338 100 -77 160 -136 150 -147 -3 -3 -37 25 -75 60 -56 53 -82 70 -136 88 -95 32 -136 72 -196 194 -69 143 -125 206 -143 161 -3 -8 -17 -15 -30 -15 -42 0 -61 -41 -61 -132 -1 -103 -13 -114 -64 -64 -33 32 -49 40 -90 44 -56 5 -95 -12 -106 -47 -3 -10 6 -52 20 -92 31 -90 31 -130 1 -194 -43 -94 -49 -120 -32 -153 9 -17 31 -40 51 -52 34 -21 46 -40 25 -40 -46 0 -140 80 -140 120 0 10 9 39 20 65 42 99 34 179 -24 242 -39 43 -61 40 -70 -11 -9 -47 -35 -47 -77 -1 -24 26 -40 35 -65 35 -18 0 -35 -4 -38 -8 -2 -4 2 -29 11 -56 22 -65 9 -75 -56 -41 -52 26 -205 85 -221 85 -4 0 -8 -21 -7 -47 2 -43 -1 -48 -20 -51 -14 -2 -41 10 -67 28 -30 22 -52 31 -72 28 -41 -4 -41 -29 0 -83 55 -71 49 -155 -10 -155 -30 0 -63 43 -70 92 -9 54 -60 98 -114 98 -38 0 -40 -2 -40 -29 0 -39 -19 -49 -40 -22 -12 16 -25 22 -45 19 -23 -2 -31 -11 -42 -43 -26 -76 -71 -84 -169 -29 -58 33 -77 37 -179 47 -114 11 -139 7 -117 -15 21 -21 13 -58 -20 -105 -29 -40 -33 -53 -33 -108 0 -48 5 -70 20 -91 36 -48 55 -48 151 1 95 49 115 53 134 30 18 -21 6 -43 -35 -62 -67 -32 -54 -93 20 -93 33 0 75 -24 75 -43 0 -6 -12 -23 -26 -38 -20 -21 -28 -41 -31 -81 l-5 -53 21 32 c24 38 49 53 90 53 24 0 31 -4 31 -19 0 -30 -17 -68 -40 -91 -22 -22 -88 -26 -170 -10 -25 4 -47 7 -48 5 -2 -2 15 -13 39 -25 63 -33 131 -25 203 23 68 45 112 49 146 12 23 -24 23 -25 3 -25 -49 0 -112 -88 -113 -155 0 -57 78 -145 128 -145 30 0 27 15 -8 40 -45 32 -55 56 -35 86 29 45 106 21 139 -44 7 -15 16 -75 20 -133 6 -104 6 -108 -19 -137 -14 -17 -39 -34 -56 -37 -19 -4 -53 -31 -91 -70 -62 -66 -111 -93 -210 -119 -49 -13 -51 -14 -25 -21 15 -4 52 -4 83 0 46 5 67 16 133 66 85 63 110 70 141 39 16 -16 20 -33 20 -79 0 -33 5 -72 11 -88 6 -15 15 -55 20 -88 15 -92 80 -142 149 -117 22 8 20 9 -16 15 -69 11 -117 81 -130 190 -5 46 -3 64 16 102 12 26 29 49 37 52 7 3 27 25 43 49 42 59 67 65 101 24 l28 -33 -32 -21 c-58 -40 -98 -119 -96 -196 0 -39 3 -35 34 54 24 66 79 126 115 126 67 0 78 -29 29 -76 -32 -30 -74 -102 -66 -111 3 -3 10 5 16 16 15 28 63 51 90 44 40 -10 44 -46 16 -126 -66 -185 -67 -189 -62 -264 8 -105 22 -122 31 -37 20 203 110 364 202 364 19 0 69 -15 110 -32 74 -32 75 -33 54 -50 -12 -9 -49 -23 -82 -29 -46 -9 -71 -21 -100 -47 -42 -38 -44 -55 -4 -28 14 9 49 21 78 27 29 6 95 33 146 60 51 27 106 49 122 49 28 0 30 -3 30 -35 0 -19 -1 -38 -2 -42 -2 -4 -32 -17 -68 -29 -37 -13 -74 -33 -87 -48 -20 -23 -58 -124 -50 -133 2 -1 18 18 35 43 35 49 122 98 164 92 33 -4 49 -44 45 -106 -6 -85 -48 -126 -145 -141 l-47 -8 38 -8 c95 -19 155 14 199 108 53 115 64 132 101 150 56 28 61 17 18 -40 -48 -65 -67 -134 -51 -191 12 -47 62 -102 92 -102 18 0 17 4 -12 36 -60 69 -66 119 -17 159 17 15 51 49 74 76 31 37 43 45 47 33 12 -31 5 -73 -21 -130 -15 -34 -26 -74 -25 -99 1 -70 43 -149 96 -177 15 -8 12 0 -11 28 -45 57 -53 78 -53 129 0 39 5 51 41 90 47 50 132 95 241 125 131 36 154 28 218 -78 23 -37 50 -81 61 -99 11 -17 25 -62 30 -100 15 -96 43 -132 114 -149 l30 -7 -41 44 c-56 59 -64 78 -64 148 0 35 -7 75 -16 95 -28 57 1 114 85 167 76 49 156 38 221 -29 20 -20 52 -46 71 -57 18 -11 35 -28 37 -37 4 -23 -33 -58 -61 -58 -27 0 -51 -24 -62 -60 -15 -52 -33 -70 -73 -70 -55 0 -80 22 -87 78 -3 26 -9 58 -12 72 -6 25 -6 25 -13 -5 -14 -56 -11 -130 6 -154 37 -52 140 -68 190 -28 37 29 81 79 120 136 46 68 48 82 18 126 l-26 39 21 17 c35 28 146 44 215 29 82 -17 100 -38 91 -104 -14 -95 0 -160 37 -172 30 -9 31 -1 3 47 -30 54 -31 72 -4 110 17 24 19 38 14 83 -6 42 -3 59 10 79 33 52 130 59 160 13 14 -21 13 -29 -10 -90 -42 -111 -31 -191 30 -221 60 -28 67 -21 40 38 -29 61 -33 147 -11 219 16 56 97 174 177 262 63 69 125 106 177 106 28 0 37 -7 66 -53 69 -106 134 -147 233 -147 l57 0 -52 26 c-30 15 -69 46 -93 75 -22 27 -54 57 -69 66 -40 23 -76 107 -61 139 8 18 19 24 41 24 25 0 35 -7 57 -44 15 -25 38 -50 53 -57 14 -6 79 -15 146 -19 127 -8 170 -21 198 -62 l16 -22 0 26 c0 15 -11 40 -24 55 -23 27 -28 28 -132 31 -124 4 -138 11 -183 81 -40 62 -47 100 -27 140 23 43 125 117 193 138 53 17 56 17 91 -2 48 -26 78 -73 86 -134 4 -28 13 -57 21 -64 8 -8 47 -22 86 -31 111 -25 130 -52 84 -120 -28 -41 -24 -44 22 -16 66 40 53 90 -42 160 -66 48 -82 71 -91 127 -14 91 44 99 138 20 69 -58 136 -102 144 -94 3 2 -29 33 -70 67 -92 76 -116 112 -116 173 0 56 29 98 57 81 16 -10 21 -25 37 -116 4 -23 23 -56 48 -85 45 -53 88 -135 88 -171 0 -13 4 -20 10 -17 6 3 10 28 10 54 0 41 -7 59 -47 117 -42 62 -47 75 -53 143 -5 68 -8 76 -39 102 -32 27 -34 30 -28 78 3 27 13 64 22 81 14 27 20 31 42 25 14 -3 46 -22 71 -41 51 -38 52 -38 208 -22 l113 12 53 -28 c29 -16 74 -34 99 -42 65 -20 77 -37 88 -133 14 -129 31 -123 51 20 16 110 7 135 -64 186 -130 93 -192 176 -183 245 5 37 44 108 59 108 3 0 9 -13 13 -29 3 -16 22 -47 41 -69 37 -43 81 -62 144 -62 34 0 33 1 -30 33 -35 17 -73 45 -85 60 -29 40 -27 119 5 175 27 47 40 53 40 18 0 -12 11 -44 25 -69 13 -25 29 -63 35 -84 19 -70 41 -83 137 -82 l68 1 -53 13 c-59 15 -96 36 -112 64 -15 28 -34 147 -34 216 0 61 39 175 54 158 15 -16 58 -160 65 -216 8 -72 38 -110 103 -131 49 -16 85 -21 140 -18 50 3 38 19 -20 27 -29 4 -67 13 -85 20 -61 26 -86 119 -59 224 16 64 72 181 86 181 5 0 11 -22 15 -50 6 -44 13 -56 61 -99 30 -28 74 -56 101 -66 27 -9 70 -25 97 -36 27 -10 51 -17 54 -15 2 3 -41 30 -95 62 -54 31 -110 68 -125 82 -38 35 -62 102 -53 148 l7 37 37 -69 c43 -80 98 -123 189 -149 180 -50 193 -58 262 -160 27 -40 71 -96 98 -126 l50 -54 -38 138 c-72 256 -85 281 -188 361 -77 59 -97 92 -127 212 -43 168 -34 194 68 194 92 0 124 -20 172 -108 33 -63 52 -83 124 -139 l85 -66 -58 69 c-43 53 -62 86 -78 139 -12 39 -36 92 -55 119 -18 26 -33 51 -33 55 -1 3 -9 72 -18 154 -10 81 -16 147 -14 147 1 0 21 -9 44 -21 34 -17 52 -20 97 -15 142 17 188 17 251 3 36 -9 66 -14 68 -12 2 1 -39 24 -89 50 -90 46 -94 47 -153 40 -34 -4 -76 -7 -95 -7 -44 1 -107 44 -128 87 -21 45 -12 76 78 262 72 146 112 197 153 191 23 -3 24 -11 11 -144 -8 -80 -12 -75 69 -89 22 -4 71 -23 110 -42 59 -30 84 -37 146 -40 82 -4 80 -2 -35 41 -76 28 -137 72 -159 115 -8 15 -22 56 -31 91 -29 111 -63 149 -148 165 -20 4 -37 11 -37 15 0 11 76 -7 119 -30 43 -21 85 -66 138 -147 25 -36 42 -53 52 -50 105 31 108 31 170 14 154 -43 198 -17 306 177 21 38 53 89 72 113 21 27 27 40 16 34 -26 -13 -45 -38 -82 -103 -47 -83 -114 -154 -166 -174 -43 -16 -47 -16 -102 4 -32 11 -90 23 -130 26 -40 2 -81 10 -92 16 -30 16 -26 45 10 71 l31 22 62 -22 c74 -26 108 -26 161 -2 43 19 90 63 50 46 -11 -4 -41 -13 -66 -18 -38 -9 -52 -7 -85 9 -48 23 -80 69 -88 128 -4 25 -16 56 -27 70 -53 68 72 118 167 67 60 -31 79 -50 129 -126 37 -56 46 -64 41 -40 -3 17 -8 48 -12 70 -15 92 -61 144 -158 181 -67 26 -116 61 -116 83 0 6 14 26 30 44 17 19 30 43 30 53 0 42 14 62 61 89 27 16 49 35 49 41 0 7 -22 36 -48 66 -127 140 -111 178 76 178 169 0 221 -26 323 -160 29 -38 54 -68 56 -67 7 7 -29 143 -45 171 -11 19 -44 45 -88 69 -38 21 -81 50 -96 64 -21 20 -43 28 -89 34 -34 4 -65 13 -70 20 -19 31 52 91 110 93 34 1 37 -2 62 -53 31 -66 60 -82 154 -89 77 -5 78 -2 14 31 -37 18 -46 29 -56 66 -23 81 -69 112 -182 126 -75 9 -106 27 -125 74 -26 66 -19 72 123 102 l55 11 -60 24 c-32 13 -72 38 -87 54 -28 31 -28 31 -25 158 l3 127 34 3 c53 5 79 -5 132 -55 63 -59 63 -44 -1 32 -82 99 -109 166 -92 230 l9 30 7 -38 c4 -22 16 -43 30 -52 12 -8 29 -26 36 -40 7 -14 37 -37 65 -51 43 -20 64 -24 111 -21 48 3 54 5 34 12 -14 5 -56 25 -94 44 -57 29 -74 44 -94 81 -23 43 -24 51 -18 180 5 131 5 137 -19 175 -25 41 -32 108 -16 150 6 16 9 10 15 -25 8 -57 38 -108 72 -120 50 -19 137 -6 156 23 23 35 -4 137 -40 156 -36 19 -42 12 -22 -26 23 -43 25 -64 8 -81 -29 -29 -124 0 -132 41 -3 12 -9 55 -15 95 -5 40 -20 92 -32 115 -12 23 -28 53 -35 67 -8 14 -14 38 -14 54 l0 28 39 -35 c22 -19 59 -44 84 -55 30 -14 58 -37 85 -73 49 -67 68 -84 115 -104 49 -20 55 -19 24 5 -36 28 -91 107 -111 160 -11 28 -40 66 -83 106 -83 78 -82 92 8 114 36 9 78 24 93 33 39 26 66 76 66 122 l0 40 -24 -50 c-30 -65 -72 -86 -182 -93 -114 -6 -164 22 -164 94 0 22 -15 42 -61 85 -69 64 -73 86 -14 81 58 -5 99 -26 157 -79 l52 -48 -35 49 c-48 68 -97 107 -177 139 -37 15 -81 40 -96 56 l-28 29 38 -9 c22 -4 68 -9 103 -9 84 0 132 -16 183 -59 43 -37 43 -31 2 26 -39 52 -82 72 -178 82 -70 7 -92 13 -113 32 -36 33 -53 79 -53 141 0 81 -8 96 -71 139 -63 42 -89 80 -89 127 0 18 -10 38 -25 52 -43 40 -28 42 47 4 65 -32 78 -36 135 -32 35 2 68 9 74 15 9 9 1 10 -28 6 -35 -5 -44 -1 -86 35 -25 22 -66 47 -91 56 -25 9 -67 24 -92 33 -58 21 -104 58 -104 85 0 18 5 19 43 14 106 -14 175 -17 212 -8 43 10 74 3 173 -37 28 -11 52 -19 52 -17 0 6 -154 93 -178 101 -13 4 -52 1 -87 -6 -58 -11 -67 -11 -126 11 -87 32 -92 37 -86 83 6 44 24 67 84 109 69 47 72 61 21 117 -24 26 -56 72 -72 102 -38 70 -45 48 -10 -33 38 -90 40 -120 14 -164 -43 -68 -111 -90 -185 -60 -63 27 -44 64 55 110 51 24 53 26 25 27 -58 4 -89 -3 -138 -28 -43 -23 -52 -25 -86 -14 -74 22 -79 69 -14 118 31 24 49 29 117 33 l81 6 -58 18 c-99 30 -134 26 -218 -27 -78 -50 -111 -57 -159 -32 -29 15 -67 71 -56 83 4 3 28 -2 54 -11 58 -21 115 -22 132 -2 8 10 11 30 7 58 -4 30 0 54 14 86 35 79 17 131 -47 131 -52 0 -60 -13 -30 -52 21 -28 25 -42 20 -69 -8 -40 -22 -71 -38 -81 -19 -13 -71 -9 -94 8 -20 14 -22 24 -22 101 0 83 -1 86 -33 118 -33 33 -44 38 -118 50 -47 7 -84 37 -110 87 -27 52 -26 113 2 177 29 68 67 95 133 95 l50 0 -39 18 c-86 38 -132 18 -180 -81 -34 -71 -50 -79 -121 -59 -33 9 -53 21 -60 37 -7 13 -35 47 -63 75 -28 28 -51 57 -51 63 0 6 20 36 45 67 25 30 48 70 51 88 l7 33 -29 -42 c-52 -75 -120 -112 -171 -92 -26 10 -179 161 -210 207 -15 21 -15 25 -1 39 14 13 24 12 94 -12 85 -29 100 -29 279 -4 75 10 86 14 66 23 -16 7 -50 6 -110 -1 -101 -13 -155 -6 -254 34 -66 26 -70 26 -135 13 -135 -27 -182 -14 -182 49 0 43 23 62 89 75 57 10 71 31 71 99 0 54 3 62 34 93 38 38 70 43 116 19 32 -17 45 -48 38 -95 -6 -42 18 -20 33 30 15 48 2 73 -51 100 -54 27 -65 26 -145 -21 -86 -50 -111 -73 -137 -124 -39 -76 -90 -110 -104 -67 -4 9 -19 46 -35 81 -25 54 -36 98 -26 102 1 0 54 4 118 8 87 6 126 13 161 29 62 30 71 54 47 122 -10 30 -19 80 -19 111 0 66 -23 104 -70 114 -61 13 -152 -54 -166 -122 -4 -22 1 -34 20 -52 l26 -24 0 54 c0 30 5 60 12 67 14 14 74 16 82 3 4 -5 9 -43 12 -83 8 -95 -2 -118 -55 -118 -58 0 -141 29 -173 60 -49 50 -29 140 42 189 l35 24 -39 -6 c-85 -13 -109 -51 -124 -194 -5 -51 -15 -99 -21 -107 -12 -15 -85 -36 -123 -36 -34 0 -48 18 -38 46 7 18 5 24 -9 29 -10 3 -27 15 -37 26 -18 21 -18 21 6 40 14 11 36 29 49 40 l24 20 -42 35 c-43 38 -84 100 -95 147 -9 38 11 35 64 -10 l43 -37 -7 44 c-3 25 -18 69 -33 99 -29 61 -62 80 -155 89 -32 2 -58 8 -58 13 0 16 87 59 119 59 32 0 111 -35 164 -72 41 -29 43 -17 5 33 -45 58 -110 90 -197 97 -85 6 -128 -8 -187 -59 -45 -39 -77 -49 -89 -28 -4 6 11 26 34 45 54 47 52 59 -4 28 -56 -32 -99 -29 -103 5 -5 33 21 51 72 51 54 0 111 16 127 37 13 15 12 15 -11 3 -17 -9 -55 -13 -114 -12 l-90 2 -45 -39 c-43 -35 -48 -37 -78 -27 -42 14 -73 41 -73 64 0 10 10 38 23 62 27 56 60 69 174 69 45 1 93 6 107 12 60 28 78 171 23 192 -11 4 -13 -6 -9 -47 3 -40 0 -56 -15 -75 l-20 -24 -72 18 c-104 25 -117 23 -164 -23 -49 -47 -76 -62 -111 -62 -51 0 -62 136 -15 187 29 31 76 55 152 79 59 18 74 33 35 35 -109 5 -165 -28 -271 -161 l-27 -35 14 38 c9 21 31 57 49 80 19 23 39 52 46 64 15 29 13 100 -3 138 l-12 30 -7 -34z m-99 -460 c-3 -36 -4 -72 -1 -78 11 -31 113 1 113 35 0 10 -7 28 -16 40 -27 38 -9 35 26 -4 32 -37 33 -44 14 -110 -7 -26 18 -53 57 -61 34 -6 41 -15 33 -36 -8 -23 -47 -28 -104 -16 -37 8 -68 24 -111 61 -77 64 -87 84 -65 138 9 22 16 51 16 63 0 13 5 28 12 35 22 22 31 -1 26 -67z m1159 -1072 c6 -6 17 -33 23 -62 18 -76 26 -87 63 -87 24 0 28 -3 17 -10 -24 -16 -76 -11 -93 8 -8 9 -18 29 -21 45 -3 15 -8 38 -11 52 -7 30 -38 33 -109 9 -51 -18 -66 -14 -46 11 39 47 138 65 177 34z m318 -278 c44 -20 125 -102 125 -126 0 -22 -19 -19 -103 20 -42 19 -81 35 -88 35 -6 0 -29 -16 -51 -36 -43 -38 -54 -39 -44 -1 7 28 92 127 109 127 7 0 30 -9 52 -19z m371 -316 c19 -30 13 -53 -32 -106 -19 -22 -34 -45 -34 -50 0 -19 34 -22 79 -5 25 9 52 16 59 16 22 0 12 -20 -20 -40 -47 -28 -107 -35 -151 -17 -49 21 -57 54 -27 117 22 48 23 66 3 147 -5 21 -3 21 51 -8 31 -17 64 -42 72 -54z m252 -180 c31 -36 28 -66 -13 -115 -19 -23 -35 -52 -35 -65 0 -33 44 -65 89 -65 27 0 32 -3 21 -10 -8 -5 -32 -10 -53 -10 -112 0 -148 101 -63 179 46 43 35 72 -37 95 -10 3 -15 11 -11 17 11 19 77 2 102 -26z m272 -305 c16 -16 20 -33 20 -90 0 -77 -16 -94 -26 -29 -4 22 -22 63 -41 90 l-33 49 30 0 c17 0 39 -9 50 -20z m-230 -48 c19 -9 53 -40 75 -69 40 -51 59 -63 125 -80 47 -12 50 -37 8 -63 -50 -31 -81 -26 -137 23 -28 23 -77 65 -109 92 -32 28 -71 59 -87 71 -17 12 -26 25 -21 32 11 18 106 15 146 -6z m-40 -170 c39 -40 70 -62 101 -71 92 -28 150 -70 163 -121 7 -25 7 -25 -15 3 -28 36 -86 65 -157 78 -75 14 -108 33 -128 72 -9 17 -27 47 -41 65 l-24 32 22 0 c13 0 44 -23 79 -58z m609 -250 l113 -7 37 -42 c40 -47 66 -53 108 -26 l25 17 -21 -42 c-24 -48 -46 -62 -94 -62 -40 0 -62 21 -74 70 l-9 35 -107 3 c-101 3 -107 4 -127 29 -28 35 -26 47 8 38 15 -4 78 -10 141 -13z m-282 -134 c30 -34 40 -57 48 -115 10 -78 -9 -157 -50 -198 -48 -47 -205 -103 -236 -84 -22 13 7 34 71 53 68 19 121 62 149 119 26 54 26 98 1 179 -23 74 -22 68 -12 68 5 0 18 -10 29 -22z m247 -98 c14 -5 59 -34 99 -65 44 -33 84 -55 99 -55 36 0 73 32 94 82 16 39 18 41 22 18 7 -43 -17 -127 -45 -154 -35 -35 -85 -34 -179 5 -78 32 -75 32 -196 13 -34 -6 -38 -4 -44 20 -23 95 60 171 150 136z m-480 -36 c9 -9 16 -32 16 -55 0 -39 0 -40 -22 -25 -74 52 -129 -44 -98 -172 8 -37 9 -56 0 -71 -15 -29 -31 -26 -70 14 -51 52 -79 46 -106 -23 -23 -57 -49 -91 -61 -78 -4 4 -7 31 -7 61 0 70 21 100 103 144 59 31 65 38 96 105 18 39 41 78 51 87 37 32 75 37 98 13z m892 -169 c3 -8 2 -40 -4 -71 -17 -100 0 -128 125 -214 99 -67 107 -82 92 -162 -14 -75 -9 -105 26 -146 31 -37 31 -42 1 -42 -62 0 -136 55 -136 101 0 14 10 39 22 54 26 34 18 50 -41 83 -35 20 -49 38 -85 111 -71 140 -75 174 -36 277 11 27 28 31 36 9z m-277 -58 c30 -18 134 -139 163 -190 8 -14 14 -71 15 -157 2 -74 3 -152 4 -172 1 -26 -10 -57 -36 -103 -54 -97 -35 -134 75 -151 62 -10 24 -28 -46 -22 -41 4 -63 12 -92 35 -59 48 -62 69 -18 155 60 120 60 241 -1 319 -44 56 -124 119 -193 153 -60 29 -73 31 -165 30 -113 0 -164 -17 -229 -75 -103 -90 -116 -252 -28 -326 33 -27 23 -40 -18 -23 -33 14 -81 100 -98 178 -23 102 40 213 148 261 43 19 347 105 400 114 38 6 82 -4 119 -26z m403 -108 c40 -42 43 -67 5 -48 -36 19 -67 51 -67 71 0 29 20 21 62 -23z m-614 -135 c49 -32 49 -101 -1 -234 -33 -90 -39 -128 -27 -191 18 -94 60 -129 187 -153 l68 -13 -35 -18 c-28 -15 -63 -20 -180 -23 -324 -8 -287 -11 -375 33 -44 22 -88 52 -99 68 -20 27 -20 27 0 55 35 48 98 72 186 72 66 0 79 3 88 19 17 33 11 76 -16 112 -38 49 -64 109 -64 147 0 62 51 128 112 142 43 11 127 2 156 -16z m-496 -169 c62 -122 54 -186 -26 -224 -23 -11 -70 -23 -106 -26 -36 -4 -99 -16 -140 -26 -107 -29 -200 -36 -200 -17 0 33 22 75 48 90 32 19 128 38 192 38 38 0 51 5 73 28 45 47 67 120 67 220 l0 87 26 -45 c14 -25 44 -81 66 -125z m701 66 c33 -56 20 -105 -43 -171 l-42 -44 7 -70 c5 -55 3 -76 -9 -91 -14 -20 -15 -20 -24 5 -6 15 -13 55 -17 92 -7 68 4 107 45 153 10 11 29 37 44 58 24 36 25 41 11 72 -17 42 3 39 28 -4z m-928 -110 c0 -16 -56 -39 -97 -40 -32 -1 -37 19 -12 44 21 21 109 17 109 -4z m1419 -273 c32 -30 61 -72 94 -138 41 -82 55 -101 106 -139 66 -50 91 -94 100 -181 5 -48 4 -51 -5 -25 -20 52 -58 94 -132 143 -77 51 -103 87 -202 286 -66 132 -58 143 39 54z m-1349 -31 c52 -80 10 -306 -70 -376 -66 -57 -133 -62 -270 -20 -87 27 -109 54 -102 130 11 128 91 206 272 265 95 31 150 31 170 1z m1234 -263 c68 -62 80 -68 154 -84 92 -19 150 -86 171 -200 l7 -35 -23 26 c-13 15 -35 43 -51 62 -20 27 -41 40 -85 53 -188 54 -196 57 -214 94 -10 19 -20 52 -23 72 -3 21 -18 52 -33 70 l-27 32 34 -20 c19 -10 59 -42 90 -70z m-179 -9 c48 -25 92 -67 131 -128 19 -30 44 -48 119 -85 62 -30 115 -65 151 -99 85 -80 131 -93 244 -67 l20 5 -20 -16 c-23 -19 -130 -75 -143 -75 -9 0 -134 78 -272 169 -41 27 -63 50 -85 93 -43 81 -69 104 -167 154 -89 45 -104 57 -93 75 9 14 58 2 115 -26z m-512 -16 c13 -7 47 -52 77 -99 56 -89 93 -120 142 -120 34 0 55 19 80 75 l18 40 3 -44 c6 -84 -58 -126 -178 -118 -83 5 -123 26 -154 80 -42 71 -66 88 -142 97 -88 11 -161 -2 -194 -35 -21 -21 -25 -35 -24 -78 0 -28 4 -70 8 -93 8 -39 7 -41 -24 -54 -28 -11 -34 -11 -58 7 -15 11 -35 35 -45 54 -40 74 4 232 75 274 58 34 368 45 416 14z m27 -316 c137 -27 127 -28 292 8 41 9 63 9 98 -1 42 -12 201 -98 193 -105 -1 -1 -36 4 -75 12 -67 14 -83 13 -219 -7 -161 -23 -212 -21 -304 13 -54 19 -210 104 -210 113 0 8 79 -4 225 -33z m-169 -118 c28 -19 80 -44 115 -56 86 -29 255 -29 432 0 160 26 228 26 330 0 57 -15 100 -20 142 -16 l60 5 -60 -30 c-59 -29 -62 -29 -185 -23 -138 6 -151 3 -375 -91 -77 -33 -101 -39 -165 -39 -65 0 -84 4 -140 32 -112 56 -194 140 -240 248 l-20 47 27 -22 c16 -11 51 -36 79 -55z m-320 -71 c106 -87 146 -112 233 -145 92 -35 104 -47 160 -163 42 -88 65 -110 136 -132 l40 -13 -36 0 c-52 -1 -132 25 -156 51 -11 13 -35 49 -53 81 -39 71 -69 90 -169 113 -106 23 -146 46 -172 97 -12 23 -46 68 -75 99 -54 56 -65 82 -41 91 18 7 57 -16 133 -79z m-1299 -12 c61 -49 98 -97 129 -170 14 -31 43 -91 64 -133 46 -88 49 -125 23 -236 l-16 -72 28 -92 c26 -84 27 -95 16 -145 -20 -90 -28 -77 -70 113 -28 125 -44 171 -102 290 -42 88 -63 117 -146 203 -53 55 -93 103 -90 106 3 4 42 -12 86 -35 80 -41 111 -50 111 -31 0 5 -22 54 -50 107 -48 93 -60 133 -41 133 5 0 31 -17 58 -38z m-346 -58 c10 -12 10 -29 3 -75 -7 -42 -7 -67 1 -82 6 -12 50 -43 98 -68 157 -84 167 -96 261 -306 67 -151 189 -366 233 -409 19 -19 29 -34 23 -34 -17 0 -106 87 -172 168 -33 40 -84 91 -114 112 -66 50 -72 60 -84 157 -17 131 -20 140 -46 166 -14 14 -55 36 -90 47 -36 12 -77 32 -92 45 -20 17 -46 25 -97 30 -74 8 -97 21 -122 69 -25 47 12 104 111 170 45 30 68 33 87 10z m2909 -171 c14 -9 45 -34 69 -55 48 -41 121 -72 196 -83 48 -7 85 -28 85 -47 0 -5 -4 -7 -9 -3 -6 3 -59 14 -120 25 -137 25 -155 32 -208 80 -40 37 -47 40 -103 40 -43 0 -93 -11 -173 -37 -115 -38 -129 -39 -314 -34 -80 2 -91 13 -52 52 20 20 27 21 93 13 141 -16 212 -10 331 29 123 40 169 45 205 20z m-1536 -58 c20 -19 42 -48 50 -63 13 -25 56 -198 72 -287 5 -26 21 -54 49 -85 23 -25 45 -54 49 -65 3 -11 -1 -58 -9 -104 -8 -46 -12 -95 -9 -108 13 -49 -5 -89 -76 -167 -63 -68 -70 -81 -71 -119 l-1 -42 -15 35 c-27 60 -21 83 36 149 62 71 81 124 81 223 0 57 -5 79 -30 129 -17 33 -36 86 -41 117 -14 76 -32 107 -70 122 -70 30 -122 -51 -82 -128 95 -181 154 -265 178 -255 8 3 15 1 15 -4 0 -17 -24 -33 -50 -33 -21 0 -33 13 -69 74 -47 79 -84 121 -141 159 -38 25 -41 42 -25 134 6 36 5 42 -14 53 -64 34 -108 -13 -91 -96 50 -257 56 -270 175 -385 95 -92 101 -103 80 -135 -21 -32 -35 -30 -35 4 -1 40 -18 63 -87 121 -80 66 -110 118 -133 233 -11 51 -24 109 -30 128 -16 54 -12 115 8 140 19 23 77 39 150 40 48 0 96 21 106 45 10 28 7 81 -9 125 -17 49 -19 80 -5 80 5 0 25 -16 44 -35z m-593 -22 c71 -65 91 -111 202 -483 l31 -105 95 -97 c52 -54 89 -98 84 -98 -24 0 -103 34 -164 70 -36 21 -96 47 -133 56 -143 36 -171 109 -110 293 15 48 15 54 -2 100 -15 42 -16 58 -7 97 10 44 9 52 -14 96 -32 60 -42 67 -64 39 -16 -19 -17 -46 -15 -295 2 -164 8 -280 14 -292 19 -35 77 -83 117 -98 27 -10 33 -15 19 -15 -33 -1 -106 27 -132 52 -61 57 -79 152 -48 257 18 59 16 180 -6 333 -13 97 -1 117 79 126 7 0 31 -15 54 -36z m792 -123 c4 -17 32 -57 66 -94 72 -77 75 -93 68 -298 -4 -110 -10 -158 -26 -208 -12 -35 -23 -65 -24 -66 -1 -1 -2 66 -2 150 0 146 -1 153 -27 201 -69 124 -90 177 -95 234 -6 69 2 111 21 111 7 0 16 -13 19 -30z m-1903 -2 c0 -7 -34 -67 -75 -133 -41 -66 -75 -126 -75 -134 0 -8 10 -25 22 -38 26 -27 19 -35 -42 -53 -52 -15 -62 -13 -125 20 -31 17 -69 30 -84 30 -31 0 -217 -27 -280 -41 -58 -13 -69 0 -36 39 41 49 98 70 215 81 171 16 246 49 389 170 46 39 85 71 87 71 2 0 4 -6 4 -12z m3045 2 c10 -16 -10 -35 -69 -69 -87 -49 -144 -130 -119 -170 22 -34 60 -52 135 -60 42 -5 81 -12 87 -15 16 -10 31 -75 31 -140 0 -48 7 -74 36 -132 20 -40 33 -78 29 -83 -15 -26 -51 -5 -157 92 -62 56 -149 131 -193 166 -96 77 -114 98 -115 131 0 73 179 247 290 281 35 10 38 10 45 -1z m165 -34 c99 -57 120 -88 120 -177 0 -61 3 -72 28 -100 23 -26 38 -33 80 -37 62 -5 60 -16 -8 -32 -66 -16 -107 -2 -159 55 -34 37 -41 52 -47 104 -5 48 -15 73 -44 114 -52 73 -74 117 -58 116 7 0 47 -19 88 -43z m-2765 -36 c38 -14 24 -26 -46 -39 -153 -31 -144 -131 23 -253 l23 -17 -28 -1 c-16 0 -104 24 -195 54 -92 30 -189 61 -217 69 -49 14 -50 14 -20 21 138 34 185 59 185 100 0 32 27 64 58 69 56 8 192 7 217 -3z m2797 -303 c18 -14 67 -41 109 -61 118 -55 124 -106 22 -200 l-48 -45 28 -10 c38 -15 61 -14 104 4 45 19 46 19 34 -3 -21 -38 -64 -72 -93 -72 -65 0 -123 65 -101 113 6 12 27 42 47 65 54 65 46 112 -19 112 -45 0 -69 21 -135 120 -69 103 -77 124 -20 52 21 -28 54 -61 72 -75z m-636 35 c34 -10 81 -33 105 -49 62 -43 302 -275 353 -342 39 -51 116 -175 116 -187 0 -3 -27 18 -60 45 -95 80 -130 78 -130 -8 0 -25 -5 -53 -10 -61 -9 -13 -13 -12 -26 5 -12 16 -14 33 -9 80 13 107 11 128 -21 180 -40 66 -75 90 -129 90 -37 0 -49 -6 -93 -47 -63 -59 -109 -72 -222 -65 -157 11 -313 64 -354 120 -24 33 -35 161 -17 196 28 51 122 72 306 66 91 -2 148 -9 191 -23z m-1971 -66 c28 -24 77 -74 110 -112 l60 -68 -75 40 c-94 49 -170 120 -170 157 0 38 18 34 75 -17z m-458 -40 c111 -24 175 -52 218 -97 72 -73 93 -81 218 -84 62 -1 128 -7 147 -13 42 -14 104 -51 97 -58 -2 -3 -41 2 -85 11 -74 15 -86 15 -136 1 -30 -9 -64 -16 -76 -16 -47 0 -104 25 -149 65 -60 55 -99 74 -174 86 -73 12 -183 3 -190 -15 -8 -20 28 -114 53 -141 13 -13 44 -31 71 -40 26 -9 53 -23 61 -32 8 -10 15 -54 18 -112 5 -86 8 -100 34 -134 22 -28 25 -37 13 -37 -29 0 -70 67 -75 123 -5 61 -32 97 -73 97 -37 0 -78 37 -143 128 -52 75 -119 144 -201 208 l-39 31 26 17 c14 9 45 21 69 26 57 12 227 4 316 -14z m1001 -270 c16 -8 50 -33 77 -55 27 -23 57 -41 65 -41 9 0 24 18 34 39 9 22 26 43 36 46 40 13 109 -45 150 -126 23 -43 25 -80 9 -112 -14 -26 -80 -97 -91 -97 -8 0 -234 106 -298 139 -52 27 -80 74 -80 133 0 27 5 58 10 69 13 23 50 25 88 5z m1240 -22 c71 -12 132 -15 230 -10 172 7 157 21 230 -214 32 -101 83 -217 127 -288 l27 -44 -29 15 c-68 36 -118 114 -178 279 -34 96 -52 115 -112 123 -50 6 -344 96 -400 122 -18 8 -33 19 -33 24 0 13 26 11 138 -7z m-448 -134 c89 -55 166 -77 353 -101 88 -11 170 -25 181 -31 48 -24 74 -61 96 -131 11 -40 43 -142 70 -227 56 -179 67 -234 75 -385 l5 -110 -29 103 c-80 285 -180 471 -282 523 -22 11 -72 31 -112 45 -102 37 -131 54 -225 128 -45 35 -120 86 -167 113 -86 48 -94 58 -75 94 15 28 37 24 110 -21z m-118 -220 c23 -25 56 -76 75 -115 l34 -70 -6 -145 c-3 -88 -2 -158 4 -179 6 -18 35 -77 66 -130 76 -134 75 -152 -9 -313 -35 -68 -69 -143 -76 -167 -6 -24 -15 -110 -19 -191 -10 -188 -20 -211 -140 -292 -119 -81 -128 -92 -181 -203 -26 -55 -56 -108 -66 -117 -24 -21 -124 -71 -130 -65 -3 2 33 62 79 133 46 71 108 172 139 224 59 100 90 137 143 170 41 25 65 82 65 153 0 28 -7 130 -16 225 -19 198 -15 239 36 318 40 64 40 126 -2 298 -30 118 -33 146 -33 281 0 168 2 162 -84 265 l-46 54 64 -44 c35 -25 81 -65 103 -90z m1256 93 c-14 -51 -3 -109 37 -192 41 -85 42 -102 14 -141 -20 -26 -21 -33 -10 -74 27 -107 8 -187 -62 -260 -27 -28 -46 -43 -43 -34 41 133 49 181 39 241 -8 49 -7 73 5 114 14 50 14 55 -14 139 -25 79 -27 90 -15 132 11 41 46 112 56 112 2 0 -1 -16 -7 -37z m-1472 -108 c4 -9 1 -50 -6 -93 -16 -96 -1 -157 65 -265 53 -88 85 -167 85 -210 0 -18 -7 -57 -15 -87 -8 -30 -15 -67 -15 -82 0 -31 -14 -37 -24 -11 -4 9 -4 60 0 113 7 107 12 91 -88 280 -88 164 -103 273 -47 344 23 30 37 33 45 11z m-1878 -10 c53 -23 77 -48 147 -155 72 -110 93 -131 158 -160 60 -27 144 -29 231 -5 36 10 69 15 72 12 4 -3 -5 -39 -19 -79 -14 -40 -29 -92 -33 -116 -3 -24 -12 -46 -20 -49 -24 -9 -94 24 -159 73 -33 25 -80 57 -105 71 -152 86 -198 130 -236 226 -29 74 -59 97 -141 108 -43 6 -104 6 -159 1 -49 -5 -91 -8 -92 -6 -7 5 77 44 150 68 84 29 153 33 206 11z m1556 -80 c83 -17 119 -47 140 -114 25 -76 29 -118 14 -127 -7 -5 -94 -11 -193 -15 -99 -4 -196 -13 -215 -20 -19 -6 -61 -30 -92 -52 -68 -47 -72 -47 -188 24 -125 76 -195 109 -290 139 -67 21 -86 31 -88 47 -4 28 44 82 93 104 53 24 103 24 222 -3 104 -22 117 -22 248 16 67 19 260 20 349 1z m855 -52 c100 -68 194 -153 227 -205 52 -83 115 -340 150 -618 31 -250 11 -327 -124 -472 -108 -116 -119 -139 -126 -270 -9 -150 -32 -205 -126 -304 -40 -42 -60 -54 -60 -36 0 5 14 48 30 98 52 153 66 279 87 805 9 239 -19 414 -113 687 -40 118 -46 145 -51 252 -5 99 -4 120 8 120 8 0 52 -26 98 -57z m604 -93 c82 -40 109 -75 127 -164 10 -50 20 -67 62 -109 l49 -49 -54 -53 c-46 -45 -59 -66 -81 -131 -30 -91 -62 -140 -121 -189 l-43 -35 55 108 c61 119 61 117 50 334 -5 105 -13 127 -96 237 -23 30 -41 58 -41 63 0 15 50 8 93 -12z m-1163 -169 c40 -80 58 -163 60 -286 4 -181 5 -175 -44 -233 -24 -28 -52 -72 -62 -97 -17 -45 -17 -47 2 -73 11 -15 39 -36 62 -47 46 -22 53 -35 20 -35 -58 1 -170 78 -182 124 -9 37 9 73 69 138 43 46 55 66 55 91 0 62 -41 95 -140 116 -182 38 -228 87 -159 166 40 46 78 65 126 65 57 0 98 -30 118 -87 23 -67 30 -78 49 -81 10 -2 20 7 26 23 18 48 11 113 -20 187 -16 38 -30 75 -30 80 0 18 31 -14 50 -51z m-529 -139 c76 -50 256 -325 298 -453 6 -19 18 -74 25 -122 22 -136 85 -229 175 -258 28 -10 31 -13 17 -21 -42 -23 -135 22 -213 104 -60 64 -92 124 -123 228 -32 110 -61 153 -143 214 -97 72 -109 87 -115 144 -7 75 21 182 47 182 3 0 18 -8 32 -18z m-1231 -14 c78 -15 215 -66 234 -87 22 -24 8 -36 -70 -56 -144 -37 -401 -24 -504 28 -63 31 -61 54 11 90 88 44 189 52 329 25z m979 -119 c19 -34 8 -89 -26 -129 -14 -17 -56 -46 -93 -65 -37 -19 -70 -41 -73 -49 -4 -9 5 -28 19 -45 31 -37 56 -95 48 -115 -5 -13 -13 -10 -43 14 -20 17 -63 40 -96 53 -54 21 -64 30 -124 114 -36 50 -83 109 -103 131 -50 55 -71 89 -63 102 12 19 66 10 143 -22 107 -46 162 -45 267 5 91 42 123 44 144 6z m-451 -244 c57 -61 67 -88 87 -230 35 -256 90 -467 132 -509 33 -33 62 -38 273 -45 l185 -7 -39 -18 c-30 -13 -84 -20 -215 -28 -243 -14 -336 -8 -406 26 -66 33 -165 129 -194 189 -31 64 -27 93 24 177 52 88 57 125 20 169 -41 48 -100 65 -198 57 -93 -8 -143 4 -153 36 -8 28 22 67 77 98 40 23 56 25 177 27 72 1 137 5 142 8 17 11 11 48 -15 90 -13 22 -25 46 -25 53 0 19 77 -37 128 -93z m-1174 -185 c84 -29 155 -70 183 -107 35 -46 39 -96 14 -191 -41 -160 -30 -193 162 -461 135 -187 147 -218 67 -170 -133 81 -256 245 -295 395 -8 31 -19 113 -25 182 -14 161 -32 204 -129 300 -79 79 -76 86 23 52z m412 -88 c58 -43 126 -120 122 -140 -9 -40 -152 6 -197 64 -34 43 -26 104 14 104 12 0 40 -13 61 -28z m1496 -36 c97 -55 202 -138 233 -185 28 -41 32 -92 9 -112 -23 -19 -48 -75 -69 -152 -20 -77 -55 -127 -89 -127 -32 0 -50 24 -80 110 -14 41 -42 100 -61 131 -37 60 -79 190 -90 280 -14 111 25 125 147 55z m-355 -101 c44 -133 48 -158 30 -174 -13 -10 -22 -6 -52 20 -76 67 -107 178 -64 233 35 45 51 31 86 -79z m1377 79 c24 -9 19 -41 -15 -90 -66 -97 -71 -134 -34 -269 14 -49 25 -111 25 -136 0 -86 -71 -321 -105 -349 -22 -18 -38 25 -33 84 3 28 19 83 36 123 40 90 40 124 0 209 -28 59 -32 80 -32 144 1 101 33 207 78 254 33 36 50 42 80 30z m-2368 -250 c160 -131 186 -165 223 -290 43 -146 106 -203 364 -330 88 -42 161 -84 164 -92 15 -38 -57 -41 -163 -7 -79 26 -125 29 -206 16 -63 -10 -110 7 -165 61 -72 70 -100 142 -116 288 -8 76 -21 139 -32 160 -9 19 -57 90 -106 157 -49 66 -89 124 -89 128 0 10 19 -3 126 -91z m2142 -196 c21 -21 13 -66 -33 -182 -50 -127 -56 -177 -29 -266 23 -79 15 -145 -30 -233 -39 -76 -134 -212 -142 -204 -3 3 16 43 43 89 43 74 48 89 48 143 -1 50 -8 77 -49 165 -64 136 -68 182 -31 314 30 103 50 137 99 167 35 21 106 25 124 7z m-2693 -450 c199 -200 237 -243 269 -305 31 -62 82 -220 73 -229 -2 -2 -34 44 -72 103 -119 183 -200 256 -300 270 -25 3 -49 11 -53 17 -5 6 -21 52 -37 101 -19 60 -46 115 -80 165 -28 41 -54 83 -58 93 -19 51 48 -5 258 -215z m1848 203 c26 -12 47 -27 47 -32 0 -23 -174 -2 -233 28 -46 23 -22 35 62 31 53 -2 90 -10 124 -27z m-388 -62 c53 -14 81 -41 117 -114 21 -40 61 -89 125 -152 53 -52 101 -109 110 -130 11 -26 18 -89 24 -200 7 -159 22 -242 56 -306 19 -37 12 -42 -26 -23 -49 26 -61 55 -76 181 -13 111 -16 123 -83 263 -38 81 -78 170 -88 197 -24 64 -78 118 -179 178 -109 64 -129 81 -122 101 8 19 80 22 142 5z m-1199 -106 c18 -15 66 -57 106 -92 40 -35 96 -82 123 -106 106 -89 132 -180 114 -392 -20 -224 -14 -233 184 -299 121 -40 176 -64 201 -89 26 -27 9 -35 -42 -19 -26 8 -93 26 -150 39 -164 40 -228 82 -284 188 -18 33 -23 61 -25 132 -1 50 -2 98 -2 107 -1 10 -17 35 -36 57 -19 21 -56 76 -81 122 -47 86 -77 128 -184 257 -59 71 -75 114 -47 126 28 12 90 -3 123 -31z m1685 17 c65 -20 215 -103 257 -143 39 -36 62 -93 73 -180 20 -153 -8 -327 -57 -366 -31 -24 -101 -28 -186 -10 -127 27 -143 55 -131 218 10 138 7 193 -13 240 -24 58 -60 97 -135 146 -67 45 -89 69 -75 82 12 12 103 32 152 32 29 1 80 -8 115 -19z m-4301 -260 c99 -37 123 -37 171 -4 41 28 59 25 59 -10 0 -26 -19 -46 -67 -70 -48 -24 -83 -20 -164 19 -41 19 -82 35 -92 35 -20 0 -32 23 -23 45 8 21 24 19 116 -15z m2031 -196 c43 -70 144 -66 220 10 l41 41 -21 -42 c-26 -51 -50 -69 -115 -84 -42 -9 -58 -8 -88 4 -44 18 -62 50 -88 155 -28 111 -23 144 6 38 13 -49 33 -104 45 -122z m-401 121 c8 -9 34 -31 59 -48 53 -36 43 -46 -20 -18 -50 22 -73 44 -84 79 -6 21 -5 23 12 13 11 -5 26 -17 33 -26z m2114 2 c16 -22 20 -42 19 -95 -1 -70 -18 -152 -32 -152 -5 0 -11 46 -15 103 -3 56 -9 119 -12 141 -8 45 7 46 40 3z m-3992 -3 l-5 -27 58 8 c32 4 64 9 70 12 7 2 25 -8 41 -22 22 -20 24 -25 9 -19 -44 15 -76 15 -124 -1 -54 -18 -92 -17 -98 1 -3 9 42 74 52 74 1 0 0 -12 -3 -26z m3856 -37 c59 -55 67 -133 27 -271 -41 -143 -40 -148 88 -255 81 -67 126 -124 108 -135 -26 -16 -201 67 -251 119 l-35 36 3 162 c2 139 0 175 -19 254 -19 78 -20 94 -9 108 17 20 56 12 88 -18z m-3557 -90 c11 -21 19 -43 17 -49 -2 -5 -18 18 -36 52 -17 34 -25 56 -16 49 8 -7 24 -30 35 -52z m117 39 c4 -21 -14 -37 -34 -29 -16 6 -26 32 -18 44 10 17 49 5 52 -15z m1616 -78 c21 -30 20 -58 -1 -58 -23 0 -63 39 -63 62 0 26 45 24 64 -4z m-1754 -43 c16 -20 81 -167 76 -173 -6 -5 -27 34 -46 83 -11 27 -27 46 -53 60 -28 17 -34 24 -25 33 16 16 33 15 48 -3z m137 -59 c15 -60 22 -69 106 -123 69 -46 93 -74 83 -99 -8 -22 -38 -17 -87 15 -86 55 -149 143 -149 206 0 73 29 74 47 1z m2438 -42 c11 -24 14 -46 9 -67 -7 -32 -115 -279 -120 -274 -2 1 13 52 32 112 37 113 48 209 31 270 -8 29 -8 29 12 11 11 -10 27 -33 36 -52z m-382 -29 c29 -19 85 -65 125 -102 83 -79 84 -83 52 -209 -13 -50 -24 -140 -30 -243 -5 -90 -11 -166 -14 -168 -10 -10 -26 104 -26 185 0 59 7 110 21 157 11 39 25 90 32 113 l11 44 -51 46 c-27 26 -63 65 -78 87 -15 22 -46 59 -69 83 -49 51 -41 53 27 7z m-305 -177 c2 -10 -8 -34 -22 -55 -31 -45 -34 -88 -8 -102 14 -7 25 -6 40 5 16 11 22 12 22 3 0 -23 -33 -49 -61 -49 -19 0 -34 -8 -45 -25 -9 -14 -18 -24 -20 -23 -4 5 34 195 47 235 12 36 41 43 47 11z m-1557 -45 c40 -34 66 -92 75 -167 5 -40 12 -60 25 -66 28 -15 81 -12 101 6 16 16 18 15 27 -7 17 -47 -27 -85 -86 -74 -72 13 -152 114 -173 217 -15 76 -28 85 -86 63 -25 -9 -47 -15 -50 -13 -6 7 26 34 61 52 43 23 69 20 106 -11z m1816 -87 c-9 -110 -31 -169 -82 -221 -38 -38 -44 -50 -39 -73 17 -68 65 -122 111 -122 15 0 23 -5 20 -12 -6 -18 -57 -11 -87 11 -63 46 -81 139 -43 217 11 21 30 80 42 130 39 161 89 205 78 70z m983 -193 c0 -78 13 -103 78 -159 58 -49 56 -80 -9 -204 -39 -74 -49 -87 -45 -60 21 143 20 162 -14 240 -34 80 -47 156 -36 214 11 59 26 41 26 -31z m189 42 c65 -33 103 -115 67 -144 -24 -20 -92 6 -127 48 -59 73 -19 137 60 96z m-610 -56 c33 -57 31 -100 -5 -148 -16 -22 -51 -69 -77 -105 -67 -91 -88 -156 -96 -296 l-7 -115 -19 40 c-15 31 -20 62 -20 135 0 126 20 189 86 271 59 74 75 107 91 195 6 35 14 64 18 64 3 0 17 -18 29 -41z m-2311 -51 c29 -29 5 -115 -49 -178 -17 -20 -20 -21 -14 -5 4 11 10 54 12 95 7 91 22 117 51 88z m2587 -80 c57 -26 97 -175 76 -280 -21 -98 -98 -158 -203 -158 -59 0 -75 23 -83 124 -12 139 9 218 72 278 47 45 92 57 138 36z m-1098 -251 c-14 -18 -39 -40 -57 -50 l-31 -19 36 49 c20 26 44 54 53 61 27 21 27 -5 -1 -41z m48 -97 c-3 -5 -13 -10 -21 -10 -8 0 -12 5 -9 10 3 6 13 10 21 10 8 0 12 -4 9 -10z m1 -72 c20 -32 -95 -74 -124 -44 -21 20 -9 32 43 45 56 13 73 13 81 -1z"></path>
    <path d="M6955 10450 c-18 -20 -17 -20 26 -20 93 0 117 -56 49 -110 -23 -18 -39 -37 -37 -43 3 -11 102 -29 232 -43 l60 -7 -45 44 c-32 32 -50 60 -63 100 -20 66 -27 72 -89 88 -70 17 -112 14 -133 -9z"></path>
    <path d="M7704 10436 c-3 -8 2 -29 11 -47 14 -26 16 -46 10 -93 -12 -104 -11 -120 6 -124 8 -1 27 7 42 18 35 27 35 74 2 150 -15 35 -20 59 -14 65 13 13 41 -5 54 -33 5 -12 13 -22 17 -22 13 0 9 75 -4 88 -17 17 -117 16 -124 -2z"></path>
    <path d="M6756 10403 c-10 -10 -7 -50 6 -78 23 -50 143 -86 176 -53 20 20 14 25 -30 24 -38 -1 -44 3 -82 51 -42 52 -59 66 -70 56z"></path>
    <path d="M8704 10334 c-46 -46 -73 -107 -74 -161 0 -80 -16 -89 -89 -48 -53 31 -53 31 -40 1 7 -14 9 -36 5 -50 -9 -36 -69 -96 -97 -96 -21 0 -20 2 14 34 41 38 45 54 19 86 -17 21 -18 21 -49 4 -27 -16 -36 -17 -66 -6 -66 24 -106 -10 -126 -106 -17 -82 -14 -105 8 -57 10 22 28 49 41 60 13 11 21 16 18 10 -2 -5 -16 -35 -31 -65 -18 -39 -28 -78 -32 -130 -6 -78 -2 -77 30 12 18 51 47 93 74 108 13 6 7 -12 -22 -66 -21 -42 -37 -77 -35 -80 3 -2 19 14 37 36 30 37 74 67 136 90 14 5 25 8 25 7 0 -2 -32 -25 -70 -52 -44 -29 -89 -72 -117 -109 l-46 -61 39 38 c52 49 60 47 24 -7 -17 -24 -30 -46 -30 -48 0 -2 34 29 75 69 90 89 169 129 338 173 148 39 193 37 223 -7 12 -18 27 -63 34 -100 17 -96 19 -103 38 -103 21 0 239 188 270 232 12 18 22 41 22 51 0 17 -5 18 -37 12 -21 -4 -64 -18 -95 -31 -70 -29 -126 -31 -177 -4 -44 22 -81 64 -81 91 0 26 17 33 25 10 11 -35 61 -81 89 -81 38 0 66 33 66 78 0 49 6 56 70 84 54 24 111 72 65 54 -95 -36 -181 -32 -266 13 l-59 31 -25 -40 c-38 -61 -71 -74 -105 -40 -28 28 -26 94 4 153 13 26 22 47 20 47 -2 0 -20 -16 -40 -36z"></path>
    <path d="M4864 10215 c18 -79 43 -148 71 -195 48 -80 75 -137 75 -156 0 -14 -8 -15 -57 -9 -81 11 -119 7 -164 -15 -69 -35 -122 -23 -198 46 l-38 34 18 -77 c23 -98 23 -105 0 -68 -10 17 -28 39 -41 50 -19 17 -18 12 8 -30 17 -27 34 -66 37 -85 l7 -35 -63 61 c-61 57 -174 132 -185 121 -3 -3 21 -21 53 -40 54 -33 126 -97 109 -97 -4 0 -22 11 -40 25 -31 24 -115 59 -123 51 -2 -2 9 -9 25 -15 39 -16 89 -69 97 -103 4 -16 5 -28 2 -28 -2 0 -20 15 -40 34 -19 18 -45 36 -57 39 l-22 6 23 -25 c34 -36 15 -41 -26 -6 -35 32 -73 54 -120 72 -38 14 -30 3 13 -19 52 -27 102 -85 102 -119 0 -27 -1 -26 -36 15 -19 24 -50 53 -67 65 -31 22 -31 21 6 -21 47 -52 41 -66 -9 -22 -30 27 -132 81 -152 81 -3 0 13 -13 34 -28 49 -36 60 -49 80 -97 l16 -38 -50 44 c-27 24 -65 53 -83 63 -33 19 -33 18 14 -33 77 -86 56 -89 -53 -6 -68 51 -116 81 -155 94 l-30 11 25 -18 c90 -63 172 -132 200 -167 8 -10 -14 4 -48 32 -56 45 -253 153 -278 153 -5 0 25 -20 67 -44 42 -23 96 -57 121 -74 47 -32 113 -101 105 -109 -3 -2 -37 12 -76 31 -82 42 -181 86 -181 82 0 -2 35 -24 78 -49 87 -50 99 -62 112 -106 11 -38 7 -38 -67 -6 l-58 26 39 -33 c22 -18 47 -39 55 -46 14 -11 13 -12 -9 -6 -90 23 -180 79 -311 194 l-63 55 73 -85 c97 -111 143 -183 165 -258 l19 -61 38 20 c70 35 85 31 217 -73 33 -27 63 -48 66 -48 4 0 -14 28 -39 62 -39 54 -45 69 -45 112 0 54 3 54 29 4 10 -18 47 -53 82 -78 l64 -45 -47 56 c-46 54 -78 113 -78 144 0 18 129 -78 178 -133 l33 -37 -16 33 c-9 18 -29 54 -45 79 -19 29 -30 60 -30 82 l0 34 31 -46 c17 -26 34 -47 39 -47 4 0 1 20 -7 44 -11 33 -12 52 -5 73 10 28 10 28 11 3 1 -33 43 -120 69 -143 l20 -19 -18 39 c-29 60 -33 103 -13 142 18 35 43 53 43 31 0 -25 41 -67 92 -95 l53 -29 -31 40 c-60 75 -76 132 -21 72 35 -38 97 -75 97 -58 0 6 -9 28 -20 50 -11 22 -20 44 -20 50 0 19 30 10 72 -20 23 -17 43 -29 44 -27 2 2 -2 20 -8 40 -8 27 -8 43 0 62 13 28 33 32 65 11 12 -8 48 -26 79 -40 l58 -26 -30 42 c-17 22 -30 49 -30 60 0 10 18 36 40 58 46 46 52 45 115 -19 l39 -41 11 42 10 43 65 3 c53 2 81 10 150 44 47 23 101 53 120 68 19 14 48 31 63 38 35 15 31 35 -9 42 -16 3 -48 15 -72 28 l-43 23 16 -25 c18 -27 17 -67 -2 -73 -7 -3 -25 13 -41 35 l-28 40 4 -59 c5 -67 -6 -76 -31 -24 -18 37 -84 115 -98 115 -5 0 5 -20 22 -44 21 -30 33 -59 36 -92 l4 -49 -39 72 c-41 75 -66 111 -127 178 l-37 40 21 -36 c11 -20 37 -72 56 -115 l35 -79 -55 58 c-36 38 -68 86 -93 140 -63 135 -62 134 -58 112z"></path>
    <path d="M8705 9849 c-11 -6 -36 -22 -56 -36 -20 -13 -75 -34 -122 -47 -94 -25 -146 -55 -172 -98 l-16 -28 41 21 c37 19 50 21 140 15 92 -7 101 -6 153 18 29 14 64 26 76 26 43 0 91 -32 118 -77 22 -38 29 -44 56 -41 17 2 36 12 44 25 14 22 14 22 -20 16 -41 -6 -47 2 -67 92 -21 102 -41 125 -108 125 -26 0 -56 -6 -67 -11z"></path>
    <path d="M9355 9678 c-90 -32 -164 -114 -172 -192 -8 -71 10 -91 96 -106 88 -15 119 -8 161 35 19 19 39 35 45 35 6 0 24 -13 39 -29 25 -26 26 -33 20 -80 -4 -34 -3 -56 5 -65 16 -19 81 -29 111 -17 24 9 24 10 -7 10 -53 1 -68 50 -36 116 22 47 12 64 -58 90 -62 24 -71 43 -30 67 16 9 35 27 41 40 10 19 10 21 -1 11 -30 -29 -99 -3 -99 38 0 8 -7 25 -16 37 -17 24 -49 27 -99 10z"></path>
    <path d="M8763 9623 c-27 -10 -13 -52 33 -97 34 -35 60 -50 107 -64 72 -21 77 -31 51 -108 -16 -47 -16 -57 -3 -104 18 -68 38 -82 78 -53 25 19 31 20 42 7 17 -21 22 -11 8 20 -9 19 -17 25 -28 20 -67 -29 -81 26 -31 123 31 61 32 64 15 89 -17 27 -70 54 -105 54 -13 0 -44 24 -79 60 -57 59 -64 63 -88 53z"></path>
    <path d="M8385 9581 c-22 -10 -53 -33 -70 -51 l-30 -32 30 7 c133 30 245 71 245 91 0 13 -140 1 -175 -15z"></path>
    <path d="M8645 9551 c-17 -26 -46 -49 -82 -67 -30 -16 -63 -40 -73 -54 -54 -75 -27 -119 95 -154 44 -12 90 -26 103 -30 15 -5 5 10 -33 48 -69 69 -70 87 -10 192 48 84 50 90 35 99 -5 3 -21 -12 -35 -34z"></path>
    <path d="M9021 9573 c7 -10 22 -28 32 -40 24 -27 24 -81 3 -154 -9 -29 -16 -54 -16 -55 0 -1 13 -5 29 -9 39 -8 54 -28 49 -65 -3 -16 -1 -30 2 -30 27 0 101 92 82 103 -4 3 -26 10 -49 16 -33 9 -43 17 -45 34 -2 41 3 82 18 135 20 70 10 82 -63 82 -51 0 -54 -1 -42 -17z"></path>
    <path d="M8686 9465 c-10 -11 -16 -33 -16 -65 0 -44 4 -51 43 -85 23 -21 61 -61 84 -88 37 -44 42 -57 48 -118 8 -80 20 -94 96 -110 85 -18 109 -17 126 8 13 19 12 24 -17 57 -20 23 -47 40 -77 48 -63 18 -87 52 -87 125 -1 32 6 80 14 107 15 48 15 48 -13 70 -28 23 -96 50 -153 61 -22 4 -36 1 -48 -10z"></path>
    <path d="M9682 9388 c-7 -7 -12 -25 -12 -42 l0 -29 24 22 25 23 33 -25 c18 -13 48 -32 66 -41 17 -9 32 -23 32 -31 0 -14 -50 -33 -103 -37 -15 -2 -27 -7 -27 -13 1 -17 92 -8 154 15 55 21 136 81 136 101 0 5 -35 9 -79 9 -68 0 -86 4 -134 30 -60 32 -96 37 -115 18z"></path>
    <path d="M3596 9270 c4 -14 22 -61 40 -105 l34 -79 -56 54 c-63 61 -62 52 3 -27 39 -49 73 -126 61 -139 -4 -3 -48 10 -100 29 -136 51 -152 53 -72 10 114 -62 135 -82 130 -122 -3 -18 -22 -69 -42 -113 l-38 -79 -45 89 c-46 88 -131 213 -196 287 -33 37 -32 35 8 -25 61 -91 100 -162 141 -258 38 -88 46 -118 19 -67 -22 43 -104 175 -108 175 -2 0 12 -33 31 -74 31 -69 52 -141 69 -241 6 -37 1 -31 -63 67 -119 181 -258 311 -419 392 -90 45 -109 47 -28 3 94 -51 145 -89 221 -168 89 -93 158 -198 195 -300 16 -44 29 -83 29 -87 0 -4 -20 32 -44 81 -43 87 -130 209 -182 257 -22 21 -20 14 13 -35 45 -66 102 -176 134 -258 22 -54 53 -196 40 -181 -4 5 -33 47 -63 94 -55 84 -162 195 -298 310 l-65 54 82 -86 c146 -154 261 -331 287 -441 6 -26 5 -28 -16 -22 -145 42 -320 182 -730 584 -98 95 -178 170 -178 166 0 -18 100 -144 183 -232 51 -53 197 -188 325 -301 196 -171 372 -350 372 -376 0 -4 -44 27 -99 68 -126 96 -249 175 -331 215 -36 17 -57 25 -46 19 87 -59 194 -138 261 -194 85 -70 185 -162 185 -170 0 -2 -42 17 -92 42 -182 91 -294 176 -466 353 -79 82 -82 79 -17 -14 60 -85 163 -179 344 -313 175 -129 196 -147 131 -108 -331 196 -478 267 -585 280 -47 6 -45 5 25 -17 137 -44 219 -88 466 -253 l171 -115 6 -57 c6 -52 66 -285 101 -392 l15 -45 -5 50 c-19 196 -23 264 -23 370 0 144 9 178 28 114 15 -53 89 -214 95 -208 3 2 -4 29 -14 59 -10 30 -21 78 -24 105 l-6 50 16 -49 c21 -67 28 -52 9 25 -17 73 -19 122 -3 74 25 -75 91 -235 95 -231 3 3 -2 26 -11 53 -27 84 -55 216 -61 293 l-6 75 25 -80 c22 -73 55 -157 56 -145 0 3 -7 59 -15 125 -8 65 -15 137 -14 160 l1 40 15 -50 c8 -27 18 -61 22 -75 5 -14 7 31 5 105 l-4 130 20 -120 c23 -140 32 -166 25 -75 -10 143 -14 316 -5 265 4 -27 9 -70 11 -95 1 -25 5 8 10 73 13 189 39 293 130 507 47 112 85 237 76 246 -2 2 -12 -16 -21 -41 -14 -35 -23 -45 -40 -45 -30 0 -49 22 -97 112 -22 40 -37 62 -33 48z"></path>
    <path d="M9265 9273 c-43 -22 -75 -54 -75 -73 0 -27 53 -65 118 -85 23 -7 23 -7 7 25 -23 44 -17 74 16 78 20 2 41 -10 85 -48 59 -52 59 -52 117 -48 36 3 67 12 84 24 33 25 44 50 17 40 -54 -21 -69 -17 -169 43 -108 65 -145 74 -200 44z"></path>
    <path d="M3935 9123 c-4 -26 -22 -145 -41 -264 -39 -245 -43 -362 -17 -489 l18 -85 7 175 c3 96 11 214 17 262 13 98 33 439 27 446 -3 2 -7 -18 -11 -45z"></path>
    <path d="M9376 9119 c13 -79 -34 -100 -121 -54 -50 27 -75 22 -75 -16 0 -49 87 -66 165 -30 65 29 72 44 47 94 l-22 42 6 -36z"></path>
    <path d="M5690 9099 c-24 -16 -87 -45 -140 -65 -173 -65 -259 -112 -328 -180 l-64 -62 5 41 c4 23 20 77 37 120 16 43 30 81 30 83 0 3 -23 -28 -50 -69 -28 -41 -77 -100 -109 -130 -63 -57 -222 -179 -228 -174 -1 2 6 22 17 45 11 22 20 43 20 46 0 3 -22 -17 -50 -44 -69 -70 -89 -65 -39 10 37 55 77 141 93 200 4 14 -9 -4 -30 -40 -52 -92 -107 -159 -166 -203 -28 -20 -53 -36 -55 -34 -2 2 4 23 12 47 20 58 18 73 -5 29 -10 -19 -26 -42 -36 -50 -14 -12 -14 -8 3 26 20 38 55 145 49 145 -2 0 -17 -28 -34 -63 -29 -58 -76 -116 -86 -106 -3 2 3 33 13 69 10 36 21 85 24 110 5 41 4 40 -15 -19 -11 -35 -27 -75 -35 -88 -18 -27 -132 -118 -139 -110 -2 2 2 30 11 63 8 32 15 81 14 109 l-1 50 -14 -70 c-14 -72 -54 -143 -113 -199 l-30 -28 -9 38 c-6 22 -13 66 -17 99 l-7 60 -23 -70 c-30 -92 -31 -56 -1 75 13 58 23 106 21 108 -1 1 -19 -41 -39 -95 -54 -144 -55 -145 -50 -83 15 220 13 240 -15 155 -30 -91 -73 -185 -83 -179 -6 4 -7 31 -3 70 8 74 -5 84 -29 23 -42 -105 -58 -280 -37 -409 l7 -45 6 40 c4 22 10 70 14 108 4 37 10 67 14 67 4 0 10 -35 14 -77 10 -125 23 -153 23 -53 1 47 7 98 14 115 13 30 13 29 18 -32 4 -34 9 -64 12 -68 4 -3 12 15 18 40 13 53 26 52 33 -3 3 -21 15 -58 26 -83 l20 -44 1 43 c1 23 8 59 17 80 l15 37 15 -34 c13 -32 85 -133 90 -128 1 1 -4 27 -12 57 -23 89 -14 101 14 18 15 -42 30 -79 33 -82 3 -3 4 18 1 47 -2 28 1 63 6 77 8 23 11 19 22 -35 6 -33 17 -82 24 -110 l12 -50 17 49 c14 42 73 146 82 146 2 0 -5 -24 -15 -52 -16 -46 -41 -178 -34 -178 1 0 21 33 44 73 42 73 111 169 117 163 2 -1 -3 -16 -11 -32 -8 -16 -17 -47 -20 -69 l-6 -40 17 44 c16 40 122 167 109 131 -2 -8 -25 -64 -51 -124 -25 -60 -44 -111 -42 -113 2 -2 19 25 37 59 37 71 152 249 157 244 2 -2 -10 -45 -27 -96 -17 -51 -28 -95 -25 -98 2 -3 8 4 11 14 10 25 92 154 99 154 3 0 1 -8 -4 -17 -20 -38 -100 -223 -96 -223 2 0 49 66 104 148 55 81 120 170 146 197 l46 50 -50 -75 c-28 -42 -62 -102 -76 -135 l-26 -60 28 31 c16 17 90 101 167 188 168 191 249 265 364 333 162 96 289 183 267 182 -5 0 -30 -14 -55 -30z"></path>
    <path d="M8684 9062 c-41 -30 -66 -62 -78 -99 -6 -17 2 -32 35 -68 l42 -45 -49 -21 c-64 -28 -113 -65 -124 -94 -6 -15 -3 -42 11 -85 10 -34 19 -75 19 -91 0 -39 14 -36 41 9 12 20 24 38 25 40 1 2 21 -6 44 -18 40 -21 41 -21 31 -1 -13 24 -14 71 -2 90 7 11 20 12 72 2 42 -8 74 -8 94 -2 l30 9 -27 1 c-59 2 -90 78 -48 116 19 18 23 18 93 0 58 -14 80 -15 112 -6 57 15 102 46 125 83 23 39 25 67 6 93 -12 17 -15 16 -33 -27 -19 -42 -55 -76 -95 -91 -23 -8 -23 1 -1 25 25 28 6 39 -82 49 -119 13 -118 13 -147 109 -16 56 -39 62 -94 22z"></path>
    <path d="M3556 9071 c-3 -5 3 -11 14 -14 21 -5 32 1 24 14 -7 12 -31 11 -38 0z"></path>
    <path d="M3238 8988 c-41 -11 -48 -22 -20 -33 39 -17 104 8 88 34 -8 13 -17 13 -68 -1z"></path>
    <path d="M1766 8964 c-117 -21 -274 -76 -421 -148 -123 -61 -272 -154 -555 -351 -69 -48 -224 -145 -345 -217 -333 -198 -394 -250 -429 -367 -29 -98 -18 -182 31 -234 118 -125 673 -455 1005 -596 300 -127 717 -242 1108 -305 267 -43 437 -53 661 -40 l105 7 29 40 c17 22 33 45 37 51 4 8 -75 11 -265 11 -293 0 -351 6 -652 67 -815 164 -1688 507 -1953 768 -83 81 -101 135 -76 221 28 93 99 149 499 394 116 71 302 188 415 260 256 164 378 236 483 285 164 75 343 120 547 135 77 6 319 -8 380 -22 22 -5 23 -4 10 10 -38 38 -455 60 -614 31z"></path>
    <path d="M2957 8926 c-33 -6 -55 -14 -51 -18 9 -9 66 -9 108 1 23 5 26 8 15 17 -10 8 -31 8 -72 0z"></path>
    <path d="M2579 8907 c11 -11 221 -22 255 -13 57 14 19 21 -119 21 -79 0 -140 -4 -136 -8z"></path>
    <path d="M10045 8888 c65 -43 124 -127 204 -288 72 -146 111 -252 135 -370 22 -110 39 -315 32 -374 -9 -62 -42 -122 -88 -156 -70 -51 -122 -107 -141 -150 -17 -39 -21 -78 -28 -280 -10 -274 -30 -477 -64 -665 -18 -94 -25 -170 -25 -252 0 -140 -10 -183 -51 -217 -55 -47 -130 -26 -208 59 -58 63 -97 150 -126 286 -40 183 -55 235 -90 307 -71 148 -143 210 -560 491 -402 270 -393 266 -219 94 173 -171 319 -339 401 -460 54 -79 57 -88 63 -161 6 -66 8 -72 15 -44 19 77 32 30 27 -93 -2 -37 0 -46 7 -35 6 8 11 23 11 33 0 10 5 15 10 12 6 -3 10 -22 10 -41 0 -53 26 -104 80 -157 34 -33 54 -63 64 -95 14 -47 22 -44 28 8 3 21 7 17 30 -30 16 -30 58 -89 94 -130 36 -41 92 -109 123 -150 89 -119 164 -139 238 -65 30 30 33 31 34 12 1 -20 1 -20 9 3 5 14 11 47 15 75 l7 49 19 -24 c19 -25 19 -23 18 245 l-2 270 56 291 c31 160 64 308 72 328 8 20 51 75 96 123 89 98 143 193 154 273 6 44 10 51 26 47 27 -7 24 9 -15 103 -33 77 -34 81 -13 74 12 -3 26 -10 31 -15 38 -35 16 26 -32 89 -27 35 -19 39 35 17 20 -8 38 -14 40 -12 4 5 -62 64 -93 85 -16 11 -11 12 38 9 31 -2 55 0 53 4 -9 13 -75 40 -85 34 -6 -3 -10 -2 -10 3 0 14 26 22 73 23 l42 0 -52 20 c-54 21 -97 66 -91 94 2 12 20 5 78 -30 l75 -45 -82 79 c-73 70 -83 83 -83 115 0 25 6 39 22 50 25 18 25 18 -27 37 -29 11 -41 21 -43 38 -7 46 40 53 111 17 26 -13 47 -20 47 -16 0 18 -72 69 -122 88 -29 10 -60 22 -68 25 -33 12 59 6 110 -8 30 -8 60 -15 65 -15 25 0 -63 45 -127 64 -80 25 -105 48 -74 72 11 8 31 14 45 15 l26 0 -25 10 c-14 6 -47 15 -73 21 -53 11 -100 45 -123 90 -19 36 -13 55 18 60 15 3 -10 15 -77 36 -54 18 -104 32 -109 32 -5 0 12 -14 39 -32z"></path>
    <path d="M5435 8807 c-88 -53 -236 -200 -345 -342 -47 -60 -130 -157 -185 -214 l-100 -104 65 34 c91 48 173 129 297 293 115 152 204 250 296 327 32 27 54 49 50 48 -4 0 -39 -19 -78 -42z"></path>
    <path d="M1835 8793 c-61 -9 -189 -45 -263 -74 -128 -51 -300 -143 -570 -306 -141 -85 -331 -198 -422 -251 -361 -209 -450 -282 -450 -370 0 -130 358 -352 876 -543 197 -72 426 -150 431 -145 2 2 -28 23 -68 46 l-71 44 28 20 c33 23 110 103 125 128 5 10 -26 -5 -69 -33 -44 -28 -96 -52 -118 -56 l-39 -6 53 55 c55 57 67 78 30 54 -32 -21 -134 -46 -184 -46 -56 0 -77 9 -160 67 l-69 48 35 3 c42 3 180 32 197 41 6 3 -32 4 -84 2 -53 -1 -130 0 -172 5 l-76 8 85 12 c80 11 241 42 246 47 1 1 -64 0 -145 -1 -147 -4 -278 11 -346 38 -30 12 -29 12 63 44 51 18 96 37 100 41 4 5 -2 5 -13 1 -26 -10 -164 -35 -190 -35 -11 0 22 11 74 24 52 14 96 27 99 30 8 8 -7 6 -73 -10 -95 -23 -204 -17 -287 16 -49 20 -30 28 70 31 l97 3 -110 18 c-60 10 -123 21 -140 24 l-30 6 39 13 c22 8 78 17 125 21 98 8 88 12 -79 35 l-95 13 60 6 c33 4 101 8 150 9 l90 2 -108 19 c-60 10 -116 24 -125 30 -15 9 -14 10 3 4 11 -4 63 -9 115 -11 l95 -5 -60 21 c-33 11 -71 29 -85 41 l-25 20 30 -6 c76 -14 187 -24 260 -24 l80 0 -60 18 c-33 10 -72 23 -86 29 -28 11 -89 60 -89 71 0 4 30 4 68 0 111 -13 123 -10 64 12 -29 12 -52 23 -50 25 3 2 42 -3 89 -10 46 -8 107 -17 134 -20 l50 -6 -60 23 c-61 23 -119 57 -98 57 6 0 42 -6 80 -14 70 -15 293 -39 299 -33 2 2 -43 13 -99 26 -87 19 -223 68 -215 77 2 1 40 -1 85 -5 45 -3 79 -3 77 1 -3 4 -13 8 -22 8 -9 1 -28 7 -42 16 l-25 15 30 -5 c17 -3 55 -7 85 -10 58 -6 57 -5 -34 34 -27 11 -47 23 -44 25 3 3 36 -1 74 -9 38 -8 94 -17 124 -20 l55 -7 -59 25 c-33 14 -66 32 -74 40 -10 10 5 7 44 -9 32 -13 96 -30 142 -38 86 -15 97 -9 27 13 -63 20 -163 71 -182 93 -18 20 -17 20 7 13 14 -3 48 -9 75 -13 l50 -6 -25 22 c-20 18 -21 21 -6 17 10 -4 53 -9 95 -11 76 -5 76 -5 35 9 -56 19 -84 35 -84 47 0 7 10 9 24 5 39 -10 164 -24 261 -30 l90 -6 -85 26 c-78 23 -162 63 -174 82 -3 5 23 3 57 -5 34 -7 80 -13 102 -13 l39 0 -44 23 c-62 31 -64 50 -3 28 26 -10 75 -21 108 -25 63 -6 63 -5 -28 32 -20 8 -43 22 -49 30 -9 10 1 8 29 -7 45 -22 144 -51 178 -51 11 0 -7 13 -40 29 -55 26 -121 78 -111 88 2 2 41 -1 87 -7 46 -5 97 -10 114 -9 26 0 24 2 -19 15 -56 18 -56 30 0 16 22 -6 66 -13 99 -16 l60 -5 -65 20 c-36 12 -69 26 -75 31 -7 8 -4 9 10 3 11 -4 85 -9 165 -11 l145 -4 -73 19 c-150 38 -84 38 108 0 130 -26 193 -48 186 -64 -3 -8 -8 -30 -12 -51 l-7 -37 32 22 c18 13 51 25 74 28 l42 4 -30 -14 c-16 -8 -38 -23 -48 -34 -17 -19 -14 -19 30 3 70 34 85 29 28 -10 -28 -19 -66 -48 -85 -65 l-35 -31 61 30 c34 17 95 39 137 49 41 11 85 26 96 33 18 11 24 9 54 -20 18 -17 39 -32 46 -32 7 0 10 -4 6 -9 -10 -17 30 -31 69 -24 20 3 35 9 34 13 -2 4 -33 35 -70 68 -45 41 -81 65 -110 72 -24 7 -128 36 -233 66 -270 76 -405 96 -540 77z"></path>
    <path d="M3796 8653 c-36 -154 -46 -226 -45 -328 1 -139 14 -158 23 -35 10 147 24 270 41 374 9 49 14 91 11 93 -2 2 -15 -44 -30 -104z"></path>
    <path d="M2973 8532 c23 -22 69 -57 102 -79 34 -23 67 -48 75 -58 20 -25 90 -58 90 -43 0 26 -83 150 -113 168 -29 18 -146 50 -181 50 -9 0 2 -16 27 -38z"></path>
    <path d="M2475 8524 l-50 -24 50 6 c68 8 76 11 69 29 -8 19 -8 19 -69 -11z"></path>
    <path d="M2455 8480 c-34 -6 -30 -7 32 -9 39 0 75 4 78 9 7 11 -47 11 -110 0z"></path>
    <path d="M8290 8443 c-61 -11 -103 -25 -92 -32 8 -5 -7 -16 -39 -31 -28 -13 -60 -38 -72 -55 l-21 -30 27 24 c15 14 29 22 32 19 7 -6 -51 -67 -80 -85 -17 -11 -16 -11 14 -6 44 8 35 -10 -20 -37 -46 -24 -49 -29 -13 -22 40 7 26 -18 -26 -45 -56 -30 -60 -35 -20 -23 19 5 35 8 37 6 6 -5 -20 -23 -52 -35 -29 -11 -29 -11 10 -5 l40 6 -31 -34 c-34 -35 -59 -77 -51 -84 2 -3 14 12 26 32 25 42 38 41 17 -2 -8 -16 -17 -40 -20 -54 -3 -14 3 -7 13 15 l20 40 -5 -65 c-3 -50 -2 -57 5 -32 5 18 11 36 14 39 13 12 19 -52 9 -100 -13 -67 -7 -72 12 -11 15 47 16 48 13 12 -2 -28 0 -35 9 -27 9 8 18 -1 32 -33 10 -24 28 -51 38 -60 18 -16 19 -15 16 35 l-3 52 20 -25 c11 -14 43 -69 71 -123 l50 -98 0 52 0 53 28 -54 c15 -30 38 -61 52 -69 23 -15 24 -15 16 4 -5 11 -11 31 -13 45 -4 20 0 17 19 -14 13 -21 34 -46 48 -55 l24 -16 -17 25 c-25 36 -21 47 8 16 21 -23 31 -26 82 -25 41 1 51 3 33 8 -22 7 -20 8 18 14 23 4 42 10 42 12 0 3 -19 29 -41 58 -48 59 -71 108 -89 187 -6 30 -31 96 -54 145 -38 84 -41 96 -41 178 0 48 -1 87 -2 87 -1 0 -9 -21 -17 -47 -13 -42 -15 -44 -15 -18 -1 17 8 48 19 70 25 50 25 52 -2 29 l-22 -19 15 25 c9 14 24 38 34 53 l18 28 -29 -7 c-46 -11 -140 -61 -179 -95 -75 -66 -104 -186 -71 -287 20 -60 87 -139 160 -188 28 -19 44 -34 36 -34 -9 0 -26 7 -38 16 -47 32 -30 7 19 -30 56 -42 106 -65 141 -67 22 -1 22 -1 -2 -8 -22 -7 -20 -8 18 -14 55 -9 54 -27 -2 -27 -33 0 -52 7 -75 26 -17 14 -31 24 -31 21 0 -3 -15 9 -34 26 -18 18 -49 42 -69 54 l-36 21 9 -24 c17 -45 1 -24 -36 46 -38 74 -73 110 -106 110 -16 0 -17 3 -8 20 9 16 8 20 -5 20 -18 0 -19 13 -5 41 12 22 11 23 -24 9 l-26 -10 15 36 c8 20 15 61 15 91 0 35 7 69 19 92 11 20 29 56 40 81 48 105 127 161 241 169 53 4 59 6 35 12 -34 8 -59 8 -95 2z"></path>
    <path d="M2402 8370 c-284 -97 -422 -157 -747 -320 -170 -85 -344 -171 -385 -191 -93 -43 -98 -63 -17 -67 79 -4 178 16 482 97 371 99 446 114 580 109 96 -3 118 -8 170 -33 73 -35 162 -122 195 -190 32 -66 33 -168 2 -238 -49 -109 -187 -274 -305 -363 -127 -96 -244 -131 -477 -141 -135 -6 -135 -7 -85 -20 86 -22 335 -71 445 -87 198 -29 370 -39 545 -32 248 9 236 6 305 90 108 130 190 293 190 376 0 71 -36 66 -145 -21 -42 -33 -79 -59 -81 -57 -8 8 93 123 133 153 23 16 42 33 42 36 1 10 -122 -10 -169 -27 -25 -9 -67 -28 -95 -41 -43 -21 -46 -21 -25 -4 22 18 222 121 290 150 20 8 14 9 -30 5 -51 -5 -54 -4 -36 10 11 9 29 16 40 16 15 0 17 3 8 12 -9 9 -31 7 -94 -5 -45 -9 -83 -15 -85 -13 -3 2 75 33 152 61 l20 7 -20 8 c-11 5 -31 9 -45 9 -24 1 -24 2 9 22 l34 20 -7 75 c-3 41 -10 83 -15 92 -10 19 -237 166 -387 251 -107 61 -233 108 -394 147 l-115 28 70 14 c94 18 251 10 333 -16 61 -20 63 -20 47 -1 -10 10 -50 45 -90 78 l-72 60 -171 -59z"></path>
    <path d="M4103 8310 c-13 -36 -33 -160 -32 -195 1 -30 37 51 44 100 4 22 5 60 3 85 l-3 45 -12 -35z"></path>
    <path d="M3815 8175 c3 -86 11 -155 24 -203 19 -74 39 -113 28 -57 -3 17 -13 82 -22 145 -34 253 -34 256 -30 115z"></path>
    <path d="M4642 8180 c-51 -61 -89 -110 -83 -110 21 0 128 111 155 160 15 28 26 53 24 55 -2 3 -46 -45 -96 -105z"></path>
    <path d="M4518 8193 c-64 -79 -115 -151 -147 -208 -21 -36 -17 -33 44 28 68 71 122 146 149 210 8 20 13 37 12 37 -2 0 -28 -30 -58 -67z"></path>
    <path d="M4290 8188 c-6 -24 -20 -72 -30 -108 -11 -35 -17 -66 -15 -68 11 -11 56 105 62 158 7 70 -1 78 -17 18z"></path>
    <path d="M4216 8112 c-10 -31 -36 -93 -58 -137 -33 -69 -35 -76 -13 -50 39 45 63 97 81 171 19 83 13 92 -10 16z"></path>
    <path d="M7490 7999 c-127 -11 -335 -49 -269 -49 8 0 68 7 134 15 66 9 190 18 275 21 85 4 162 10 170 15 18 10 -192 9 -310 -2z"></path>
    <path d="M6421 7917 c-30 -62 -44 -149 -39 -245 5 -91 -6 -97 -21 -12 l-9 55 -1 -46 c-1 -61 -11 -67 -33 -22 -10 21 -16 29 -13 18 3 -10 9 -40 12 -65 l6 -45 -43 50 c-23 28 -45 52 -47 55 -3 3 -2 -16 2 -42 4 -27 5 -48 1 -48 -3 0 -12 21 -21 48 l-15 47 5 -60 c3 -33 8 -71 11 -85 10 -37 -12 -13 -42 46 l-25 49 6 -45 c4 -25 17 -66 30 -92 13 -27 20 -48 14 -48 -5 0 -35 9 -66 20 -32 11 -59 20 -61 20 -2 0 16 -16 40 -36 65 -54 66 -56 24 -39 -45 19 -74 37 -131 79 l-40 30 45 -48 c25 -26 76 -63 115 -83 l70 -35 -80 6 c-44 3 -91 9 -105 11 -19 4 -16 1 9 -11 19 -8 56 -18 83 -21 30 -4 46 -9 40 -15 -17 -17 -162 10 -231 42 -35 17 -66 28 -68 26 -3 -2 13 -16 34 -30 59 -41 182 -76 265 -76 39 0 69 -2 66 -5 -13 -14 -150 -46 -218 -52 -73 -7 -74 -7 -35 -15 38 -9 156 2 201 18 35 13 9 -4 -71 -46 -85 -44 -119 -68 -71 -50 79 30 230 116 282 162 105 91 257 180 363 212 68 20 178 20 341 1 69 -8 148 -14 175 -13 l50 1 -45 7 c-43 7 -44 7 -10 9 19 1 44 6 55 11 13 5 1 6 -32 3 -63 -7 -114 3 -92 18 10 8 3 9 -24 4 -52 -8 -225 -7 -240 2 -16 10 24 21 81 22 24 1 42 6 42 12 0 12 -139 7 -190 -6 -21 -5 -22 -5 -8 5 10 6 50 19 90 30 40 10 63 19 51 19 -50 2 -125 -23 -198 -65 -43 -24 -92 -48 -109 -52 -66 -18 -128 23 -167 112 -30 67 -30 183 -1 276 12 35 20 66 18 68 -2 1 -13 -17 -25 -41z"></path>
    <path d="M7362 7849 c-68 -4 -127 -10 -130 -13 -3 -3 62 -6 145 -6 279 0 445 -27 638 -105 60 -24 111 -42 113 -41 5 6 -90 64 -141 86 -79 35 -228 68 -354 79 -65 6 -125 10 -133 9 -8 0 -71 -4 -138 -9z"></path>
    <path d="M7335 7799 c223 -40 418 -90 513 -130 32 -14 42 -16 33 -5 -29 35 -258 105 -426 131 -112 17 -210 20 -120 4z"></path>
    <path d="M7591 7716 c2 -2 29 -14 59 -26 80 -31 161 -83 225 -143 30 -29 55 -51 55 -48 0 3 -11 21 -25 42 -42 59 -139 121 -254 160 -55 19 -68 22 -60 15z"></path>
    <path d="M8176 7655 c4 -22 12 -57 19 -78 l13 -38 -49 46 c-26 25 -53 45 -59 45 -14 0 -13 -58 4 -113 7 -25 31 -74 52 -109 30 -48 43 -85 56 -153 24 -130 21 -142 -11 -45 -39 121 -88 211 -170 318 -67 85 -102 122 -69 70 107 -168 142 -251 173 -401 31 -154 31 -190 0 -77 -45 163 -91 265 -173 385 -39 57 -38 54 17 -73 29 -66 41 -106 41 -140 l-1 -47 -28 66 c-15 36 -42 86 -59 110 -33 50 -134 159 -108 119 47 -73 92 -161 119 -229 27 -67 31 -90 33 -191 2 -114 2 -114 -6 -35 -11 100 -28 148 -80 226 -46 67 -63 73 -31 11 32 -62 60 -178 66 -267 5 -83 3 -81 -29 30 l-14 50 -2 -60 -1 -60 -18 40 -18 40 3 -115 c3 -115 3 -115 -9 -55 -15 67 -27 95 -53 116 -16 13 -17 12 -10 -6 22 -57 63 -325 47 -310 -2 3 -13 38 -23 77 -24 95 -38 108 -38 37 0 -73 31 -191 70 -270 29 -60 30 -62 6 -34 -44 53 -86 148 -103 235 l-17 84 -28 -59 c-39 -86 -36 -119 19 -228 26 -50 50 -96 52 -102 5 -15 -76 94 -111 148 -29 46 -31 47 -49 31 -11 -9 -19 -30 -19 -46 0 -41 65 -166 113 -217 38 -40 39 -42 10 -22 -35 23 -73 69 -123 146 -28 43 -31 46 -26 20 4 -16 18 -47 32 -67 13 -21 24 -40 24 -44 0 -3 -41 36 -91 87 -50 52 -87 87 -83 79 17 -34 101 -139 163 -204 l66 -69 -49 34 c-42 29 -103 92 -186 189 l-21 25 6 -35 c4 -19 24 -71 46 -115 l39 -80 -34 38 c-19 21 -44 57 -55 80 -24 51 -29 22 -6 -42 18 -51 12 -53 -15 -3 -20 35 -21 36 -15 7 9 -43 65 -133 98 -157 16 -11 26 -22 23 -25 -3 -3 -25 9 -49 26 -41 30 -78 73 -141 166 -21 30 -26 34 -21 15 24 -84 87 -161 181 -222 72 -46 82 -58 26 -29 -53 27 -126 83 -189 144 l-53 51 0 -29 c0 -17 12 -57 25 -90 14 -33 25 -61 25 -63 0 -14 -64 47 -89 85 -27 41 -31 43 -31 22 0 -29 43 -100 97 -160 65 -72 2 -26 -75 55 -40 42 -72 71 -72 65 0 -17 21 -52 48 -81 39 -42 9 -33 -37 10 -31 29 -42 35 -46 24 -6 -16 11 -79 28 -100 5 -7 7 -15 4 -18 -5 -6 -14 8 -48 76 -10 19 -18 29 -19 22 0 -21 29 -84 56 -119 42 -55 13 -37 -69 42 -42 41 -77 72 -77 70 0 -2 10 -30 21 -62 14 -37 37 -72 63 -97 l41 -39 -44 24 c-27 14 -56 42 -73 68 -15 25 -28 40 -28 34 0 -24 20 -62 52 -98 l33 -38 -31 16 c-17 9 -52 32 -77 51 l-46 35 -10 -35 c-5 -19 -7 -52 -5 -72 5 -37 5 -37 -10 -12 -9 14 -21 43 -27 65 l-12 40 -13 -70 c-9 -46 -21 -77 -36 -92 -25 -25 -99 -43 -182 -44 -38 0 -46 -3 -31 -9 38 -16 194 -10 372 15 456 63 585 60 810 -20 51 -18 91 -29 87 -24 -9 15 -82 50 -169 80 -68 25 -73 28 -35 23 25 -4 74 -17 110 -30 l65 -23 -30 25 c-16 14 -65 48 -107 77 -42 28 -76 53 -74 55 9 9 131 -60 206 -117 l85 -65 -45 55 c-25 30 -79 87 -120 128 -41 41 -68 71 -60 66 24 -13 102 -75 142 -114 21 -19 40 -33 42 -30 3 3 -13 28 -35 57 -25 34 -32 49 -20 43 21 -12 95 -119 130 -188 12 -24 23 -43 25 -43 8 0 -73 296 -98 358 -13 34 -22 62 -20 62 3 0 31 -55 63 -122 l59 -123 1 103 c1 99 18 212 44 286 11 32 12 24 12 -77 0 -95 4 -119 23 -157 l22 -45 -8 40 c-9 53 -5 227 6 290 9 44 10 35 12 -75 2 -139 8 -132 34 36 16 105 42 187 58 182 5 -2 19 -33 32 -68 24 -69 75 -174 81 -168 2 2 -3 30 -11 63 -8 33 -16 112 -19 175 l-5 115 18 -85 18 -85 7 97 c8 111 46 267 81 337 30 58 90 113 119 109 12 -2 29 -17 39 -34 23 -39 39 -192 31 -294 -6 -76 -5 -78 20 -95 39 -25 78 -12 133 45 49 50 68 61 141 80 31 8 52 23 79 55 54 66 84 59 103 -24 11 -51 34 -70 83 -71 39 0 58 19 58 58 0 11 10 32 22 47 21 27 21 27 2 63 -24 45 -123 160 -288 335 l-130 138 -19 -40 c-16 -33 -97 -115 -97 -98 0 3 15 28 34 56 44 65 54 106 30 132 -9 10 -23 19 -30 19 -16 0 -47 -40 -75 -96 -11 -25 -23 -44 -24 -42 -10 9 19 108 40 139 l24 37 -27 11 c-36 15 -73 17 -152 7 -60 -7 -69 -5 -103 18 -21 14 -42 26 -48 26 -11 0 15 -65 38 -95 9 -11 -12 9 -47 44 -41 43 -75 89 -97 135 -30 64 -33 67 -27 31z"></path>
    <path d="M6703 7471 c-12 -6 -34 -28 -49 -51 -15 -22 -42 -49 -60 -61 -54 -33 -39 -33 23 0 62 34 84 36 31 3 -48 -30 -138 -63 -138 -52 0 6 22 24 50 41 27 17 64 49 82 71 31 39 31 40 7 34 -61 -18 -158 -74 -247 -144 -133 -103 -189 -138 -317 -194 -130 -58 -164 -82 -210 -151 -34 -51 -45 -57 -24 -14 10 22 10 22 -7 2 -9 -11 -22 -35 -30 -52 -17 -39 -29 -44 -20 -8 9 34 0 31 -24 -7 -19 -32 -20 -32 -21 -8 0 19 -9 8 -35 -45 l-35 -70 5 43 c5 53 -8 46 -25 -14 -12 -40 -15 -43 -20 -22 -4 14 -8 -4 -9 -47 l-2 -70 -13 50 c-12 47 -13 49 -22 25 -6 -14 -16 -57 -22 -95 -17 -100 -8 -120 66 -141 32 -9 80 -27 107 -40 27 -13 51 -22 53 -20 6 6 -78 57 -116 71 l-36 14 31 0 c17 1 53 -6 79 -14 61 -18 68 -14 15 10 -22 10 -40 21 -40 25 0 11 30 34 105 78 74 43 129 91 183 157 42 52 41 37 -4 -44 -23 -43 -29 -59 -16 -46 11 11 44 63 72 115 28 52 60 105 72 117 37 40 119 63 211 61 l82 -1 -65 -6 -65 -6 55 -8 c30 -5 80 -14 110 -22 l55 -13 -32 -12 c-18 -7 -33 -15 -33 -20 0 -9 35 -20 65 -20 11 0 47 -13 79 -29 62 -30 99 -29 127 5 18 22 26 17 21 -16 -6 -39 13 -60 52 -60 40 1 72 19 97 56 l19 29 0 -37 c0 -29 6 -41 26 -55 26 -16 27 -16 45 6 15 18 19 19 19 7 0 -18 34 -56 50 -56 6 0 8 11 3 28 l-6 27 25 -30 c35 -41 44 -27 18 27 l-22 43 31 -33 c38 -41 55 -37 59 11 3 35 22 54 22 22 0 -8 9 -19 19 -25 23 -12 37 3 32 33 -2 18 -1 18 26 1 l28 -18 -25 29 -25 29 27 -17 c49 -31 71 -19 47 24 -9 19 -9 19 10 10 11 -6 32 -11 47 -11 27 0 27 1 8 15 -40 30 28 6 81 -29 l30 -20 -25 29 c-14 15 -38 36 -55 47 l-30 19 45 -4 c25 -2 54 -7 65 -11 13 -5 9 2 -13 22 -50 44 -18 58 52 22 l39 -19 -23 24 c-12 13 -36 29 -52 36 -30 12 -30 13 -9 21 25 9 60 3 106 -19 l30 -14 -33 31 c-53 50 -24 67 51 29 34 -18 39 -19 28 -5 -8 10 -31 26 -50 36 l-36 18 37 7 c28 5 48 2 78 -13 52 -26 51 -14 -2 22 -40 26 -41 28 -14 23 25 -4 20 4 -50 74 -43 43 -80 77 -82 75 -2 -2 11 -24 29 -50 36 -51 33 -72 -6 -36 -27 25 -73 37 -54 14 20 -24 -8 -23 -31 1 -13 13 -26 22 -30 20 -7 -5 -50 58 -50 73 0 3 17 -10 37 -29 l37 -34 -29 40 -28 40 41 -40 c42 -39 57 -40 25 -1 -10 12 6 -1 35 -29 29 -27 52 -46 52 -41 0 11 -54 81 -104 135 -54 58 -31 44 84 -53 l95 -80 -50 59 c-27 33 -43 54 -35 48 18 -16 33 -17 24 -1 -4 7 9 2 30 -10 21 -13 40 -21 42 -19 5 4 -96 92 -143 125 -30 21 -44 23 -255 26 -123 2 -250 9 -283 15 -87 16 -257 23 -282 12z m0 -78 c-8 -21 -19 -43 -24 -49 -5 -6 -7 -18 -4 -25 6 -15 -80 -107 -90 -97 -3 3 17 36 45 72 45 61 55 78 48 90 -3 4 32 46 38 46 2 0 -4 -17 -13 -37z m54 -2 c-3 -22 -16 -65 -31 -96 -14 -30 -21 -53 -16 -50 6 4 10 -3 10 -15 0 -54 53 -103 94 -87 16 6 46 120 36 137 -5 8 -14 -5 -25 -34 -10 -25 -22 -46 -26 -46 -11 0 -11 2 2 56 8 32 14 41 20 32 10 -15 11 0 1 24 -5 13 -15 1 -41 -47 -32 -59 -51 -80 -51 -56 0 17 29 76 30 61 1 -8 22 26 46 75 47 93 46 94 29 -15 -3 -14 2 -7 9 15 l14 40 4 -30 c4 -25 6 -22 12 23 5 28 12 52 16 52 10 0 -8 -118 -36 -225 l-5 -20 13 20 c6 11 20 47 29 80 20 68 25 52 8 -25 -18 -84 -3 -67 22 26 l24 86 7 -48 c3 -27 7 -71 8 -99 l2 -50 14 70 c7 39 14 86 15 105 2 34 2 33 9 -10 7 -43 7 -43 9 -10 3 63 20 10 28 -91 l7 -94 9 68 c5 37 13 67 18 67 5 0 9 -26 10 -57 1 -75 16 -35 19 52 2 50 4 55 10 30 6 -24 8 -19 9 30 l2 60 30 -80 c17 -44 35 -89 39 -100 8 -18 6 35 -4 138 -5 44 10 40 19 -6 13 -63 16 -71 26 -56 6 10 9 5 9 -17 0 -17 -7 -37 -15 -44 -13 -11 -22 -50 -11 -50 2 0 11 -3 20 -6 12 -5 14 1 10 33 -4 29 -3 35 5 23 9 -12 11 -10 7 10 -3 14 -8 48 -11 75 l-6 50 39 -80 c20 -44 43 -91 49 -105 16 -35 16 -12 -2 45 -8 27 -13 51 -11 52 2 2 20 -21 41 -52 21 -30 40 -55 42 -55 7 0 -39 85 -63 117 -14 18 -27 46 -30 63 -10 47 16 30 81 -55 64 -84 89 -109 79 -79 -3 10 3 6 14 -10 28 -40 16 -54 -18 -21 -28 27 -28 27 -35 5 -4 -12 -4 -33 0 -47 4 -18 2 -24 -7 -21 -7 3 -25 -12 -40 -33 -32 -45 -108 -84 -203 -104 -128 -27 -235 -13 -338 42 -45 25 -127 105 -127 124 0 4 -5 20 -11 36 -7 15 -12 54 -11 86 0 49 5 65 33 107 19 27 36 50 38 50 2 0 1 -18 -2 -39z m28 -62 c-10 -29 -20 -46 -24 -40 -5 7 -12 2 -20 -15 -6 -15 -14 -25 -16 -22 -3 2 12 39 33 82 39 82 55 79 27 -5z"></path>
    <path d="M6649 7303 c-13 -16 -12 -17 4 -4 16 13 21 21 13 21 -2 0 -10 -8 -17 -17z"></path>
    <path d="M7316 7344 c3 -11 16 -34 29 -50 19 -22 24 -25 25 -12 0 10 -13 32 -30 50 -23 26 -28 29 -24 12z"></path>
    <path d="M7130 7263 c0 -40 -4 -63 -12 -66 -7 -3 4 -6 25 -6 42 -1 42 -1 21 65 -25 74 -34 75 -34 7z"></path>
    <path d="M6918 7232 c-9 -31 -16 -58 -14 -59 1 -1 12 0 24 4 18 4 22 12 21 42 -1 69 -13 74 -31 13z"></path>
    <path d="M7002 7254 c-8 -21 -16 -45 -18 -51 -4 -9 3 -13 20 -13 22 0 26 4 25 28 -1 15 -4 38 -8 51 -6 23 -7 22 -19 -15z"></path>
    <path d="M7264 7258 c3 -13 6 -38 6 -55 0 -26 4 -33 20 -33 25 0 25 6 0 64 -22 48 -37 62 -26 24z"></path>
    <path d="M7600 7306 c0 -2 8 -10 18 -17 15 -13 16 -12 3 4 -13 16 -21 21 -21 13z"></path>
    <path d="M5515 6556 c8 -61 21 -82 61 -101 48 -22 64 -18 25 7 -22 14 -44 43 -63 82 l-29 61 6 -49z"></path>
    <path d="M2603 6208 c-127 -200 -266 -421 -310 -493 -44 -71 -116 -187 -160 -256 -44 -69 -122 -199 -174 -290 -107 -188 -145 -250 -279 -444 -112 -162 -267 -417 -298 -491 -12 -29 -30 -105 -41 -171 -14 -86 -32 -152 -65 -237 -65 -163 -71 -203 -51 -337 33 -228 90 -399 161 -486 69 -84 138 -47 249 133 100 161 174 243 265 289 25 12 106 36 181 53 137 30 241 72 288 115 32 29 61 94 61 137 0 99 -105 179 -183 139 -12 -6 -46 -34 -74 -62 -41 -40 -53 -47 -53 -32 0 16 -5 14 -34 -14 l-34 -33 -9 28 -9 27 -32 -39 c-17 -21 -41 -50 -51 -64 -17 -22 -19 -22 -16 -5 19 101 11 108 -47 43 l-38 -43 6 40 c4 22 11 48 16 59 10 18 9 18 -13 2 -13 -9 -29 -26 -37 -38 -12 -21 -13 -19 -8 22 l5 44 -31 -49 c-17 -28 -40 -69 -50 -92 -10 -24 -22 -43 -25 -43 -3 0 -3 33 -1 72 l6 73 -52 -57 c-28 -31 -68 -63 -88 -72 -31 -12 -39 -22 -51 -63 l-14 -48 -13 53 c-8 28 -17 52 -20 52 -4 0 -11 -17 -17 -37 l-10 -38 -3 35 c-3 32 -4 31 -9 -13 l-6 -48 -28 43 -29 43 4 -53 c3 -54 -5 -68 -17 -29 -4 12 -13 42 -21 67 l-14 45 3 -57 c2 -63 -3 -65 -28 -12 -14 29 -16 50 -10 103 5 44 10 60 15 46 5 -15 10 -10 23 30 22 62 21 69 -3 25 -36 -65 -20 -17 26 83 44 92 47 107 54 209 9 137 22 163 237 505 85 136 222 354 303 484 82 129 306 505 498 835 192 329 359 616 372 637 12 20 20 37 17 37 -2 0 -108 -163 -234 -362z"></path>
    <path d="M5480 6483 c0 -14 14 -33 38 -52 20 -17 66 -54 102 -83 56 -45 61 -48 42 -20 -13 17 -52 53 -88 78 -35 25 -71 58 -79 73 -13 24 -14 25 -15 4z"></path>
    <path d="M5437 6471 c-6 -24 14 -51 58 -76 l30 -17 -27 23 c-15 13 -33 39 -41 58 -13 29 -15 31 -20 12z"></path>
    <path d="M4907 6331 c54 -43 144 -130 200 -193 98 -110 169 -178 313 -298 61 -51 59 -48 -31 46 -52 54 -135 146 -184 204 -115 135 -194 213 -259 255 -45 28 -119 65 -133 65 -2 0 40 -35 94 -79z"></path>
    <path d="M5066 6318 c65 -48 151 -140 244 -258 117 -151 148 -179 101 -95 -96 174 -186 281 -282 338 -69 40 -110 50 -63 15z"></path>
    <path d="M5296 6227 c33 -34 74 -91 92 -125 18 -34 35 -62 37 -62 8 0 -35 113 -62 161 -32 59 -66 89 -100 89 -23 0 -21 -5 33 -63z"></path>
    <path d="M4776 6149 c28 -30 91 -108 140 -174 100 -136 247 -288 317 -329 48 -28 168 -76 133 -53 -10 6 -52 33 -92 59 -107 69 -156 117 -264 263 -89 120 -215 252 -264 277 -12 6 2 -14 30 -43z"></path>
    <path d="M4798 6018 c21 -35 67 -118 101 -185 52 -103 72 -131 131 -186 41 -39 95 -78 133 -96 89 -43 107 -38 24 6 -104 55 -146 98 -207 212 -48 89 -201 311 -215 311 -3 0 12 -28 33 -62z"></path>
    <path d="M4850 5828 c0 -3 12 -32 27 -64 42 -93 101 -180 151 -225 44 -39 148 -96 158 -87 2 3 -16 19 -40 36 -75 54 -162 148 -227 245 -65 98 -69 103 -69 95z"></path>
    <path d="M4605 5788 c39 -98 267 -420 355 -502 95 -87 111 -87 24 1 -61 60 -91 101 -133 180 -55 103 -146 232 -220 313 l-41 45 15 -37z"></path>
    <path d="M4830 5674 c0 -14 66 -124 91 -150 11 -12 43 -34 72 -49 l52 -28 -70 74 c-39 41 -87 94 -108 119 -20 25 -37 40 -37 34z"></path>
    <path d="M6540 4144 c0 -2 23 -15 52 -30 56 -28 160 -95 155 -100 -1 -1 -29 10 -62 26 -84 39 -121 48 -70 16 55 -34 126 -88 122 -92 -2 -2 -21 5 -43 15 -21 10 -55 22 -74 26 l-35 7 45 -30 c25 -16 56 -42 70 -57 25 -27 24 -26 -40 8 -62 34 -228 97 -253 97 -7 0 29 -22 78 -48 104 -56 147 -83 141 -89 -2 -3 -18 3 -35 11 -46 24 -48 19 -4 -16 39 -32 110 -108 100 -108 -2 0 -29 11 -58 25 -55 24 -240 78 -247 71 -2 -2 7 -7 20 -11 35 -10 159 -68 155 -72 -2 -1 -30 6 -62 17 -74 25 -101 26 -52 1 42 -21 150 -102 144 -107 -2 -2 -26 7 -53 20 -53 26 -274 99 -280 93 -2 -2 22 -14 54 -27 55 -22 222 -108 222 -115 0 -1 -41 10 -92 26 -50 16 -93 28 -94 26 -2 -1 40 -24 92 -51 52 -26 94 -50 92 -52 -4 -3 -193 50 -323 90 -121 38 -46 1 115 -56 128 -46 132 -48 75 -42 -33 4 -100 17 -150 29 -49 13 -91 22 -93 20 -5 -5 97 -42 222 -80 l111 -34 -95 0 c-126 -1 -368 35 -495 73 -11 4 4 -5 34 -19 46 -22 154 -55 371 -114 l35 -9 -35 -1 c-19 0 -82 6 -139 14 -57 8 -106 13 -108 12 -2 -2 47 -18 109 -35 l113 -32 -90 6 c-125 7 -296 43 -470 99 -14 4 -13 2 5 -9 38 -23 225 -82 308 -97 40 -7 75 -15 77 -19 5 -7 -108 5 -183 21 -30 6 -56 9 -58 6 -6 -6 123 -43 215 -62 41 -9 77 -17 79 -19 2 -2 -36 -7 -85 -11 -93 -8 -275 4 -447 30 -55 8 -101 13 -103 11 -6 -5 153 -42 237 -55 36 -6 137 -15 225 -21 88 -7 161 -13 163 -14 1 -2 -48 -17 -110 -34 -167 -46 -262 -55 -506 -50 -117 3 -211 4 -209 2 1 -2 65 -12 142 -23 167 -25 367 -27 522 -7 189 25 236 27 368 16 153 -13 335 -47 501 -93 65 -19 130 -37 144 -41 58 -16 -10 14 -98 43 -196 65 -417 112 -617 131 l-100 9 125 -4 c69 -2 177 -13 240 -24 63 -12 120 -21 125 -20 16 1 -61 28 -185 64 -124 37 -125 44 -2 19 107 -21 266 -68 353 -104 40 -16 74 -28 76 -26 5 4 -368 183 -410 196 -21 7 -36 14 -33 17 8 8 145 -36 225 -73 41 -19 76 -33 78 -31 4 4 -87 91 -157 151 l-45 38 80 -42 c89 -47 212 -132 288 -200 30 -27 46 -36 39 -23 -17 31 -168 167 -275 246 -113 84 -114 86 -50 53 29 -14 91 -55 138 -91 97 -73 91 -55 -19 59 -35 36 -61 66 -59 66 9 0 119 -109 174 -173 33 -37 59 -66 59 -63 0 2 -40 70 -89 150 -50 80 -98 158 -107 173 -31 51 64 -59 107 -124 23 -35 43 -63 45 -63 15 0 -117 279 -167 353 l-42 62 39 -34 c82 -73 196 -216 264 -337 18 -30 34 -53 37 -51 7 7 -105 225 -149 290 -21 31 -37 57 -34 57 4 0 91 -102 142 -165 27 -35 -99 193 -134 240 -8 11 13 -9 48 -45 62 -65 62 -65 46 -25 -10 22 -35 73 -56 113 l-39 72 32 -16 c18 -9 78 -63 135 -119 56 -56 102 -100 102 -97 0 17 -139 176 -189 216 -33 27 -61 51 -61 53 0 5 66 -29 132 -68 44 -26 50 -28 33 -9 -24 27 -127 101 -172 124 -17 8 -55 25 -85 36 -53 20 -53 20 -28 0 22 -17 16 -16 -40 6 -72 30 -180 64 -180 58z"></path>
    <path d="M2955 4040 l-30 -8 35 0 c19 0 44 3 55 8 18 8 18 9 -5 8 -14 0 -38 -4 -55 -8z"></path>
    <path d="M2615 4000 c-34 -5 -76 -13 -95 -18 l-35 -10 47 -1 c48 -1 269 27 277 35 7 7 -128 2 -194 -6z"></path>
    <path d="M2102 3954 c-20 -19 -28 -31 -17 -25 32 16 81 60 67 61 -7 0 -29 -16 -50 -36z"></path>
    <path d="M3055 3980 c-15 -7 -10 -9 23 -9 23 -1 42 4 42 9 0 12 -37 12 -65 0z"></path>
    <path d="M2178 3956 c-24 -18 -23 -25 3 -19 14 4 0 -15 -40 -54 -33 -32 -61 -65 -61 -73 0 -18 120 100 123 121 2 8 6 20 10 27 11 16 -13 15 -35 -2z"></path>
    <path d="M2315 3949 c-51 -25 -117 -71 -111 -76 3 -3 31 9 63 26 100 54 141 97 48 50z"></path>
    <path d="M2765 3963 c-22 -3 -44 -9 -49 -14 -14 -13 86 -10 169 5 l70 14 -75 -1 c-41 0 -93 -2 -115 -4z"></path>
    <path d="M2425 3924 c-33 -8 -63 -18 -67 -22 -5 -5 9 -22 30 -39 72 -58 93 -154 51 -240 -39 -81 -116 -125 -321 -184 -79 -22 -172 -54 -208 -71 -84 -40 -165 -121 -260 -262 -84 -123 -129 -172 -170 -181 -43 -10 -95 18 -132 70 -31 44 -33 45 -41 23 -5 -13 -14 -32 -19 -43 -8 -14 -7 -20 1 -23 9 -3 7 -10 -6 -24 -18 -20 -17 -20 5 -14 l23 8 -21 -34 c-26 -43 -26 -58 1 -29 24 25 39 21 18 -5 -13 -16 -12 -17 9 -12 26 7 28 1 5 -24 -15 -17 -15 -18 8 -19 l24 0 -22 -9 c-13 -5 -23 -11 -23 -14 0 -2 10 -2 23 1 l22 6 -24 -20 -24 -19 37 4 c38 4 48 -11 24 -37 -11 -11 -9 -11 11 -1 26 13 26 8 5 -45 l-7 -20 23 20 23 20 -8 -23 c-6 -22 -5 -23 16 -12 21 12 22 11 16 -23 -4 -29 -2 -36 14 -40 11 -3 25 -19 32 -36 6 -17 17 -31 24 -31 7 0 13 -7 13 -15 0 -8 5 -15 10 -15 13 0 13 1 -10 51 -11 24 -19 58 -19 74 0 17 3 24 6 18 11 -28 21 -11 12 19 -12 45 -11 56 5 36 19 -26 22 -23 18 21 -2 23 3 53 13 75 14 30 25 38 62 48 35 8 42 13 29 20 -21 12 -20 44 2 57 9 6 11 11 5 11 -17 0 -16 41 2 64 21 28 67 56 92 56 11 0 50 -13 85 -30 34 -16 77 -30 93 -29 l30 0 -25 12 c-23 10 -20 12 35 17 33 4 50 7 38 8 -41 3 -33 20 12 27 65 9 188 75 273 145 41 33 77 60 82 60 4 0 11 11 14 25 8 33 61 65 106 65 29 1 32 2 18 11 -24 14 -23 39 2 39 25 0 26 15 3 25 -17 6 -17 7 0 17 10 5 34 7 54 3 l35 -6 -34 31 -33 31 47 -3 c50 -3 51 2 4 25 -28 15 -28 15 -7 27 12 6 41 15 64 20 l42 8 -35 2 c-29 1 -32 3 -15 10 11 5 36 9 55 10 l35 2 -34 12 -33 12 26 12 c15 7 44 12 64 13 20 0 46 4 57 9 14 6 3 9 -39 9 -67 1 -69 7 -5 21 l44 9 -57 -2 c-57 -2 -57 -2 -35 15 12 9 33 19 47 21 24 3 24 3 -5 11 -64 16 -117 39 -145 63 -34 28 -31 43 8 44 l27 1 -30 13 c-16 8 -43 15 -60 15 -26 1 -28 2 -9 10 11 4 47 12 80 16 l59 7 -40 18 c-49 22 -145 23 -230 3z"></path>
    <path d="M2910 3917 l-35 -12 60 -3 c33 -2 80 0 105 4 40 6 42 8 20 15 -37 11 -110 9 -150 -4z"></path>
    <path d="M1956 3860 c-50 -53 -59 -71 -24 -48 28 19 94 98 81 98 -6 0 -31 -22 -57 -50z"></path>
    <path d="M2059 3871 c-24 -21 -53 -54 -63 -72 l-19 -33 29 21 c27 20 53 46 98 101 30 35 3 26 -45 -17z"></path>
    <path d="M1818 3862 c-20 -20 -44 -53 -53 -72 l-18 -35 22 20 c29 25 95 115 89 120 -2 3 -20 -12 -40 -33z"></path>
    <path d="M1875 3859 c-25 -30 -28 -48 -6 -35 17 11 53 66 43 66 -6 0 -22 -14 -37 -31z"></path>
    <path d="M2694 3872 c10 -17 105 -34 171 -30 l60 3 -70 13 c-114 22 -169 27 -161 14z"></path>
    <path d="M3027 3846 c-60 -16 -75 -30 -22 -21 58 10 115 25 115 30 0 9 -44 4 -93 -9z"></path>
    <path d="M2713 3803 c17 -27 201 -44 252 -24 13 5 -23 10 -95 14 -63 2 -126 8 -139 12 -16 5 -22 5 -18 -2z"></path>
    <path d="M1361 3733 c-14 -48 -14 -139 -1 -106 11 27 25 143 17 143 -3 0 -11 -17 -16 -37z"></path>
    <path d="M1401 3693 c-1 -39 4 -75 9 -78 12 -8 12 101 0 130 -6 14 -9 -2 -9 -52z"></path>
    <path d="M1510 3680 c0 -38 4 -59 10 -55 6 3 10 28 10 55 0 27 -4 52 -10 55 -6 4 -10 -17 -10 -55z"></path>
    <path d="M3450 3389 c-154 -12 -307 -36 -407 -65 -76 -22 -273 -107 -273 -117 0 -3 48 11 107 29 158 50 328 90 513 119 172 27 248 43 200 43 -14 -1 -77 -5 -140 -9z"></path>
    <path d="M4056 3318 c-2 -7 -7 -26 -11 -42 -6 -29 -6 -29 -21 -7 -8 11 -24 21 -35 21 -22 0 -22 -3 -10 -48 9 -30 0 -44 -14 -22 -5 8 -65 15 -65 8 0 -2 7 -21 15 -43 8 -22 14 -49 15 -60 0 -16 -4 -13 -20 12 -19 31 -56 49 -82 41 -8 -3 -2 -14 17 -32 l30 -28 -35 7 c-19 4 -62 18 -95 31 l-59 24 34 -36 c19 -19 51 -45 70 -57 43 -27 23 -33 -43 -13 -54 16 -58 11 -33 -49 8 -19 12 -35 9 -35 -4 0 -30 14 -60 30 l-53 30 0 -23 c0 -12 7 -33 16 -45 18 -26 18 -26 -36 -7 -23 8 -47 15 -52 15 -17 0 13 -41 45 -61 l32 -21 -35 6 c-104 16 -120 18 -120 10 0 -4 15 -23 32 -42 l33 -33 -36 15 c-52 22 -66 3 -26 -35 20 -20 20 -21 2 -15 -85 30 -138 15 -274 -77 -44 -31 -99 -61 -121 -67 -21 -6 -56 -22 -78 -36 l-39 -25 34 -34 c46 -46 41 -56 -14 -29 -30 16 -64 24 -95 24 -52 0 -56 -4 -31 -32 15 -17 13 -18 -51 -18 -62 0 -67 -2 -76 -26 -6 -14 -10 -36 -10 -50 0 -31 -6 -30 -37 6 -15 18 -34 30 -49 30 -20 0 -24 -5 -24 -29 0 -16 4 -41 10 -55 13 -35 3 -33 -42 11 -37 37 -48 33 -27 -10 7 -16 1 -12 -20 10 -34 37 -45 31 -31 -17 14 -50 5 -48 -29 4 l-29 47 -7 -30 c-3 -17 -4 -41 0 -53 5 -19 1 -17 -24 12 -28 32 -30 33 -31 13 0 -13 -2 -23 -5 -23 -20 0 -63 33 -73 56 -15 33 -17 31 -41 -37 l-18 -54 -13 42 c-12 39 -15 41 -34 31 -12 -7 -52 -17 -91 -23 l-70 -11 2 -39 3 -40 -25 37 c-35 51 -62 58 -93 23 l-23 -28 -28 27 c-33 31 -56 34 -48 6 5 -19 4 -20 -24 -3 -22 13 -32 14 -40 6 -9 -9 -2 -22 25 -55 21 -24 40 -56 43 -71 5 -25 9 -27 34 -22 31 7 36 -3 19 -36 -12 -21 -1 -26 19 -6 10 10 11 7 7 -13 -3 -14 -7 -43 -10 -65 -6 -39 -5 -39 22 20 16 33 37 67 47 75 17 14 18 13 12 -3 -4 -11 -10 -31 -13 -45 -6 -26 -5 -26 14 4 25 39 47 55 39 28 -4 -11 -9 -32 -12 -49 -4 -16 -8 -40 -11 -52 -2 -13 0 -23 6 -23 5 0 10 5 10 11 0 15 53 99 62 99 4 0 4 -22 1 -50 -7 -60 2 -65 17 -10 6 22 14 40 19 40 12 0 31 -47 31 -78 0 -37 17 -10 26 41 7 45 21 38 27 -13 l3 -35 9 33 c9 39 25 25 25 -22 0 -45 11 -24 19 36 l7 53 22 -35 c12 -19 22 -51 22 -70 1 -58 22 -8 24 55 l1 53 27 -20 c32 -22 60 -60 81 -108 15 -35 15 -35 16 -7 1 15 -6 44 -14 65 l-15 37 24 -29 c13 -16 29 -43 35 -60 9 -27 10 -22 7 34 l-5 65 40 -42 c41 -45 49 -42 23 8 -24 48 -10 45 41 -6 l47 -46 -7 43 c-4 24 -16 60 -27 81 l-19 38 31 -23 c18 -13 39 -36 47 -51 21 -41 27 -27 8 18 -8 21 -13 40 -11 43 3 2 37 -27 75 -65 80 -77 86 -73 52 36 -10 34 -17 61 -15 61 22 0 98 -52 137 -94 l49 -51 -22 43 c-11 24 -38 61 -58 84 l-37 41 44 -6 c25 -3 64 -19 90 -37 45 -30 45 -30 -14 26 l-59 57 55 -6 c33 -3 82 -18 119 -37 34 -17 64 -29 66 -27 6 6 -60 56 -105 79 l-36 19 60 -5 c56 -4 59 -4 40 11 -18 14 -18 15 -2 9 10 -3 23 -6 27 -6 5 0 26 -15 47 -32 l37 -33 -23 34 c-13 18 -44 46 -69 62 l-46 29 52 0 c29 0 69 -7 89 -15 19 -8 37 -15 40 -15 11 0 -12 21 -54 49 -25 17 -39 31 -30 31 8 0 29 -11 45 -25 42 -35 44 -32 15 20 -23 41 -23 45 -6 45 23 -1 98 -35 107 -49 4 -6 12 -11 18 -11 15 0 -40 57 -74 78 -16 9 -28 19 -28 22 0 8 91 -3 110 -14 8 -4 -1 6 -20 23 l-35 32 40 -7 c45 -7 88 -25 125 -51 l25 -18 -24 35 c-13 19 -38 50 -55 68 l-31 33 30 -11 c16 -6 36 -17 44 -23 8 -7 5 3 -8 21 l-23 33 54 -20 53 -20 -44 39 -44 40 54 0 c30 0 69 -4 87 -9 45 -13 31 6 -21 29 l-40 18 39 11 c21 6 52 11 68 11 50 0 20 13 -46 20 l-63 6 59 18 c57 18 104 18 196 1 21 -4 20 -3 -7 10 -17 8 -60 18 -95 23 l-63 8 65 12 c36 7 110 18 165 25 l100 12 -73 6 c-110 8 -111 17 -15 109 90 86 173 133 262 150 76 14 194 12 275 -5 38 -8 71 -13 73 -11 2 2 -17 11 -44 20 -69 24 -223 39 -322 33 l-86 -5 39 20 c21 11 80 28 130 38 50 10 77 19 60 19 -50 2 -88 20 -109 54 -22 34 -52 47 -59 25z"></path>
    <path d="M3175 3211 c-46 -6 -24 -8 96 -9 86 -1 198 -4 250 -7 74 -3 85 -2 54 5 -53 13 -324 20 -400 11z"></path>
    <path d="M1210 3175 c-25 -14 -25 -14 -2 -15 12 0 22 -2 22 -5 0 -12 -73 -117 -83 -120 -128 -37 -187 -59 -207 -75 l-25 -20 48 20 c56 23 156 50 187 50 25 0 18 -17 -14 -30 -21 -9 -21 -9 2 -9 17 -1 22 -6 20 -18 -2 -13 -17 -20 -48 -24 -47 -7 -126 -36 -119 -44 3 -2 23 2 44 10 22 8 57 14 78 15 55 0 48 -25 -10 -40 -27 -6 -59 -18 -73 -26 l-25 -15 25 7 c44 12 95 24 108 24 24 0 12 -21 -20 -36 l-33 -15 38 6 c68 11 43 -39 -45 -88 -35 -20 -79 -52 -98 -73 l-35 -38 51 37 c69 49 158 90 163 75 2 -7 -14 -27 -35 -45 l-39 -34 43 22 c57 29 66 16 17 -27 l-40 -34 37 21 c44 24 55 20 64 -26 5 -30 2 -40 -25 -70 -17 -20 -31 -40 -31 -45 0 -4 -3 -17 -7 -27 -3 -10 10 3 30 28 47 60 64 66 96 35 l25 -25 -16 -71 c-8 -38 -13 -70 -12 -70 1 0 14 25 28 55 14 30 27 55 31 55 3 0 29 -13 58 -30 82 -46 182 -80 237 -80 28 0 50 4 50 8 0 5 -18 24 -41 42 -31 24 -38 28 -30 12 16 -29 1 -34 -61 -21 -70 15 -122 42 -183 96 -78 70 -106 110 -94 140 12 32 12 30 -12 36 -14 4 -20 11 -16 21 3 8 -1 17 -9 20 -17 6 -19 67 -3 83 8 8 6 14 -8 21 -29 16 -31 132 -3 179 11 19 17 39 14 44 -11 18 28 51 53 44 l23 -5 -20 50 c-11 28 -20 53 -20 55 0 9 -25 4 -50 -10z"></path>
    <path d="M3430 3135 c58 -7 125 -13 150 -13 l45 0 -45 8 c-25 4 -92 10 -150 13 l-105 5 105 -13z"></path>
    <path d="M5955 3134 c-110 -9 -249 -14 -395 -11 l-225 3 75 -18 c183 -43 272 -44 654 -7 292 28 421 25 703 -15 36 -6 36 -5 8 4 -16 5 -91 19 -165 30 -185 27 -443 33 -655 14z"></path>
    <path d="M5080 3128 c3 -3 52 -16 110 -28 138 -29 308 -85 450 -148 63 -28 106 -44 95 -36 -38 30 -216 114 -292 139 -102 34 -379 89 -363 73z"></path>
    <path d="M4845 3055 c6 -3 80 -29 165 -58 85 -30 179 -63 208 -75 28 -12 52 -20 52 -18 0 9 -133 78 -193 101 -35 13 -92 28 -128 34 -35 7 -75 13 -89 16 -14 2 -20 2 -15 0z"></path>
    <path d="M2290 2991 c-72 -19 -149 -57 -195 -95 l-30 -25 60 20 c72 24 266 117 245 117 -8 0 -44 -7 -80 -17z"></path>
    <path d="M4865 2988 c32 -19 188 -78 192 -74 8 8 -83 56 -133 71 -60 18 -88 19 -59 3z"></path>
    <path d="M2665 2929 c-38 -5 -76 -10 -84 -11 -8 -2 141 -3 330 -3 358 0 370 9 24 19 -110 3 -231 1 -270 -5z"></path>
    <path d="M7225 2879 c-33 -16 -90 -36 -127 -46 -60 -15 -77 -16 -175 -4 -59 7 -126 14 -148 17 l-40 4 35 -11 c19 -6 82 -22 140 -35 l105 -24 -85 5 c-86 6 -174 22 -375 70 -85 21 -142 28 -250 30 -77 2 -129 2 -115 -1 125 -21 195 -41 255 -70 41 -20 58 -32 40 -28 -16 3 -59 12 -95 20 -36 7 -94 13 -130 13 l-65 -1 83 -20 c46 -11 81 -22 79 -25 -3 -2 -50 2 -105 11 -55 9 -137 15 -183 14 -46 -1 -66 -3 -44 -4 60 -5 177 -25 172 -30 -2 -3 -56 0 -118 6 -68 7 -156 8 -219 4 l-105 -8 80 -8 c150 -14 251 -29 321 -48 87 -23 52 -25 -111 -5 -66 8 -178 17 -250 20 l-130 5 71 -14 c62 -12 142 -42 132 -50 -1 -2 -41 1 -88 6 -47 5 -123 6 -170 2 l-85 -8 65 -7 c93 -11 180 -30 187 -42 7 -12 -87 -2 -230 25 -60 11 -111 17 -114 15 -6 -7 163 -61 242 -78 33 -6 64 -16 69 -20 12 -11 -34 -4 -224 31 -85 16 -173 31 -195 34 l-40 6 41 -14 c57 -19 118 -52 135 -72 13 -16 12 -16 -17 -1 -30 16 -168 57 -189 57 -5 0 4 -9 20 -20 37 -25 33 -25 -30 -1 -59 22 -147 38 -105 19 180 -80 203 -106 50 -57 -138 45 -279 79 -325 78 -17 0 5 -9 50 -19 105 -24 183 -54 220 -86 18 -16 23 -24 12 -20 -26 8 -199 27 -204 22 -2 -2 11 -7 29 -11 56 -11 149 -38 145 -41 -2 -2 -38 3 -81 11 -65 13 -253 21 -221 10 6 -2 57 -18 114 -35 107 -32 136 -50 41 -25 -89 24 -341 62 -329 50 3 -2 45 -13 94 -24 80 -17 165 -46 165 -54 0 -2 -28 2 -62 9 -35 8 -79 13 -98 13 -34 0 -34 -1 -10 -11 69 -28 139 -62 136 -65 -1 -2 -34 3 -72 11 -38 8 -98 17 -134 20 l-65 6 70 -18 c72 -19 151 -50 144 -56 -2 -2 -51 5 -109 15 -58 10 -145 20 -195 24 l-90 5 98 -28 c54 -16 101 -33 105 -37 4 -5 -2 -5 -13 -1 -11 4 -58 9 -105 12 l-85 4 69 -15 c38 -8 73 -18 78 -23 5 -5 -55 -12 -144 -16 -148 -7 -157 -6 -222 18 l-68 24 28 -29 c15 -16 25 -32 21 -35 -13 -13 -77 8 -121 39 -142 101 -199 138 -271 177 -96 52 -89 43 30 -38 99 -67 228 -179 220 -191 -8 -13 -114 -39 -205 -51 -84 -11 -130 -5 -205 25 -14 6 -12 1 8 -14 34 -28 37 -55 5 -46 -47 14 -146 63 -225 113 -46 29 -83 50 -83 47 0 -7 200 -139 249 -165 50 -25 42 -40 -20 -40 -64 0 -124 28 -195 93 -37 34 -62 53 -57 42 12 -22 121 -127 168 -162 l30 -22 -47 13 c-52 15 -94 41 -152 95 -63 58 -25 2 46 -69 65 -64 58 -74 -20 -29 -18 10 -35 19 -38 19 -2 0 9 -21 25 -47 17 -26 28 -49 26 -52 -10 -10 -60 35 -87 80 -17 27 -32 49 -34 49 -1 0 8 -31 21 -70 13 -38 21 -70 17 -70 -21 0 -122 69 -164 111 -60 60 -49 39 47 -90 41 -56 71 -101 66 -101 -18 0 -87 33 -119 57 -51 38 -47 23 9 -35 27 -29 46 -52 42 -52 -20 0 -125 78 -192 143 l-74 72 44 -64 c24 -35 64 -87 89 -114 l44 -49 -43 22 c-24 12 -66 43 -94 68 -46 44 -49 45 -34 16 9 -17 32 -52 52 -78 19 -25 32 -46 29 -46 -14 0 -93 74 -139 129 -27 33 -51 59 -52 57 -2 -2 15 -42 38 -90 22 -48 39 -90 36 -92 -5 -5 -50 64 -87 131 -11 22 -19 32 -16 22 3 -10 15 -49 27 -88 12 -38 19 -72 17 -74 -2 -3 -25 35 -51 83 -50 93 -52 87 -17 -53 10 -38 16 -72 15 -73 -2 -2 -14 19 -26 47 -12 29 -23 50 -26 48 -2 -2 6 -33 16 -68 11 -35 19 -65 17 -67 -7 -6 -94 141 -117 196 -12 29 -24 51 -26 48 -4 -3 22 -98 44 -165 12 -35 -31 34 -48 78 l-18 46 -1 -70 c-1 -77 -7 -74 -36 15 l-18 55 -11 -70 -10 -70 -27 35 c-32 43 -78 132 -78 153 0 9 -4 18 -9 21 -5 4 -7 -11 -5 -31 8 -90 12 -164 7 -159 -3 3 -19 40 -34 83 l-29 78 5 -75 6 -75 -20 45 c-15 35 -21 41 -26 28 -4 -10 -11 -18 -15 -18 -9 0 -28 45 -33 80 -3 24 -4 24 -19 -10 l-16 -35 -4 45 -4 45 -14 -47 c-8 -27 -17 -48 -21 -48 -8 0 -18 36 -20 70 0 19 -5 13 -18 -23 l-17 -48 -13 63 c-27 126 -20 117 -56 75 -35 -40 -44 -36 -46 21 -1 19 -5 11 -13 -23 -11 -44 -13 -47 -19 -25 -4 14 -7 39 -7 55 0 30 0 30 -28 -15 l-27 -45 -5 45 c-3 25 -9 43 -15 40 -5 -3 -11 5 -13 18 -2 12 -22 37 -44 55 -22 17 -69 56 -104 85 -65 53 -72 56 -54 22 9 -17 4 -22 -32 -41 -24 -13 -74 -30 -113 -40 l-70 -18 60 6 c33 3 88 14 123 23 60 17 62 17 47 0 -9 -9 -34 -25 -55 -35 -62 -28 -41 -28 34 -1 l67 24 10 -25 c19 -51 13 -59 -140 -145 -47 -27 -75 -46 -61 -43 47 14 145 62 200 99 l55 38 -30 -32 c-16 -17 -64 -54 -105 -82 -41 -27 -77 -52 -80 -55 -13 -14 131 64 180 97 83 55 84 56 65 27 -9 -15 -14 -31 -10 -36 3 -6 1 -20 -6 -32 -11 -21 -10 -21 12 -6 27 19 49 7 49 -27 0 -24 -66 -139 -173 -303 -36 -57 -65 -103 -63 -103 5 0 166 216 214 286 40 59 94 114 113 114 13 0 12 -6 -11 -51 -25 -47 -80 -213 -80 -237 0 -10 11 13 24 50 26 73 61 139 96 178 l21 25 -6 -37 c-3 -21 -4 -38 -1 -38 3 0 17 21 30 47 23 44 25 46 26 20 0 -38 -26 -163 -50 -234 -14 -40 -15 -52 -5 -39 11 15 34 64 101 221 6 14 10 -3 14 -60 l5 -80 20 55 20 55 5 -105 5 -105 13 90 c25 164 28 171 36 78 5 -45 5 -131 2 -190 l-5 -108 24 105 c13 58 25 122 25 143 0 84 37 10 49 -101 l7 -67 8 70 c4 39 9 75 11 80 5 19 36 -66 44 -123 l8 -57 7 50 c16 117 35 138 83 93 35 -32 63 -84 141 -254 72 -158 117 -234 176 -299 33 -36 28 -25 -43 115 -44 85 -89 180 -100 210 -25 67 -61 199 -61 220 1 20 33 -20 65 -80 28 -52 31 -38 11 40 -8 30 -13 57 -11 58 2 2 27 -43 55 -100 51 -103 59 -96 20 20 -23 69 -9 55 41 -44 22 -43 38 -71 35 -60 -17 53 -28 107 -22 113 3 3 26 -14 51 -39 25 -25 45 -41 45 -37 0 5 -16 49 -35 97 -29 72 -32 83 -15 66 12 -11 41 -58 66 -105 48 -90 49 -81 3 45 -16 44 -27 81 -26 83 6 5 106 -116 145 -175 19 -29 37 -50 39 -48 3 3 -15 43 -40 90 -24 47 -41 86 -37 86 17 0 91 -59 125 -100 47 -57 45 -55 45 -43 0 5 -19 39 -41 74 -39 60 -36 62 20 14 l24 -20 -13 25 c-7 14 -28 49 -46 78 -19 28 -31 52 -27 52 11 0 116 -90 243 -208 132 -123 130 -120 -44 88 -43 52 -86 104 -95 114 -25 30 61 -20 115 -67 24 -21 44 -36 44 -32 0 8 -45 70 -79 109 l-26 29 44 -24 c25 -13 90 -66 145 -117 94 -89 152 -134 204 -161 12 -6 22 -10 22 -8 0 2 -32 29 -71 61 -39 32 -99 92 -134 132 -62 73 -125 177 -114 188 9 9 198 -41 243 -65 23 -11 56 -35 73 -52 18 -17 35 -28 38 -25 12 11 -105 105 -156 126 -75 29 -14 27 81 -3 15 -4 0 11 -35 37 -33 24 -66 52 -74 61 -12 15 -11 17 7 17 44 0 122 -22 147 -42 31 -25 75 -109 106 -205 12 -40 24 -71 27 -69 2 2 -6 43 -17 90 -21 88 -60 175 -105 235 -14 19 -24 36 -22 38 8 8 64 -21 95 -50 36 -34 34 -23 -7 32 -22 30 -23 34 -6 27 68 -27 422 -87 504 -85 32 1 5 8 -90 25 -74 13 -166 33 -205 44 -70 19 -170 59 -163 65 5 5 137 -21 199 -39 75 -23 72 -12 -5 15 -36 13 -66 27 -66 30 0 7 138 43 206 54 56 9 115 -8 196 -56 64 -37 113 -91 246 -264 l23 -30 -17 35 c-59 122 -178 256 -279 315 -25 15 -44 29 -42 32 10 9 188 33 356 48 97 9 273 24 391 35 118 11 319 26 445 35 299 20 395 31 535 62 73 16 131 23 159 20 l45 -5 -39 25 -40 25 68 -6 c37 -3 88 -14 114 -26 25 -11 48 -20 50 -20 14 0 -25 34 -65 57 -44 26 -44 27 -21 36 47 18 140 2 234 -41 49 -22 92 -39 94 -36 8 7 -33 46 -78 72 -24 14 -71 34 -105 44 l-61 18 110 -3 c88 -2 120 -7 159 -25 27 -12 51 -20 54 -17 9 9 -57 62 -90 72 l-33 10 30 13 c17 7 60 13 96 13 55 1 77 -4 128 -29 33 -17 61 -27 61 -23 0 14 -74 68 -102 74 -15 4 -30 11 -33 15 -10 15 127 -1 173 -21 23 -10 42 -16 42 -14 0 3 -19 19 -42 36 -41 30 -42 31 -13 25 45 -11 72 -32 95 -74 l21 -37 -6 40 c-4 22 -13 52 -20 68 -7 15 -11 27 -9 27 21 0 89 -47 105 -73 l21 -32 -6 39 c-3 21 -14 49 -26 61 -11 12 -20 24 -20 28 0 8 102 -22 115 -34 5 -5 14 -9 20 -9 5 0 -8 15 -30 34 l-39 33 44 23 c68 35 123 76 164 126 21 25 36 47 35 48 -2 2 -31 -10 -64 -25z"></path>
    <path d="M2485 2858 c209 -20 559 -60 574 -65 14 -4 14 -3 1 5 -51 33 -368 73 -565 70 l-100 -1 90 -9z"></path>
    <path d="M2188 2821 c-54 -4 -101 -10 -105 -14 -8 -9 245 -7 322 3 l60 7 -61 2 c-34 0 -74 3 -90 5 -16 2 -73 0 -126 -3z"></path>
    <path d="M2225 2699 c17 -6 89 -12 160 -14 129 -4 129 -4 29 4 -55 5 -127 11 -160 14 -48 5 -53 4 -29 -4z"></path>
    <path d="M1836 2605 c13 -55 44 -104 81 -129 20 -14 39 -24 41 -21 3 3 -96 145 -120 170 -6 6 -7 -1 -2 -20z"></path>
    <path d="M2120 2593 c0 -9 118 -55 174 -68 61 -13 220 -29 201 -20 -17 8 -375 92 -375 88z"></path>
    <path d="M2020 2569 c1 -30 48 -95 95 -131 27 -20 51 -35 53 -33 2 2 -29 41 -68 87 -40 46 -75 85 -77 87 -1 2 -3 -2 -3 -10z"></path>
  </g>
</svg>
