<?xml version="1.0" encoding="UTF-8"?>
<!-- Generator: Adobe Illustrator 23.0.4, SVG Export Plug-In . SVG Version: 6.00 Build 0)  -->
<svg xmlns="http://www.w3.org/2000/svg" xmlns:xlink="http://www.w3.org/1999/xlink" id="Ebene_1" x="0px" y="0px" viewBox="0 0 45 22" style="enable-background:new 0 0 45 22;" xml:space="preserve">
<style type="text/css">
	.st0{fill:#FFFFFF;}
</style>
<g>
	<polygon class="st0" points="5.34,5.61 5.34,7.36 8.62,7.36 8.62,16.84 10.95,16.84 10.95,7.36 14.21,7.36 14.21,5.61  "></polygon>
	<g>
		<path class="st0" d="M22.62,16.84h-2.44L16.37,5.61h2.42c0.89,2.79,1.87,5.54,2.61,8.27c0.72-2.73,1.7-5.46,2.59-8.27h2.43    L22.62,16.84z"></path>
		<path class="st0" d="M33.02,7.36h-1.83v7.68h1.83c2.66,0,2.76-1.38,2.76-3.84C35.79,8.76,35.68,7.36,33.02,7.36 M33.02,16.84    h-4.16V5.61h4.16c4.5,0,5.15,2.63,5.15,5.64C38.18,14.28,37.52,16.84,33.02,16.84"></path>
	</g>
</g>
<g>
	<path class="st0" d="M40.68,3.33c-0.36,0-0.67,0.3-0.67,0.68s0.31,0.68,0.67,0.68c0.36,0,0.67-0.31,0.67-0.68   C41.35,3.63,41.04,3.33,40.68,3.33z"></path>
	<path class="st0" d="M39.99,1C38.5,1,37.3,2.21,37.3,3.7s1.21,2.7,2.69,2.7c1.49,0,2.7-1.21,2.7-2.7C42.69,2.21,41.48,1,39.99,1z    M39.07,5.1h-0.54V2.92h0.54V5.1z M38.8,2.7c-0.17,0-0.3-0.12-0.3-0.27s0.13-0.27,0.3-0.27s0.3,0.13,0.3,0.27   C39.1,2.58,38.96,2.7,38.8,2.7z M41.83,5.1h-0.5V4.9c-0.01,0.01-0.08,0.01-0.09,0.02c-0.15,0.15-0.37,0.24-0.61,0.24   c-0.72,0-1.14-0.59-1.14-1.15c0-0.53,0.45-1.15,1.16-1.15c0.27,0,0.48,0.09,0.62,0.25l0.06-0.07V2.28h0.5V5.1z"></path>
</g>
</svg>
